SplineFontDB: 3.2
FontName: Sampradaya
FullName: sampradaya
FamilyName: Sampradaya
Weight: Book
Copyright: Copyright 2014-2016 Ambarish Sridharanarayanan.\n\nReleased under the SIL Open Font License v1.1 http://scripts.sil.org/OFL_web\n\nAcknowledgements:\n* Prof. R. Kalyana Krishnan, (Retd.)\n* Vinodh Rajan\n* Anupama Krishnan\n* Ranganath Atreya\n* FontForge\n* Unicode
Version: 0.6
ItalicAngle: 0
UnderlinePosition: -126
UnderlineWidth: 50
Ascent: 819
Descent: 205
InvalidEm: 0
sfntRevision: 0x00010000
LayerCount: 2
Layer: 0 1 "Back" 1
Layer: 1 1 "Fore" 0
XUID: [1021 268 364675272 1489025]
StyleMap: 0x0040
FSType: 0
OS2Version: 3
OS2_WeightWidthSlopeOnly: 0
OS2_UseTypoMetrics: 0
CreationTime: 1358746353
ModificationTime: 1607203954
PfmFamily: 81
TTFWeight: 400
TTFWidth: 5
LineGap: 31
VLineGap: 0
Panose: 0 0 0 0 0 0 0 0 0 0
OS2TypoAscent: 768
OS2TypoAOffset: 0
OS2TypoDescent: -174
OS2TypoDOffset: 0
OS2TypoLinegap: 31
OS2WinAscent: 876
OS2WinAOffset: 0
OS2WinDescent: 642
OS2WinDOffset: 0
HheadAscent: 768
HheadAOffset: 0
HheadDescent: -174
HheadDOffset: 0
OS2SubXSize: 102
OS2SubYSize: 102
OS2SubXOff: 0
OS2SubYOff: 143
OS2SupXSize: 102
OS2SupYSize: 102
OS2SupXOff: 0
OS2SupYOff: 143
OS2StrikeYSize: 51
OS2StrikeYPos: 256
OS2Vendor: 'pyrs'
OS2CodePages: 00000001.00000000
OS2UnicodeRanges: 80000003.00000000.00000000.00000000
Lookup: 4 0 0 "'akhn' Akhand lookup 0" { "'akhn' Akhand lookup 0 subtable"  } ['akhn' ('DFLT' <'dflt' > 'deva' <'dflt' > 'gran' <'dflt' > 'taml' <'dflt' > ) ]
Lookup: 4 0 0 "'akhn' Akhand lookup 1" { "'akhn' Akhand lookup 1 subtable"  } ['akhn' ('DFLT' <'dflt' > 'deva' <'dflt' > 'gran' <'dflt' > 'taml' <'dflt' > ) ]
Lookup: 4 0 0 "'rphf' Reph Form lookup 2" { "'rphf' Reph Form lookup 2 subtable"  } ['rphf' ('DFLT' <'dflt' > 'deva' <'dflt' > 'gran' <'dflt' > 'taml' <'dflt' > ) ]
Lookup: 4 0 0 "'pstf' Post Base Forms lookup 3" { "'pstf' Post Base Forms lookup 3 subtable"  } ['pstf' ('DFLT' <'dflt' > 'deva' <'dflt' > 'gran' <'dflt' > 'taml' <'dflt' > ) ]

StartChar: .notdef
Encoding: 1114112 -1 0
Width: 373
Flags: W
LayerCount: 2
Fore
SplineSet
34 0 m 1,0,-1
 34 682 l 1,1,-1
 306 682 l 1,2,-1
 306 0 l 1,3,-1
 34 0 l 1,0,-1
68 34 m 1,4,-1
 272 34 l 1,5,-1
 272 648 l 1,6,-1
 68 648 l 1,7,-1
 68 34 l 1,4,-1
EndSplineSet
EndChar

StartChar: udattadeva
Encoding: 2385 2385 3
Width: 0
GlyphClass: 2
Flags: W
LayerCount: 2
Fore
SplineSet
-228 504 m 1,0,1
 -230 503 -230 503 -230 508 c 0,2,3
 -230 514 -230 514 -228 521 c 128,-1,4
 -226 528 -226 528 -221.5 534.5 c 128,-1,5
 -217 541 -217 541 -209 541 c 0,6,7
 -193 541 -193 541 -188 532 c 128,-1,8
 -183 523 -183 523 -183 504 c 2,9,-1
 -183 312 l 2,10,11
 -183 304 -183 304 -189 295 c 128,-1,12
 -195 286 -195 286 -205 286 c 0,13,14
 -212 286 -212 286 -219.5 291 c 128,-1,15
 -227 296 -227 296 -227 303 c 2,16,-1
 -228 504 l 1,0,1
EndSplineSet
EndChar

StartChar: anudattadeva
Encoding: 2386 2386 4
Width: 0
GlyphClass: 2
Flags: W
LayerCount: 2
Fore
SplineSet
-339 -60 m 2,0,1
 -347 -60 -347 -60 -350.5 -52 c 128,-1,2
 -354 -44 -354 -44 -354 -36 c 256,3,4
 -354 -28 -354 -28 -350.5 -20.5 c 128,-1,5
 -347 -13 -347 -13 -339 -13 c 2,6,-1
 -90 -13 l 2,7,8
 -82 -13 -82 -13 -77.5 -20.5 c 128,-1,9
 -73 -28 -73 -28 -73 -38 c 0,10,11
 -73 -45 -73 -45 -78.5 -52.5 c 128,-1,12
 -84 -60 -84 -60 -92 -60 c 2,13,-1
 -339 -60 l 2,0,1
EndSplineSet
EndChar

StartChar: danda
Encoding: 2404 2404 5
Width: 203
GlyphClass: 2
Flags: W
LayerCount: 2
Fore
SplineSet
131 32 m 2,0,1
 131 19 131 19 120 12 c 128,-1,2
 109 5 109 5 98 5 c 0,3,4
 86 5 86 5 76.5 11.5 c 128,-1,5
 67 18 67 18 67 32 c 2,6,-1
 67 460 l 2,7,8
 67 475 67 475 76.5 481.5 c 128,-1,9
 86 488 86 488 98 488 c 0,10,11
 108 488 108 488 119.5 481.5 c 128,-1,12
 131 475 131 475 131 460 c 2,13,-1
 131 32 l 2,0,1
EndSplineSet
EndChar

StartChar: dbldanda
Encoding: 2405 2405 6
Width: 305
GlyphClass: 2
Flags: W
LayerCount: 2
Fore
SplineSet
128 33 m 2,0,1
 128 20 128 20 118 12.5 c 128,-1,2
 108 5 108 5 96 5 c 0,3,4
 85 5 85 5 76 12 c 128,-1,5
 67 19 67 19 67 33 c 2,6,-1
 67 472 l 2,7,8
 67 486 67 486 76 493.5 c 128,-1,9
 85 501 85 501 96 501 c 256,10,11
 107 501 107 501 117.5 493.5 c 128,-1,12
 128 486 128 486 128 472 c 2,13,-1
 128 33 l 2,0,1
258 37 m 2,14,15
 258 24 258 24 247.5 16.5 c 128,-1,16
 237 9 237 9 226 9 c 128,-1,17
 215 9 215 9 206 16.5 c 128,-1,18
 197 24 197 24 197 37 c 2,19,-1
 197 475 l 2,20,21
 197 490 197 490 206 497.5 c 128,-1,22
 215 505 215 505 226 505 c 0,23,24
 236 505 236 505 247 497.5 c 128,-1,25
 258 490 258 490 258 475 c 2,26,-1
 258 37 l 2,14,15
EndSplineSet
EndChar

StartChar: u0BE6
Encoding: 3046 3046 7
Width: 408
GlyphClass: 2
Flags: W
LayerCount: 2
Fore
SplineSet
208 325 m 2,0,-1
 210 325 l 2,1,2
 238 325 238 325 268.5 314.5 c 128,-1,3
 299 304 299 304 324 284 c 128,-1,4
 349 264 349 264 366 234.5 c 128,-1,5
 383 205 383 205 383 165 c 0,6,7
 383 133 383 133 372.5 103.5 c 128,-1,8
 362 74 362 74 340.5 51.5 c 128,-1,9
 319 29 319 29 286.5 15 c 128,-1,10
 254 1 254 1 210 0 c 2,11,-1
 208 0 l 1,12,-1
 204 0 l 1,13,-1
 203 0 l 2,14,15
 146 1 146 1 107 25.5 c 128,-1,16
 68 50 68 50 48.5 86.5 c 128,-1,17
 29 123 29 123 29 165 c 256,18,19
 29 207 29 207 49 243 c 128,-1,20
 69 279 69 279 109 302 c 0,21,22
 147 325 147 325 203 325 c 0,23,24
 206 325 206 325 208 325 c 2,0,-1
206 270 m 1,25,26
 176 270 176 270 153.5 260 c 128,-1,27
 131 250 131 250 116.5 234 c 128,-1,28
 102 218 102 218 95 199 c 128,-1,29
 88 180 88 180 88 163 c 0,30,31
 88 124 88 124 117.5 94.5 c 128,-1,32
 147 65 147 65 208 65 c 0,33,34
 266 65 266 65 296 94.5 c 128,-1,35
 326 124 326 124 326 163 c 0,36,37
 326 180 326 180 318 198.5 c 128,-1,38
 310 217 310 217 296.5 232.5 c 128,-1,39
 283 248 283 248 263.5 257.5 c 128,-1,40
 244 267 244 267 219 267 c 1,41,-1
 206 270 l 1,25,26
EndSplineSet
EndChar

StartChar: u0BE7
Encoding: 3047 3047 8
Width: 490
GlyphClass: 2
Flags: W
LayerCount: 2
Fore
SplineSet
336 286 m 2,0,1
 347 286 347 286 352.5 278.5 c 128,-1,2
 358 271 358 271 358 263 c 0,3,4
 358 259 358 259 358.5 254 c 128,-1,5
 359 249 359 249 356 245 c 128,-1,6
 353 241 353 241 345.5 238.5 c 128,-1,7
 338 236 338 236 322 236 c 1,8,-1
 322 185 l 1,9,10
 326 185 326 185 331 185 c 0,11,12
 334 185 334 185 337 185 c 0,13,14
 360 185 360 185 383 179 c 0,15,16
 410 172 410 172 426 158 c 0,17,18
 443 145 443 145 452 127 c 128,-1,19
 461 109 461 109 461 88 c 0,20,21
 461 73 461 73 455 57 c 128,-1,22
 449 41 449 41 436.5 28.5 c 128,-1,23
 424 16 424 16 406 8.5 c 128,-1,24
 388 1 388 1 366 1 c 0,25,26
 354 1 354 1 347.5 8 c 128,-1,27
 341 15 341 15 341 24 c 128,-1,28
 341 33 341 33 347 40 c 0,29,30
 352 45 352 45 366 47 c 0,31,32
 394 50 394 50 406 68 c 0,33,34
 415 81 415 81 415 95 c 0,35,36
 415 102 415 102 414 105 c 0,37,38
 408 125 408 125 386 139 c 0,39,40
 368 151 368 151 336 152 c 0,41,42
 330 152 330 152 322 151 c 1,43,-1
 322 92 l 2,44,45
 322 87 322 87 320.5 80 c 128,-1,46
 319 73 319 73 322 67 c 1,47,48
 310 39 310 39 284.5 23.5 c 128,-1,49
 259 8 259 8 228 4 c 0,50,51
 216 2 216 2 204 2 c 0,52,53
 186 2 186 2 166 6 c 0,54,55
 134 12 134 12 108 27 c 128,-1,56
 82 42 82 42 65 64.5 c 128,-1,57
 48 87 48 87 48 116 c 0,58,59
 48 120 48 120 50 129 c 128,-1,60
 52 138 52 138 53 136 c 1,61,62
 59 154 59 154 86 163.5 c 128,-1,63
 113 173 113 173 156 181 c 1,64,-1
 156 263 l 2,65,66
 156 272 156 272 168 278 c 1,67,68
 174 286 174 286 186 286 c 2,69,-1
 336 286 l 2,0,1
260 80 m 1,70,-1
 260 89 l 1,71,-1
 260 152 l 1,72,73
 229 151 229 151 202 147 c 128,-1,74
 175 143 175 143 154 138.5 c 128,-1,75
 133 134 133 134 119 129 c 128,-1,76
 105 124 105 124 102 120 c 0,77,78
 102 119 102 119 102.5 118 c 128,-1,79
 103 117 103 117 103 116 c 0,80,81
 103 97 103 97 114.5 82.5 c 128,-1,82
 126 68 126 68 143 59 c 128,-1,83
 160 50 160 50 180 47 c 0,84,85
 193 45 193 45 205 45 c 0,86,87
 211 45 211 45 216 45 c 0,88,89
 232 46 232 46 244.5 52.5 c 128,-1,90
 257 59 257 59 258 71 c 2,91,-1
 260 80 l 1,70,-1
198 190 m 1,92,93
 209 191 209 191 229 190.5 c 128,-1,94
 249 190 249 190 260 190 c 1,95,-1
 260 241 l 1,96,-1
 197 241 l 1,97,-1
 198 190 l 1,92,93
EndSplineSet
EndChar

StartChar: u0BE8
Encoding: 3048 3048 9
Width: 489
GlyphClass: 2
Flags: W
LayerCount: 2
Fore
SplineSet
72 5 m 2,0,1
 53 5 53 5 48 18 c 1,2,3
 40 25 40 25 35.5 36 c 128,-1,4
 31 47 31 47 35 61 c 128,-1,5
 39 75 39 75 53.5 90.5 c 128,-1,6
 68 106 68 106 97 123 c 1,7,8
 58 147 58 147 46 177 c 0,9,10
 37 199 37 199 37 219 c 0,11,12
 37 230 37 230 39 240 c 0,13,14
 45 269 45 269 74 292 c 128,-1,15
 103 315 103 315 156 316 c 1,16,-1
 156 317 l 1,17,18
 197 317 197 317 225 304 c 128,-1,19
 253 291 253 291 268 270 c 128,-1,20
 283 249 283 249 283 224 c 0,21,22
 283 223 283 223 283 221 c 128,-1,23
 283 219 283 219 283 218 c 0,24,25
 283 216 283 216 283 215 c 128,-1,26
 283 214 283 214 283 213 c 128,-1,27
 283 212 283 212 283 211 c 0,28,29
 283 197 283 197 272 176 c 0,30,31
 259 152 259 152 234 132.5 c 128,-1,32
 209 113 209 113 171 103 c 1,33,-1
 170 102 l 1,34,-1
 168 102 l 1,35,36
 125 85 125 85 104 73.5 c 128,-1,37
 83 62 83 62 75 54 c 1,38,-1
 418 54 l 2,39,40
 431 54 431 54 437 46.5 c 128,-1,41
 443 39 443 39 443 30 c 256,42,43
 443 21 443 21 437 13 c 128,-1,44
 431 5 431 5 418 5 c 2,45,-1
 72 5 l 2,0,1
161 261 m 256,46,47
 127 261 127 261 109 248.5 c 128,-1,48
 91 236 91 236 91 217 c 0,49,50
 91 200 91 200 108 181.5 c 128,-1,51
 125 163 125 163 160 151 c 1,52,53
 195 163 195 163 212 181.5 c 128,-1,54
 229 200 229 200 229 217 c 0,55,56
 229 235 229 235 212 248 c 128,-1,57
 195 261 195 261 161 261 c 256,46,47
EndSplineSet
EndChar

StartChar: u0BE9
Encoding: 3049 3049 10
Width: 367
GlyphClass: 3
Flags: W
LayerCount: 2
Fore
SplineSet
193 307 m 2,0,1
 198 307 198 307 207.5 306.5 c 128,-1,2
 217 306 217 306 227 304 c 128,-1,3
 237 302 237 302 244 297.5 c 128,-1,4
 251 293 251 293 251 285 c 0,5,6
 251 275 251 275 244 269 c 128,-1,7
 237 263 237 263 227 260.5 c 128,-1,8
 217 258 217 258 207.5 257.5 c 128,-1,9
 198 257 198 257 193 257 c 1,10,-1
 193 190 l 1,11,12
 213 193 213 193 225 193 c 0,13,14
 251 192 251 192 270 186 c 0,15,16
 303 176 303 176 322 154 c 0,17,18
 340 134 340 134 346 107 c 0,19,20
 348 96 348 96 348 89 c 0,21,22
 347 71 347 71 342 58 c 0,23,24
 332 34 332 34 306.5 18 c 128,-1,25
 281 2 281 2 238 2 c 0,26,27
 226 2 226 2 219 9 c 128,-1,28
 212 16 212 16 212 25 c 128,-1,29
 212 34 212 34 217.5 41 c 128,-1,30
 223 48 223 48 236 48 c 0,31,32
 259 48 259 48 272 59 c 128,-1,33
 285 70 285 70 288.5 84 c 128,-1,34
 292 98 292 98 287 113 c 128,-1,35
 282 128 282 128 270 136 c 128,-1,36
 258 144 258 144 242 144 c 0,37,38
 240 144 240 144 238 144 c 0,39,40
 219 144 219 144 193 126 c 1,41,-1
 193 95 l 2,42,43
 193 83 193 83 182 77.5 c 128,-1,44
 171 72 171 72 159 72 c 256,45,46
 147 72 147 72 136 77.5 c 128,-1,47
 125 83 125 83 125 95 c 2,48,-1
 125 257 l 1,49,-1
 79 258 l 1,50,-1
 80 35 l 2,51,52
 80 2 80 2 54 2 c 0,53,54
 45 2 45 2 39 13 c 128,-1,55
 33 24 33 24 33 33 c 2,56,-1
 33 284 l 2,57,58
 33 295 33 295 39.5 300.5 c 128,-1,59
 46 306 46 306 54 306 c 0,60,61
 55 306 55 306 55.5 306.5 c 128,-1,62
 56 307 56 307 57 307 c 2,63,-1
 193 307 l 2,0,1
EndSplineSet
EndChar

StartChar: u0BEA
Encoding: 3050 3050 11
Width: 490
GlyphClass: 2
Flags: W
LayerCount: 2
Fore
SplineSet
308 308 m 2,0,1
 313 308 313 308 319 308 c 0,2,3
 326 308 326 308 332.5 305.5 c 128,-1,4
 339 303 339 303 343 297 c 128,-1,5
 347 291 347 291 347 279 c 0,6,7
 347 263 347 263 332.5 259.5 c 128,-1,8
 318 256 318 256 298 256 c 1,9,-1
 297 195 l 1,10,11
 314 192 314 192 329 192 c 128,-1,12
 344 192 344 192 356 195 c 0,13,14
 384 202 384 202 398 212 c 0,15,16
 415 224 415 224 423.5 241 c 128,-1,17
 432 258 432 258 432 278 c 0,18,19
 432 288 432 288 434 294.5 c 128,-1,20
 436 301 436 301 446 301 c 0,21,22
 457 301 457 301 466 296.5 c 128,-1,23
 475 292 475 292 475 282 c 0,24,25
 475 258 475 258 466 233.5 c 128,-1,26
 457 209 457 209 436 190 c 0,27,28
 417 173 417 173 382 162 c 0,29,30
 360 155 360 155 327 155 c 0,31,32
 315 155 315 155 301 156 c 1,33,-1
 302 86 l 1,34,-1
 302 77 l 2,35,36
 302 44 302 44 282 26 c 0,37,38
 260 6 260 6 232 2 c 0,39,40
 218 0 218 0 202 0 c 0,41,42
 185 0 185 0 168 2 c 0,43,44
 133 7 133 7 102.5 23.5 c 128,-1,45
 72 40 72 40 53 62 c 0,46,47
 33 85 33 85 33 115 c 0,48,49
 33 117 33 117 33.5 122.5 c 128,-1,50
 34 128 34 128 35 129 c 0,51,52
 45 168 45 168 130 190 c 1,53,-1
 130 282 l 2,54,55
 130 293 130 293 142 298 c 1,56,57
 149 308 149 308 160 308 c 2,58,-1
 308 308 l 2,0,1
241 84 m 1,59,-1
 242 157 l 1,60,61
 212 157 212 157 187 158 c 0,62,63
 173 158 173 158 173 158 c 2,64,65
 167 158 167 158 142 156 c 0,66,67
 121 154 121 154 108 146 c 0,68,69
 94 138 94 138 87 124 c 1,70,-1
 87 108 l 2,71,72
 87 79 87 79 112 63 c 0,73,74
 140 44 140 44 166 42 c 0,75,76
 179 41 179 41 190 41 c 0,77,78
 203 40 203 40 218 44 c 0,79,80
 241 50 241 50 239 65 c 2,81,-1
 241 84 l 1,59,-1
176 202 m 1,82,83
 185 204 185 204 195 204 c 0,84,85
 201 204 201 204 208 203 c 0,86,87
 218 202 218 202 226 202 c 128,-1,88
 234 202 234 202 240 203 c 1,89,-1
 241 255 l 1,90,-1
 176 254 l 1,91,-1
 176 202 l 1,82,83
EndSplineSet
EndChar

StartChar: u0BEB
Encoding: 3051 3051 12
Width: 490
GlyphClass: 2
Flags: W
LayerCount: 2
Fore
SplineSet
41 219 m 1,0,-1
 41 252 l 2,1,2
 40 256 40 256 40 260 c 0,3,4
 40 272 40 272 45 286 c 0,5,6
 51 304 51 304 59 310 c 128,-1,7
 67 316 67 316 73.5 303 c 128,-1,8
 80 290 80 290 80 243 c 0,9,10
 80 182 80 182 101 140 c 128,-1,11
 122 98 122 98 154.5 74 c 128,-1,12
 187 50 187 50 226 43 c 0,13,14
 245 39 245 39 265 39 c 0,15,16
 282 39 282 39 300 42 c 0,17,18
 335 49 335 49 361 69.5 c 128,-1,19
 387 90 387 90 395 123 c 1,20,-1
 455 123 l 1,21,-1
 394 124 l 1,22,23
 394 140 394 140 389.5 152.5 c 128,-1,24
 385 165 385 165 376.5 169.5 c 128,-1,25
 368 174 368 174 355.5 170 c 128,-1,26
 343 166 343 166 328 150 c 1,27,-1
 328 145 l 2,28,29
 328 136 328 136 320 132.5 c 128,-1,30
 312 129 312 129 303 129 c 256,31,32
 294 129 294 129 286.5 133 c 128,-1,33
 279 137 279 137 279 144 c 2,34,-1
 279 266 l 1,35,-1
 215 267 l 1,36,-1
 214 125 l 2,37,38
 214 119 214 119 208.5 115.5 c 128,-1,39
 203 112 203 112 196 112 c 256,40,41
 189 112 189 112 183 115 c 128,-1,42
 177 118 177 118 177 124 c 2,43,-1
 177 162 l 1,44,-1
 177 206 l 1,45,-1
 177 249 l 2,46,47
 177 260 177 260 177 269 c 256,48,49
 177 278 177 278 176 287 c 1,50,-1
 177 288 l 1,51,52
 179 301 179 301 191 305 c 128,-1,53
 203 309 203 309 214 305 c 1,54,-1
 328 305 l 2,55,56
 337 305 337 305 341 299 c 128,-1,57
 345 293 345 293 345 286 c 256,58,59
 345 279 345 279 341 272.5 c 128,-1,60
 337 266 337 266 328 266 c 1,61,-1
 328 201 l 1,62,63
 349 212 349 212 369 212 c 0,64,65
 373 212 373 212 376 212 c 0,66,67
 400 209 400 209 418 195.5 c 128,-1,68
 436 182 436 182 446 162 c 0,69,70
 455 146 455 146 455 129 c 0,71,72
 455 126 455 126 455 123 c 0,73,74
 455 122 455 122 455 120 c 0,75,76
 455 79 455 79 426 52 c 0,77,78
 397 24 397 24 353 11 c 0,79,80
 319 1 319 1 281 1 c 0,81,82
 269 1 269 1 256 2 c 0,83,84
 204 6 204 6 158 28 c 128,-1,85
 112 50 112 50 79 91 c 128,-1,86
 46 132 46 132 42 194 c 2,87,-1
 41 219 l 1,0,-1
EndSplineSet
EndChar

StartChar: u0BEC
Encoding: 3052 3052 13
Width: 490
GlyphClass: 2
Flags: W
LayerCount: 2
Fore
SplineSet
353 13 m 1,0,1
 349 1 349 1 335 1 c 0,2,3
 329 1 329 1 323 8 c 128,-1,4
 317 15 317 15 317 27 c 2,5,-1
 317 155 l 1,6,-1
 265 155 l 1,7,-1
 265 81 l 2,8,9
 265 76 265 76 266 74.5 c 128,-1,10
 267 73 267 73 265 71 c 0,11,12
 261 45 261 45 242 28.5 c 128,-1,13
 223 12 223 12 196.5 5.5 c 128,-1,14
 170 -1 170 -1 140.5 2 c 128,-1,15
 111 5 111 5 85.5 18.5 c 128,-1,16
 60 32 60 32 43.5 55.5 c 128,-1,17
 27 79 27 79 27 113 c 0,18,19
 27 119 27 119 31 124 c 0,20,21
 36 144 36 144 60.5 166 c 128,-1,22
 85 188 85 188 119 200 c 1,23,-1
 119 282 l 2,24,25
 119 296 119 296 134 301 c 0,26,27
 136 303 136 303 141 303 c 0,28,29
 157 303 157 303 177.5 302.5 c 128,-1,30
 198 302 198 302 217 302 c 2,31,-1
 254 302 l 2,32,33
 262 302 262 302 269 302 c 0,34,35
 277 302 277 302 283 303 c 2,36,-1
 295 303 l 1,37,38
 313 297 313 297 318 289 c 128,-1,39
 323 281 323 281 319.5 273 c 128,-1,40
 316 265 316 265 308 260 c 128,-1,41
 300 255 300 255 293 255 c 2,42,-1
 265 255 l 1,43,-1
 265 208 l 1,44,-1
 444 208 l 2,45,46
 453 208 453 208 458 199.5 c 128,-1,47
 463 191 463 191 463 181 c 256,48,49
 463 171 463 171 458.5 163 c 128,-1,50
 454 155 454 155 444 155 c 2,51,-1
 441 155 l 1,52,53
 441 122 441 122 440.5 85 c 128,-1,54
 440 48 440 48 441 18 c 0,55,56
 441 13 441 13 435 6.5 c 128,-1,57
 429 0 429 0 427 0 c 256,58,59
 425 0 425 0 414.5 3.5 c 128,-1,60
 404 7 404 7 404 25 c 2,61,-1
 404 155 l 1,62,-1
 353 154 l 1,63,-1
 353 13 l 1,0,1
205 70 m 1,64,-1
 207 70 l 1,65,66
 204 74 204 74 204 81 c 2,67,-1
 204 153 l 1,68,69
 179 159 179 159 157 159 c 128,-1,70
 135 159 135 159 118 153.5 c 128,-1,71
 101 148 101 148 89.5 139 c 128,-1,72
 78 130 78 130 74 120 c 0,73,74
 74 118 74 118 74.5 116.5 c 128,-1,75
 75 115 75 115 75 113 c 0,76,77
 75 97 75 97 84.5 85 c 128,-1,78
 94 73 94 73 108.5 64.5 c 128,-1,79
 123 56 123 56 139.5 52 c 128,-1,80
 156 48 156 48 170 48.5 c 128,-1,81
 184 49 184 49 193.5 53 c 128,-1,82
 203 57 203 57 203 67 c 1,83,-1
 205 70 l 1,64,-1
157 207 m 1,84,85
 169 207 169 207 176 207 c 256,86,87
 183 207 183 207 188 207 c 256,88,89
 193 207 193 207 196.5 206.5 c 128,-1,90
 200 206 200 206 204 206 c 1,91,-1
 204 255 l 1,92,-1
 158 255 l 1,93,-1
 157 207 l 1,84,85
EndSplineSet
EndChar

StartChar: u0BED
Encoding: 3053 3053 14
Width: 490
GlyphClass: 2
Flags: W
LayerCount: 2
Fore
SplineSet
115 189 m 2,0,-1
 111 183 l 1,1,-1
 115 182 l 1,2,3
 103 173 103 173 96 153 c 1,4,5
 149 151 149 151 175.5 127 c 128,-1,6
 202 103 202 103 204 75 c 0,7,8
 204 73 204 73 204 70 c 0,9,10
 204 45 204 45 186 24 c 0,11,12
 165 1 165 1 125 1 c 1,13,-1
 125 46 l 1,14,15
 142 46 142 46 150.5 57.5 c 128,-1,16
 159 69 159 69 156 82.5 c 128,-1,17
 153 96 153 96 137 108 c 128,-1,18
 121 120 121 120 90 122 c 1,19,20
 89 114 89 114 89 106 c 0,21,22
 89 87 89 87 94 71 c 0,23,24
 101 48 101 48 123 48 c 1,25,-1
 124 1 l 1,26,27
 88 1 88 1 68.5 23 c 128,-1,28
 49 45 49 45 42 75 c 0,29,30
 38 94 38 94 38 114 c 0,31,32
 38 125 38 125 39 137 c 0,33,34
 43 169 43 169 54 189 c 1,35,-1
 53 190 l 1,36,37
 75 231 75 231 115.5 255 c 128,-1,38
 156 279 156 279 208 290 c 128,-1,39
 260 301 260 301 319.5 304 c 128,-1,40
 379 307 379 307 437 307 c 0,41,42
 448 307 448 307 454 300 c 128,-1,43
 460 293 460 293 460 284 c 256,44,45
 460 275 460 275 455 267.5 c 128,-1,46
 450 260 450 260 438 260 c 2,47,-1
 423 260 l 1,48,-1
 423 23 l 2,49,50
 424 14 424 14 413.5 9 c 128,-1,51
 403 4 403 4 391 4 c 256,52,53
 379 4 379 4 368 8.5 c 128,-1,54
 357 13 357 13 357 23 c 0,55,56
 357 46 357 46 356.5 74.5 c 128,-1,57
 356 103 356 103 356 135 c 2,58,-1
 356 200 l 1,59,-1
 356 260 l 1,60,61
 314 260 314 260 277 258 c 128,-1,62
 240 256 240 256 209 249.5 c 128,-1,63
 178 243 178 243 154 228.5 c 128,-1,64
 130 214 130 214 115 189 c 2,0,-1
EndSplineSet
EndChar

StartChar: u0BEE
Encoding: 3054 3054 15
Width: 490
GlyphClass: 2
Flags: W
LayerCount: 2
Fore
SplineSet
412 285 m 2,0,1
 412 307 412 307 434 306 c 0,2,3
 446 306 446 306 455.5 300.5 c 128,-1,4
 465 295 465 295 465 284 c 2,5,-1
 465 26 l 2,6,7
 465 14 465 14 455.5 8 c 128,-1,8
 446 2 446 2 434 2 c 0,9,10
 411 2 411 2 412 25 c 2,11,-1
 412 203 l 1,12,13
 388 195 388 195 364 186 c 128,-1,14
 340 177 340 177 322 171 c 0,15,16
 322 167 322 167 323 163.5 c 128,-1,17
 324 160 324 160 324 156 c 0,18,19
 323 123 323 123 305.5 93 c 128,-1,20
 288 63 288 63 260.5 41.5 c 128,-1,21
 233 20 233 20 200 9 c 128,-1,22
 167 -2 167 -2 133.5 1 c 128,-1,23
 100 4 100 4 70 24 c 128,-1,24
 40 44 40 44 19 86 c 0,25,26
 13 91 13 91 15.5 97 c 128,-1,27
 18 103 18 103 25 108 c 0,28,29
 50 123 50 123 104.5 141.5 c 128,-1,30
 159 160 159 160 232 183 c 1,31,32
 235 211 235 211 225.5 227.5 c 128,-1,33
 216 244 216 244 199.5 250 c 128,-1,34
 183 256 183 256 163 251.5 c 128,-1,35
 143 247 143 247 125 231 c 1,36,-1
 121 211 l 1,37,38
 114 198 114 198 103 193.5 c 128,-1,39
 92 189 92 189 83.5 193 c 128,-1,40
 75 197 75 197 70.5 206.5 c 128,-1,41
 66 216 66 216 72 230 c 0,42,43
 81 252 81 252 101 266 c 128,-1,44
 121 280 121 280 146.5 286.5 c 128,-1,45
 172 293 172 293 199.5 291.5 c 128,-1,46
 227 290 227 290 251 280.5 c 128,-1,47
 275 271 275 271 292 253.5 c 128,-1,48
 309 236 309 236 312 210 c 1,49,50
 332 218 332 218 354 225 c 128,-1,51
 376 232 376 232 399 241 c 1,52,53
 399 240 399 240 399.5 241.5 c 128,-1,54
 400 243 400 243 412 245 c 1,55,-1
 412 285 l 2,0,1
100 99 m 2,56,-1
 73 86 l 1,57,58
 76 66 76 66 90.5 56 c 128,-1,59
 105 46 105 46 125 45 c 128,-1,60
 145 44 145 44 166.5 50.5 c 128,-1,61
 188 57 188 57 206 70.5 c 128,-1,62
 224 84 224 84 234 102.5 c 128,-1,63
 244 121 244 121 240 143 c 1,64,65
 188 126 188 126 154 115.5 c 128,-1,66
 120 105 120 105 100 99 c 2,56,-1
EndSplineSet
EndChar

StartChar: u0BEF
Encoding: 3055 3055 16
Width: 490
GlyphClass: 2
Flags: W
LayerCount: 2
Fore
SplineSet
257 86 m 2,0,1
 257 99 257 99 261.5 118.5 c 128,-1,2
 266 138 266 138 271 150 c 1,3,4
 264 156 264 156 252 157 c 128,-1,5
 240 158 240 158 229 156 c 1,6,-1
 229 92 l 2,7,8
 229 89 229 89 227 81 c 0,9,10
 215 40 215 40 192.5 21.5 c 128,-1,11
 170 3 170 3 144 1 c 128,-1,12
 118 -1 118 -1 92 9.5 c 128,-1,13
 66 20 66 20 46.5 39.5 c 128,-1,14
 27 59 27 59 18.5 84 c 128,-1,15
 10 109 10 109 19 132 c 0,16,17
 24 149 24 149 46 167.5 c 128,-1,18
 68 186 68 186 98 197 c 1,19,-1
 99 279 l 2,20,21
 99 290 99 290 110 294 c 1,22,23
 114 303 114 303 122 303 c 2,24,-1
 229 303 l 2,25,26
 237 303 237 303 241.5 295 c 128,-1,27
 246 287 246 287 246 278 c 256,28,29
 246 269 246 269 242 260.5 c 128,-1,30
 238 252 238 252 229 252 c 1,31,-1
 229 196 l 1,32,33
 245 196 245 196 263 197 c 128,-1,34
 281 198 281 198 297 189 c 1,35,36
 320 203 320 203 352 203 c 128,-1,37
 384 203 384 203 412 189.5 c 128,-1,38
 440 176 440 176 459.5 150.5 c 128,-1,39
 479 125 479 125 478 88 c 0,40,41
 480 76 480 76 475.5 61.5 c 128,-1,42
 471 47 471 47 463 35 c 128,-1,43
 455 23 455 23 445 14 c 128,-1,44
 435 5 435 5 426 3 c 2,45,-1
 419 2 l 2,46,47
 411 1 411 1 408.5 1.5 c 128,-1,48
 406 2 406 2 405 4.5 c 128,-1,49
 404 7 404 7 404 10 c 256,50,51
 404 13 404 13 401 17 c 0,52,53
 401 18 401 18 407.5 23 c 128,-1,54
 414 28 414 28 421.5 34.5 c 128,-1,55
 429 41 429 41 435.5 49.5 c 128,-1,56
 442 58 442 58 442 70 c 2,57,-1
 444 91 l 2,58,59
 444 114 444 114 431.5 130.5 c 128,-1,60
 419 147 419 147 401 157.5 c 128,-1,61
 383 168 383 168 363 170.5 c 128,-1,62
 343 173 343 173 329 168 c 1,63,64
 348 154 348 154 360.5 137 c 128,-1,65
 373 120 373 120 374 93 c 1,66,-1
 343 91 l 1,67,68
 342 115 342 115 333.5 127.5 c 128,-1,69
 325 140 325 140 302 132 c 0,70,71
 293 130 293 130 291 114 c 128,-1,72
 289 98 289 98 289 84 c 0,73,74
 289 52 289 52 299 41.5 c 128,-1,75
 309 31 309 31 321 35 c 128,-1,76
 333 39 333 39 340.5 54.5 c 128,-1,77
 348 70 348 70 343 91 c 1,78,-1
 374 93 l 1,79,80
 374 45 374 45 357.5 23 c 128,-1,81
 341 1 341 1 320 0 c 128,-1,82
 299 -1 299 -1 280.5 15 c 128,-1,83
 262 31 262 31 259 58 c 2,84,-1
 257 86 l 2,0,1
177 79 m 1,85,-1
 178 79 l 1,86,87
 177 82 177 82 176 85 c 128,-1,88
 175 88 175 88 175 92 c 2,89,-1
 175 157 l 1,90,91
 155 156 155 156 141.5 155 c 128,-1,92
 128 154 128 154 117 152.5 c 128,-1,93
 106 151 106 151 98 148 c 128,-1,94
 90 145 90 145 81 140 c 0,95,96
 73 137 73 137 69 130.5 c 128,-1,97
 65 124 65 124 63 117 c 128,-1,98
 61 110 61 110 60 104 c 2,99,-1
 60 99 l 2,100,101
 60 75 60 75 74.5 62 c 128,-1,102
 89 49 89 49 108 46 c 128,-1,103
 127 43 127 43 146.5 48.5 c 128,-1,104
 166 54 166 54 175 69 c 1,105,-1
 177 79 l 1,85,-1
143 201 m 1,106,107
 151 203 151 203 159 204 c 128,-1,108
 167 205 167 205 175 206 c 1,109,-1
 175 252 l 1,110,-1
 143 252 l 1,111,-1
 143 201 l 1,106,107
EndSplineSet
EndChar

StartChar: u1CDA
Encoding: 7386 7386 17
Width: 0
GlyphClass: 2
Flags: W
LayerCount: 2
Fore
SplineSet
-289 516 m 2,0,1
 -289 523 -289 523 -282 527.5 c 128,-1,2
 -275 532 -275 532 -268 532 c 0,3,4
 -260 532 -260 532 -254.5 526 c 128,-1,5
 -249 520 -249 520 -249 513 c 2,6,-1
 -249 306 l 2,7,8
 -249 293 -249 293 -255 287.5 c 128,-1,9
 -261 282 -261 282 -268.5 283.5 c 128,-1,10
 -276 285 -276 285 -282.5 292 c 128,-1,11
 -289 299 -289 299 -289 312 c 2,12,-1
 -289 325 l 1,13,-1
 -289 516 l 2,0,1
-169 517 m 2,14,15
 -169 524 -169 524 -161.5 528 c 128,-1,16
 -154 532 -154 532 -146 532 c 0,17,18
 -145 532 -145 532 -141.5 531.5 c 128,-1,19
 -138 531 -138 531 -134 529 c 128,-1,20
 -130 527 -130 527 -127 522 c 128,-1,21
 -124 517 -124 517 -124 508 c 2,22,-1
 -124 306 l 2,23,24
 -124 299 -124 299 -129.5 291 c 128,-1,25
 -135 283 -135 283 -143 283 c 0,26,27
 -148 283 -148 283 -157.5 287 c 128,-1,28
 -167 291 -167 291 -167 298 c 2,29,-1
 -169 517 l 2,14,15
EndSplineSet
EndChar

StartChar: uA8F3
Encoding: 43251 43251 18
Width: 408
GlyphClass: 2
Flags: W
LayerCount: 2
Fore
SplineSet
63 359 m 1,0,1
 101 248 101 248 205 249 c 0,2,3
 257 249 257 249 290.5 280 c 128,-1,4
 324 311 324 311 341 367 c 1,5,6
 340 379 340 379 334 387 c 128,-1,7
 328 395 328 395 320 398 c 128,-1,8
 312 401 312 401 303.5 398.5 c 128,-1,9
 295 396 295 396 289 387 c 0,10,11
 283 370 283 370 274.5 352 c 128,-1,12
 266 334 266 334 256.5 319.5 c 128,-1,13
 247 305 247 305 234.5 295.5 c 128,-1,14
 222 286 222 286 209 286 c 0,15,16
 201 286 201 286 189 286.5 c 128,-1,17
 177 287 177 287 165 295.5 c 128,-1,18
 153 304 153 304 141.5 325 c 128,-1,19
 130 346 130 346 122 387 c 1,20,21
 90 410 90 410 72.5 403.5 c 128,-1,22
 55 397 55 397 60 364 c 1,23,-1
 63 359 l 1,0,1
152 120 m 2,24,25
 159 123 159 123 171.5 124 c 128,-1,26
 184 125 184 125 198.5 122.5 c 128,-1,27
 213 120 213 120 227 114 c 128,-1,28
 241 108 241 108 252 96 c 128,-1,29
 263 84 263 84 277 64.5 c 128,-1,30
 291 45 291 45 302.5 21.5 c 128,-1,31
 314 -2 314 -2 322.5 -27.5 c 128,-1,32
 331 -53 331 -53 332 -77 c 1,33,34
 342 -97 342 -97 351.5 -104 c 128,-1,35
 361 -111 361 -111 369 -108 c 128,-1,36
 377 -105 377 -105 382 -97.5 c 128,-1,37
 387 -90 387 -90 389 -83 c 0,38,39
 380 -54 380 -54 371 -24.5 c 128,-1,40
 362 5 362 5 350 33.5 c 128,-1,41
 338 62 338 62 321 90.5 c 128,-1,42
 304 119 304 119 278 145 c 0,43,44
 237 186 237 186 186 198.5 c 128,-1,45
 135 211 135 211 83 195 c 1,46,47
 53 180 53 180 51.5 166 c 128,-1,48
 50 152 50 152 62.5 142 c 128,-1,49
 75 132 75 132 93 126 c 128,-1,50
 111 120 111 120 120 120 c 2,51,-1
 152 120 l 2,24,25
EndSplineSet
EndChar

StartChar: uE000
Encoding: 57344 57344 19
Width: 735
GlyphClass: 2
Flags: W
LayerCount: 2
Fore
SplineSet
20 170 m 1,0,-1
 22 170 l 1,1,-1
 22 385 l 1,2,-1
 20 385 l 1,3,4
 20 394 20 394 29.5 398 c 128,-1,5
 39 402 39 402 50 402 c 0,6,7
 62 402 62 402 72 398 c 128,-1,8
 82 394 82 394 82 385 c 2,9,-1
 82 170 l 1,10,-1
 83 170 l 1,11,12
 83 116 83 116 104.5 86 c 128,-1,13
 126 56 126 56 151 51.5 c 128,-1,14
 176 47 176 47 195.5 68.5 c 128,-1,15
 215 90 215 90 211 140 c 1,16,-1
 211 150 l 2,17,18
 210 153 210 153 210 158 c 0,19,20
 210 161 210 161 208 167 c 1,21,-1
 211 167 l 1,22,-1
 211 385 l 2,23,24
 211 396 211 396 222.5 402 c 128,-1,25
 234 408 234 408 249 408 c 0,26,27
 266 408 266 408 278 402 c 128,-1,28
 290 396 290 396 290 385 c 2,29,-1
 290 175 l 1,30,31
 303 135 303 135 330 109.5 c 128,-1,32
 357 84 357 84 391 71 c 128,-1,33
 425 58 425 58 462 58 c 0,34,35
 500 58 500 58 534 70.5 c 128,-1,36
 568 83 568 83 595.5 108 c 128,-1,37
 623 133 623 133 637 169 c 1,38,39
 605 141 605 141 568 132.5 c 128,-1,40
 531 124 531 124 498.5 135 c 128,-1,41
 466 146 466 146 442.5 177.5 c 128,-1,42
 419 209 419 209 415 260 c 1,43,-1
 415 267 l 2,44,45
 415 315 415 315 438 348 c 128,-1,46
 461 381 461 381 495 397 c 128,-1,47
 529 413 529 413 569 411 c 128,-1,48
 609 409 609 409 643 389.5 c 128,-1,49
 677 370 677 370 699.5 331 c 128,-1,50
 722 292 722 292 721 234 c 1,51,-1
 720 234 l 1,52,53
 720 171 720 171 696.5 125.5 c 128,-1,54
 673 80 673 80 635 51.5 c 128,-1,55
 597 23 597 23 549.5 10.5 c 128,-1,56
 502 -2 502 -2 452.5 1.5 c 128,-1,57
 403 5 403 5 357 24.5 c 128,-1,58
 311 44 311 44 278 79 c 1,59,60
 263 42 263 42 237.5 23.5 c 128,-1,61
 212 5 212 5 184 2 c 128,-1,62
 156 -1 156 -1 127 9.5 c 128,-1,63
 98 20 98 20 74.5 43 c 128,-1,64
 51 66 51 66 36 98 c 128,-1,65
 21 130 21 130 20 170 c 1,0,-1
481 265 m 1,66,-1
 479 266 l 1,67,-1
 479 264 l 2,68,69
 480 231 480 231 495.5 210 c 128,-1,70
 511 189 511 189 534 181.5 c 128,-1,71
 557 174 557 174 585 180 c 128,-1,72
 613 186 613 186 640 208 c 0,73,74
 642 212 642 212 642 220 c 2,75,-1
 642 234 l 1,76,-1
 643 234 l 1,77,78
 643 292 643 292 617.5 322.5 c 128,-1,79
 592 353 592 353 561 356.5 c 128,-1,80
 530 360 530 360 504.5 337.5 c 128,-1,81
 479 315 479 315 479 267 c 1,82,-1
 481 265 l 1,66,-1
313 -210 m 1,83,-1
 313 -220 l 2,84,85
 313 -231 313 -231 304 -235.5 c 128,-1,86
 295 -240 295 -240 283 -239 c 128,-1,87
 271 -238 271 -238 262 -232.5 c 128,-1,88
 253 -227 253 -227 253 -220 c 2,89,-1
 253 -61 l 2,90,91
 253 -55 253 -55 268 -50 c 0,92,93
 273 -45 273 -45 287 -45 c 2,94,-1
 530 -45 l 2,95,96
 541 -45 541 -45 546 -49.5 c 128,-1,97
 551 -54 551 -54 551 -60 c 0,98,99
 551 -73 551 -73 530 -74 c 2,100,-1
 461 -74 l 1,101,102
 461 -88 461 -88 460.5 -103.5 c 128,-1,103
 460 -119 460 -119 460 -136 c 1,104,105
 488 -128 488 -128 518.5 -129 c 128,-1,106
 549 -130 549 -130 575 -139 c 128,-1,107
 601 -148 601 -148 618 -165.5 c 128,-1,108
 635 -183 635 -183 635 -207 c 1,109,-1
 563 -207 l 1,110,111
 563 -188 563 -188 552 -174.5 c 128,-1,112
 541 -161 541 -161 524.5 -157 c 128,-1,113
 508 -153 508 -153 490.5 -157.5 c 128,-1,114
 473 -162 473 -162 460 -177 c 1,115,-1
 460 -191 l 2,116,117
 460 -217 460 -217 448.5 -228.5 c 128,-1,118
 437 -240 437 -240 424 -239 c 128,-1,119
 411 -238 411 -238 400 -225 c 128,-1,120
 389 -212 389 -212 390 -187 c 0,121,122
 391 -151 391 -151 390.5 -124 c 128,-1,123
 390 -97 390 -97 390 -74 c 1,124,-1
 314 -74 l 1,125,-1
 314 -92 l 2,126,127
 314 -100 314 -100 313.5 -115 c 128,-1,128
 313 -130 313 -130 313 -154 c 2,129,-1
 313 -210 l 1,83,-1
461 -295 m 2,130,-1
 113 -295 l 2,131,132
 102 -295 102 -295 96 -290.5 c 128,-1,133
 90 -286 90 -286 90 -281 c 0,134,135
 90 -275 90 -275 95.5 -269.5 c 128,-1,136
 101 -264 101 -264 113 -264 c 2,137,-1
 461 -264 l 2,138,139
 494 -264 494 -264 514 -260 c 128,-1,140
 534 -256 534 -256 545 -248.5 c 128,-1,141
 556 -241 556 -241 559.5 -230.5 c 128,-1,142
 563 -220 563 -220 563 -208 c 1,143,-1
 635 -208 l 1,144,145
 635 -223 635 -223 624.5 -238.5 c 128,-1,146
 614 -254 614 -254 592.5 -266.5 c 128,-1,147
 571 -279 571 -279 538.5 -287 c 128,-1,148
 506 -295 506 -295 461 -295 c 2,130,-1
EndSplineSet
Ligature2: "'akhn' Akhand lookup 1 subtable" u11325 u1134D u11328
EndChar

StartChar: uE001
Encoding: 57345 57345 20
Width: 859
GlyphClass: 2
Flags: W
LayerCount: 2
Fore
SplineSet
510 31 m 2,0,1
 510 21 510 21 503 15.5 c 128,-1,2
 496 10 496 10 486 8 c 0,3,4
 485 7 485 7 481 7 c 2,5,-1
 259 8 l 1,6,-1
 253 8 l 1,7,8
 253 8 253 8 254 7 c 1,9,10
 254 6 254 6 254 7 c 257,11,12
 254 8 254 8 254 13 c 0,13,14
 254 19 254 19 254 33 c 0,15,16
 254 40 254 40 254 42 c 256,17,18
 254 44 254 44 256 53 c 1,19,-1
 264 56 l 1,20,21
 288 58 288 58 300.5 100.5 c 128,-1,22
 313 143 313 143 308 211 c 1,23,-1
 390 211 l 1,24,25
 390 165 390 165 367.5 125 c 128,-1,26
 345 85 345 85 317 55 c 1,27,-1
 451 55 l 1,28,-1
 451 273 l 1,29,-1
 453 273 l 1,30,31
 453 307 453 307 461 332 c 128,-1,32
 469 357 469 357 482.5 374 c 128,-1,33
 496 391 496 391 512.5 399.5 c 128,-1,34
 529 408 529 408 547 408 c 0,35,36
 564 408 564 408 582.5 398.5 c 128,-1,37
 601 389 601 389 616.5 370.5 c 128,-1,38
 632 352 632 352 642 326 c 128,-1,39
 652 300 652 300 654 266 c 2,40,-1
 654 89 l 1,41,-1
 602 91 l 1,42,-1
 602 273 l 1,43,-1
 616 273 l 1,44,-1
 602 276 l 1,45,46
 602 320 602 320 586.5 342.5 c 128,-1,47
 571 365 571 365 554 364.5 c 128,-1,48
 537 364 537 364 522.5 340.5 c 128,-1,49
 508 317 508 317 510 273 c 2,50,-1
 510 31 l 2,0,1
213 89 m 0,51,52
 213 56 213 56 198.5 35 c 128,-1,53
 184 14 184 14 163 6 c 128,-1,54
 142 -2 142 -2 118.5 4.5 c 128,-1,55
 95 11 95 11 76.5 33.5 c 128,-1,56
 58 56 58 56 48.5 96.5 c 128,-1,57
 39 137 39 137 46 198 c 0,58,59
 44 200 44 200 45 206.5 c 128,-1,60
 46 213 46 213 47 215 c 0,61,62
 55 281 55 281 84 323.5 c 128,-1,63
 113 366 113 366 151 385 c 128,-1,64
 189 404 189 404 231.5 401.5 c 128,-1,65
 274 399 274 399 310 377 c 128,-1,66
 346 355 346 355 369 313 c 128,-1,67
 392 271 392 271 392 212 c 1,68,-1
 307 212 l 1,69,70
 307 257 307 257 293.5 290 c 128,-1,71
 280 323 280 323 259 340.5 c 128,-1,72
 238 358 238 358 212.5 361 c 128,-1,73
 187 364 187 364 163.5 349.5 c 128,-1,74
 140 335 140 335 121.5 302 c 128,-1,75
 103 269 103 269 96 217 c 0,76,77
 96 215 96 215 94.5 214 c 128,-1,78
 93 213 93 213 93 211 c 2,79,-1
 93 181 l 1,80,81
 111 188 111 188 131.5 183.5 c 128,-1,82
 152 179 152 179 168.5 166.5 c 128,-1,83
 185 154 185 154 197 135 c 128,-1,84
 209 116 209 116 211 96 c 0,85,86
 211 94 211 94 212 92.5 c 128,-1,87
 213 91 213 91 213 89 c 0,51,52
714 372 m 2,88,-1
 712 373 l 2,89,90
 704 373 704 373 700 378 c 128,-1,91
 696 383 696 383 696.5 389 c 128,-1,92
 697 395 697 395 701.5 400.5 c 128,-1,93
 706 406 706 406 714 406 c 0,94,95
 738 406 738 406 764 379.5 c 128,-1,96
 790 353 790 353 805 307 c 128,-1,97
 820 261 820 261 817 199 c 128,-1,98
 814 137 814 137 779 66 c 0,99,100
 774 57 774 57 770 55 c 0,101,102
 770 53 770 53 768 45 c 0,103,104
 755 21 755 21 727.5 10.5 c 128,-1,105
 700 0 700 0 672.5 4.5 c 128,-1,106
 645 9 645 9 624 29 c 128,-1,107
 603 49 603 49 603 87 c 1,108,-1
 604 89 l 1,109,-1
 654 91 l 1,110,111
 654 67 654 67 662 57.5 c 128,-1,112
 670 48 670 48 679.5 47 c 128,-1,113
 689 46 689 46 699.5 53 c 128,-1,114
 710 60 710 60 715 73 c 0,115,116
 720 80 720 80 723 81 c 0,117,118
 757 144 757 144 762 198 c 128,-1,119
 767 252 767 252 759 290.5 c 128,-1,120
 751 329 751 329 735.5 350.5 c 128,-1,121
 720 372 720 372 714 372 c 2,88,-1
91 129 m 1,122,123
 94 85 94 85 105 66.5 c 128,-1,124
 116 48 116 48 128.5 46 c 128,-1,125
 141 44 141 44 152 55.5 c 128,-1,126
 163 67 163 67 166 83 c 0,127,128
 165 84 165 84 165 89 c 0,129,130
 165 105 165 105 160 119.5 c 128,-1,131
 155 134 155 134 146 142.5 c 128,-1,132
 137 151 137 151 126.5 153.5 c 128,-1,133
 116 156 116 156 104 150 c 1,134,-1
 91 129 l 1,122,123
307 -315 m 0,135,136
 258 -315 258 -315 236 -318 c 128,-1,137
 214 -321 214 -321 209.5 -325.5 c 128,-1,138
 205 -330 205 -330 213 -335.5 c 128,-1,139
 221 -341 221 -341 232 -348 c 0,140,141
 241 -353 241 -353 239 -359.5 c 128,-1,142
 237 -366 237 -366 227.5 -371 c 128,-1,143
 218 -376 218 -376 205.5 -378 c 128,-1,144
 193 -380 193 -380 183 -375 c 128,-1,145
 173 -370 173 -370 163.5 -361.5 c 128,-1,146
 154 -353 154 -353 150 -344 c 128,-1,147
 146 -335 146 -335 150.5 -325.5 c 128,-1,148
 155 -316 155 -316 171.5 -308.5 c 128,-1,149
 188 -301 188 -301 221.5 -296.5 c 128,-1,150
 255 -292 255 -292 308 -291 c 0,151,152
 348 -290 348 -290 391 -290.5 c 128,-1,153
 434 -291 434 -291 475 -291 c 0,154,155
 517 -291 517 -291 554.5 -288.5 c 128,-1,156
 592 -286 592 -286 620.5 -278.5 c 128,-1,157
 649 -271 649 -271 666 -258 c 128,-1,158
 683 -245 683 -245 683 -222 c 2,159,-1
 683 -215 l 2,160,161
 684 -205 684 -205 676.5 -193.5 c 128,-1,162
 669 -182 669 -182 653.5 -172.5 c 128,-1,163
 638 -163 638 -163 616.5 -157.5 c 128,-1,164
 595 -152 595 -152 567 -152 c 1,165,166
 569 -168 569 -168 570.5 -188 c 128,-1,167
 572 -208 572 -208 563 -226 c 128,-1,168
 554 -244 554 -244 529 -255.5 c 128,-1,169
 504 -267 504 -267 454 -267 c 1,170,-1
 454 -268 l 1,171,172
 368 -268 368 -268 316.5 -250.5 c 128,-1,173
 265 -233 265 -233 251.5 -209 c 128,-1,174
 238 -185 238 -185 263 -161 c 128,-1,175
 288 -137 288 -137 354 -124 c 1,176,-1
 354 -75 l 1,177,-1
 354 -74 l 1,178,-1
 354 -58 l 2,179,180
 354 -51 354 -51 367.5 -47 c 128,-1,181
 381 -43 381 -43 394 -45 c 2,182,-1
 573 -45 l 2,183,184
 590 -45 590 -45 599 -49.5 c 128,-1,185
 608 -54 608 -54 609 -60 c 128,-1,186
 610 -66 610 -66 603 -70.5 c 128,-1,187
 596 -75 596 -75 582 -75 c 2,188,-1
 566 -75 l 1,189,-1
 566 -121 l 1,190,191
 606 -119 606 -119 639 -129.5 c 128,-1,192
 672 -140 672 -140 695 -157 c 128,-1,193
 718 -174 718 -174 730.5 -194 c 128,-1,194
 743 -214 743 -214 743 -229 c 0,195,196
 737 -264 737 -264 710.5 -283 c 128,-1,197
 684 -302 684 -302 646 -310.5 c 128,-1,198
 608 -319 608 -319 561.5 -320 c 128,-1,199
 515 -321 515 -321 469 -318.5 c 128,-1,200
 423 -316 423 -316 380.5 -314 c 128,-1,201
 338 -312 338 -312 307 -315 c 0,135,136
452 -233 m 1,202,203
 472 -233 472 -233 482 -225.5 c 128,-1,204
 492 -218 492 -218 494.5 -206 c 128,-1,205
 497 -194 497 -194 495.5 -179 c 128,-1,206
 494 -164 494 -164 493 -150 c 1,207,-1
 383 -150 l 1,208,209
 334 -157 334 -157 311.5 -172 c 128,-1,210
 289 -187 289 -187 296.5 -201.5 c 128,-1,211
 304 -216 304 -216 342 -226.5 c 128,-1,212
 380 -237 380 -237 453 -234 c 1,213,-1
 452 -233 l 1,202,203
413 -75 m 1,214,-1
 413 -120 l 1,215,-1
 493 -120 l 1,216,-1
 493 -75 l 1,217,-1
 413 -75 l 1,214,-1
381 -135 m 1,218,-1
 382 -136 l 1,219,-1
 382 -135 l 1,220,-1
 381 -135 l 1,218,-1
EndSplineSet
Ligature2: "'akhn' Akhand lookup 1 subtable" u11338 u1134D u11324
EndChar

StartChar: uE002
Encoding: 57346 57346 21
Width: 859
GlyphClass: 2
Flags: W
LayerCount: 2
Fore
SplineSet
510 31 m 2,0,1
 510 21 510 21 503 15.5 c 128,-1,2
 496 10 496 10 486 8 c 0,3,4
 485 7 485 7 481 7 c 2,5,-1
 259 8 l 1,6,-1
 253 8 l 1,7,8
 253 8 253 8 254 7 c 1,9,10
 254 6 254 6 254 7 c 257,11,12
 254 8 254 8 254 13 c 0,13,14
 254 19 254 19 254 33 c 0,15,16
 254 40 254 40 254 42 c 256,17,18
 254 44 254 44 256 53 c 1,19,-1
 264 56 l 1,20,21
 288 58 288 58 300.5 100.5 c 128,-1,22
 313 143 313 143 308 211 c 1,23,-1
 390 211 l 1,24,25
 390 165 390 165 367.5 125 c 128,-1,26
 345 85 345 85 317 55 c 1,27,-1
 451 55 l 1,28,-1
 451 273 l 1,29,-1
 453 273 l 1,30,31
 453 307 453 307 461 332 c 128,-1,32
 469 357 469 357 482.5 374 c 128,-1,33
 496 391 496 391 512.5 399.5 c 128,-1,34
 529 408 529 408 547 408 c 0,35,36
 564 408 564 408 582.5 398.5 c 128,-1,37
 601 389 601 389 616.5 370.5 c 128,-1,38
 632 352 632 352 642 326 c 128,-1,39
 652 300 652 300 654 266 c 2,40,-1
 654 89 l 1,41,-1
 602 91 l 1,42,-1
 602 273 l 1,43,-1
 616 273 l 1,44,-1
 602 276 l 1,45,46
 602 320 602 320 586.5 342.5 c 128,-1,47
 571 365 571 365 554 364.5 c 128,-1,48
 537 364 537 364 522.5 340.5 c 128,-1,49
 508 317 508 317 510 273 c 2,50,-1
 510 31 l 2,0,1
213 89 m 0,51,52
 213 56 213 56 198.5 35 c 128,-1,53
 184 14 184 14 163 6 c 128,-1,54
 142 -2 142 -2 118.5 4.5 c 128,-1,55
 95 11 95 11 76.5 33.5 c 128,-1,56
 58 56 58 56 48.5 96.5 c 128,-1,57
 39 137 39 137 46 198 c 0,58,59
 44 200 44 200 45 206.5 c 128,-1,60
 46 213 46 213 47 215 c 0,61,62
 55 281 55 281 84 323.5 c 128,-1,63
 113 366 113 366 151 385 c 128,-1,64
 189 404 189 404 231.5 401.5 c 128,-1,65
 274 399 274 399 310 377 c 128,-1,66
 346 355 346 355 369 313 c 128,-1,67
 392 271 392 271 392 212 c 1,68,-1
 307 212 l 1,69,70
 307 257 307 257 293.5 290 c 128,-1,71
 280 323 280 323 259 340.5 c 128,-1,72
 238 358 238 358 212.5 361 c 128,-1,73
 187 364 187 364 163.5 349.5 c 128,-1,74
 140 335 140 335 121.5 302 c 128,-1,75
 103 269 103 269 96 217 c 0,76,77
 96 215 96 215 94.5 214 c 128,-1,78
 93 213 93 213 93 211 c 2,79,-1
 93 181 l 1,80,81
 111 188 111 188 131.5 183.5 c 128,-1,82
 152 179 152 179 168.5 166.5 c 128,-1,83
 185 154 185 154 197 135 c 128,-1,84
 209 116 209 116 211 96 c 0,85,86
 211 94 211 94 212 92.5 c 128,-1,87
 213 91 213 91 213 89 c 0,51,52
714 372 m 2,88,-1
 712 373 l 2,89,90
 704 373 704 373 700 378 c 128,-1,91
 696 383 696 383 696.5 389 c 128,-1,92
 697 395 697 395 701.5 400.5 c 128,-1,93
 706 406 706 406 714 406 c 0,94,95
 738 406 738 406 764 379.5 c 128,-1,96
 790 353 790 353 805 307 c 128,-1,97
 820 261 820 261 817 199 c 128,-1,98
 814 137 814 137 779 66 c 0,99,100
 774 57 774 57 770 55 c 0,101,102
 770 53 770 53 768 45 c 0,103,104
 755 21 755 21 727.5 10.5 c 128,-1,105
 700 0 700 0 672.5 4.5 c 128,-1,106
 645 9 645 9 624 29 c 128,-1,107
 603 49 603 49 603 87 c 1,108,-1
 604 89 l 1,109,-1
 654 91 l 1,110,111
 654 67 654 67 662 57.5 c 128,-1,112
 670 48 670 48 679.5 47 c 128,-1,113
 689 46 689 46 699.5 53 c 128,-1,114
 710 60 710 60 715 73 c 0,115,116
 720 80 720 80 723 81 c 0,117,118
 757 144 757 144 762 198 c 128,-1,119
 767 252 767 252 759 290.5 c 128,-1,120
 751 329 751 329 735.5 350.5 c 128,-1,121
 720 372 720 372 714 372 c 2,88,-1
91 129 m 1,122,123
 94 85 94 85 105 66.5 c 128,-1,124
 116 48 116 48 128.5 46 c 128,-1,125
 141 44 141 44 152 55.5 c 128,-1,126
 163 67 163 67 166 83 c 0,127,128
 165 84 165 84 165 89 c 0,129,130
 165 105 165 105 160 119.5 c 128,-1,131
 155 134 155 134 146 142.5 c 128,-1,132
 137 151 137 151 126.5 153.5 c 128,-1,133
 116 156 116 156 104 150 c 1,134,-1
 91 129 l 1,122,123
404 -301 m 1,135,-1
 404 -291 l 1,136,-1
 404 -270 l 1,137,138
 432 -270 432 -270 447.5 -256.5 c 128,-1,139
 463 -243 463 -243 469 -224.5 c 128,-1,140
 475 -206 475 -206 474.5 -188.5 c 128,-1,141
 474 -171 474 -171 471 -164 c 0,142,143
 471 -136 471 -136 455.5 -115.5 c 128,-1,144
 440 -95 440 -95 416.5 -84.5 c 128,-1,145
 393 -74 393 -74 364 -72.5 c 128,-1,146
 335 -71 335 -71 307.5 -79 c 128,-1,147
 280 -87 280 -87 258 -106.5 c 128,-1,148
 236 -126 236 -126 224 -157 c 1,149,150
 255 -149 255 -149 294.5 -157 c 128,-1,151
 334 -165 334 -165 365 -195 c 1,152,-1
 343 -205 l 1,153,-1
 367 -196 l 1,154,155
 384 -225 384 -225 376.5 -246.5 c 128,-1,156
 369 -268 369 -268 347.5 -282.5 c 128,-1,157
 326 -297 326 -297 296 -301 c 128,-1,158
 266 -305 266 -305 238 -296.5 c 128,-1,159
 210 -288 210 -288 189 -265.5 c 128,-1,160
 168 -243 168 -243 165 -203 c 1,161,-1
 163 -203 l 1,162,163
 163 -150 163 -150 191.5 -114 c 128,-1,164
 220 -78 220 -78 262.5 -59 c 128,-1,165
 305 -40 305 -40 356 -37.5 c 128,-1,166
 407 -35 407 -35 450.5 -48 c 128,-1,167
 494 -61 494 -61 524 -90 c 128,-1,168
 554 -119 554 -119 557 -163 c 1,169,-1
 556 -163 l 1,170,171
 554 -193 554 -193 542.5 -221.5 c 128,-1,172
 531 -250 531 -250 504 -270 c 1,173,-1
 651 -270 l 1,174,-1
 651 -49 l 2,175,176
 651 -41 651 -41 660.5 -37.5 c 128,-1,177
 670 -34 670 -34 681 -34 c 256,178,179
 692 -34 692 -34 702.5 -38 c 128,-1,180
 713 -42 713 -42 713 -49 c 2,181,-1
 713 -284 l 2,182,183
 713 -299 713 -299 698.5 -302 c 128,-1,184
 684 -305 684 -305 670 -301 c 1,185,-1
 612 -301 l 1,186,-1
 566 -301 l 1,187,-1
 503 -301 l 1,188,-1
 404 -301 l 1,135,-1
217 -198 m 0,189,190
 220 -229 220 -229 231.5 -246 c 128,-1,191
 243 -263 243 -263 257 -270.5 c 128,-1,192
 271 -278 271 -278 286.5 -276 c 128,-1,193
 302 -274 302 -274 313 -265.5 c 128,-1,194
 324 -257 324 -257 328 -242.5 c 128,-1,195
 332 -228 332 -228 324 -212 c 1,196,197
 306 -195 306 -195 287.5 -187 c 128,-1,198
 269 -179 269 -179 255 -178 c 128,-1,199
 241 -177 241 -177 230.5 -183 c 128,-1,200
 220 -189 220 -189 217 -198 c 0,189,190
EndSplineSet
Ligature2: "'akhn' Akhand lookup 1 subtable" u11338 u1134D u11335
EndChar

StartChar: uE003
Encoding: 57347 57347 22
Width: 613
GlyphClass: 2
Flags: W
LayerCount: 2
Fore
SplineSet
400 22 m 1,0,-1
 398 24 l 1,1,-1
 397 25 l 1,2,3
 397 25 397 25 395 27 c 0,4,5
 381 42 381 42 376 65 c 128,-1,6
 371 88 371 88 372.5 113.5 c 128,-1,7
 374 139 374 139 381.5 164.5 c 128,-1,8
 389 190 389 190 401 211 c 1,9,-1
 324 212 l 1,10,-1
 324 148 l 2,11,12
 322 80 322 80 310 47 c 128,-1,13
 298 14 298 14 281 5 c 128,-1,14
 264 -4 264 -4 244.5 5.5 c 128,-1,15
 225 15 225 15 209 36 c 1,16,17
 193 5 193 5 167 2.5 c 128,-1,18
 141 0 141 0 116.5 16.5 c 128,-1,19
 92 33 92 33 73.5 62.5 c 128,-1,20
 55 92 55 92 53.5 126.5 c 128,-1,21
 52 161 52 161 72 194.5 c 128,-1,22
 92 228 92 228 143 252 c 1,23,-1
 143 387 l 2,24,25
 143 394 143 394 148.5 398.5 c 128,-1,26
 154 403 154 403 160 406 c 1,27,-1
 161 408 l 1,28,-1
 165 408 l 2,29,30
 167 408 167 408 169 409.5 c 128,-1,31
 171 411 171 411 174 410 c 0,32,33
 213 409 213 409 250 410.5 c 128,-1,34
 287 412 287 412 313 410 c 2,35,-1
 342 410 l 2,36,37
 357 410 357 410 366 402.5 c 128,-1,38
 375 395 375 395 375.5 386 c 128,-1,39
 376 377 376 377 366.5 369.5 c 128,-1,40
 357 362 357 362 338 362 c 2,41,-1
 324 362 l 1,42,-1
 324 260 l 1,43,-1
 426 260 l 2,44,45
 428 260 428 260 434 260 c 0,46,47
 441 260 441 260 451.5 258.5 c 128,-1,48
 462 257 462 257 473.5 252.5 c 128,-1,49
 485 248 485 248 498 239 c 0,50,51
 518 222 518 222 528.5 192.5 c 128,-1,52
 539 163 539 163 539.5 131 c 128,-1,53
 540 99 540 99 530.5 69 c 128,-1,54
 521 39 521 39 503 20.5 c 128,-1,55
 485 2 485 2 459.5 0 c 128,-1,56
 434 -2 434 -2 400 22 c 1,0,-1
263 158 m 1,57,-1
 262 143 l 1,58,-1
 262 145 l 1,59,-1
 262 212 l 1,60,-1
 168 212 l 1,61,62
 127 194 127 194 112.5 169 c 128,-1,63
 98 144 98 144 100 120.5 c 128,-1,64
 102 97 102 97 116 79.5 c 128,-1,65
 130 62 130 62 145 58 c 128,-1,66
 160 54 160 54 172 68 c 128,-1,67
 184 82 184 82 183 122 c 0,68,69
 182 125 182 125 182 132 c 0,70,71
 182 140 182 140 183 143 c 0,72,73
 184 153 184 153 189.5 156.5 c 128,-1,74
 195 160 195 160 199.5 159.5 c 128,-1,75
 204 159 204 159 207.5 155 c 128,-1,76
 211 151 211 151 210 145 c 2,77,78
 210 145 210 145 210 143 c 1,79,80
 210 144 210 144 210.5 142.5 c 128,-1,81
 211 141 211 141 212 135.5 c 128,-1,82
 213 130 213 130 213 116 c 0,83,84
 218 88 218 88 227 73 c 128,-1,85
 236 58 236 58 244 58.5 c 128,-1,86
 252 59 252 59 257 77 c 128,-1,87
 262 95 262 95 261 134 c 0,88,89
 260 135 260 135 261 137.5 c 128,-1,90
 262 140 262 140 262 142 c 0,91,92
 262 149 262 149 263 151 c 2,93,-1
 263 158 l 1,57,-1
412 98 m 1,94,-1
 416 76 l 1,95,96
 431 40 431 40 451 43 c 0,97,98
 474 47 474 47 487.5 67.5 c 128,-1,99
 501 88 501 88 504 114 c 128,-1,100
 507 140 507 140 499.5 166.5 c 128,-1,101
 492 193 492 193 473 207 c 1,102,-1
 454 210 l 1,103,104
 427 191 427 191 420 167 c 128,-1,105
 413 143 413 143 410 122 c 1,106,-1
 412 98 l 1,94,-1
191 362 m 1,107,108
 192 351 192 351 193 339 c 0,109,110
 193 328 193 328 193 313 c 2,111,-1
 193 260 l 1,112,-1
 262 260 l 1,113,-1
 262 362 l 1,114,-1
 191 362 l 1,107,108
169 -282 m 0,115,116
 126 -282 126 -282 106.5 -284.5 c 128,-1,117
 87 -287 87 -287 83 -291 c 128,-1,118
 79 -295 79 -295 86 -300.5 c 128,-1,119
 93 -306 93 -306 102 -312 c 0,120,121
 110 -317 110 -317 107.5 -323 c 128,-1,122
 105 -329 105 -329 97.5 -333.5 c 128,-1,123
 90 -338 90 -338 79 -339.5 c 128,-1,124
 68 -341 68 -341 59 -337 c 0,125,126
 45 -330 45 -330 34.5 -317 c 128,-1,127
 24 -304 24 -304 30 -292 c 128,-1,128
 36 -280 36 -280 67.5 -270 c 128,-1,129
 99 -260 99 -260 170 -259 c 1,130,-1
 170 -258 l 1,131,132
 222 -257 222 -257 280.5 -258.5 c 128,-1,133
 339 -260 339 -260 388 -256.5 c 128,-1,134
 437 -253 437 -253 470 -239.5 c 128,-1,135
 503 -226 503 -226 503 -195 c 2,136,-1
 503 -189 l 2,137,138
 504 -180 504 -180 497 -169.5 c 128,-1,139
 490 -159 490 -159 477 -150 c 128,-1,140
 464 -141 464 -141 444.5 -135.5 c 128,-1,141
 425 -130 425 -130 400 -130 c 1,142,143
 401 -145 401 -145 402.5 -163.5 c 128,-1,144
 404 -182 404 -182 396 -198.5 c 128,-1,145
 388 -215 388 -215 366 -226.5 c 128,-1,146
 344 -238 344 -238 299 -238 c 1,147,-1
 299 -239 l 1,148,149
 222 -239 222 -239 176.5 -222.5 c 128,-1,150
 131 -206 131 -206 119.5 -183.5 c 128,-1,151
 108 -161 108 -161 130.5 -138.5 c 128,-1,152
 153 -116 153 -116 211 -103 c 1,153,-1
 211 -58 l 1,154,-1
 211 -57 l 1,155,-1
 211 -42 l 2,156,157
 211 -36 211 -36 224 -32.5 c 128,-1,158
 237 -29 237 -29 248 -31 c 2,159,-1
 406 -31 l 2,160,161
 421 -31 421 -31 429 -35 c 128,-1,162
 437 -39 437 -39 438 -44.5 c 128,-1,163
 439 -50 439 -50 432.5 -54 c 128,-1,164
 426 -58 426 -58 413 -58 c 2,165,-1
 399 -58 l 1,166,-1
 399 -101 l 1,167,168
 434 -100 434 -100 463.5 -110 c 128,-1,169
 493 -120 493 -120 514 -136 c 128,-1,170
 535 -152 535 -152 546 -169.5 c 128,-1,171
 557 -187 557 -187 557 -203 c 0,172,173
 551 -235 551 -235 528 -252.5 c 128,-1,174
 505 -270 505 -270 471 -278.5 c 128,-1,175
 437 -287 437 -287 395.5 -287.5 c 128,-1,176
 354 -288 354 -288 313 -286 c 128,-1,177
 272 -284 272 -284 234.5 -282 c 128,-1,178
 197 -280 197 -280 169 -282 c 0,115,116
297 -207 m 1,179,180
 315 -207 315 -207 324 -200 c 128,-1,181
 333 -193 333 -193 335.5 -181 c 128,-1,182
 338 -169 338 -169 337 -155 c 128,-1,183
 336 -141 336 -141 335 -128 c 1,184,-1
 238 -128 l 1,185,186
 194 -135 194 -135 174 -149 c 128,-1,187
 154 -163 154 -163 160 -176.5 c 128,-1,188
 166 -190 166 -190 199.5 -199.5 c 128,-1,189
 233 -209 233 -209 298 -207 c 1,190,-1
 297 -207 l 1,179,180
263 -58 m 1,191,-1
 263 -100 l 1,192,-1
 335 -100 l 1,193,-1
 335 -58 l 1,194,-1
 263 -58 l 1,191,-1
236 -115 m 1,195,-1
 237 -117 l 1,196,-1
 237 -115 l 1,197,-1
 236 -115 l 1,195,-1
EndSplineSet
Ligature2: "'akhn' Akhand lookup 1 subtable" u11315 u1134D u11324
EndChar

StartChar: uE004
Encoding: 57348 57348 23
Width: 494
GlyphClass: 2
Flags: W
LayerCount: 2
Fore
SplineSet
305 208 m 0,0,1
 304 177 304 177 287 158 c 128,-1,2
 270 139 270 139 245 134.5 c 128,-1,3
 220 130 220 130 191 141.5 c 128,-1,4
 162 153 162 153 138 183.5 c 128,-1,5
 114 214 114 214 98 265.5 c 128,-1,6
 82 317 82 317 83 393 c 1,7,-1
 84 393 l 1,8,9
 84 401 84 401 93.5 405.5 c 128,-1,10
 103 410 103 410 115 410 c 128,-1,11
 127 410 127 410 136.5 405.5 c 128,-1,12
 146 401 146 401 146 393 c 0,13,14
 146 300 146 300 161 250.5 c 128,-1,15
 176 201 176 201 193.5 183.5 c 128,-1,16
 211 166 211 166 226 175 c 128,-1,17
 241 184 241 184 241 209 c 2,18,-1
 241 213 l 1,19,20
 251 296 251 296 272.5 340 c 128,-1,21
 294 384 294 384 320.5 399 c 128,-1,22
 347 414 347 414 374.5 405 c 128,-1,23
 402 396 402 396 424.5 375 c 128,-1,24
 447 354 447 354 460.5 325.5 c 128,-1,25
 474 297 474 297 472 272 c 1,26,-1
 391 272 l 1,27,28
 391 292 391 292 386.5 311 c 128,-1,29
 382 330 382 330 374 340.5 c 128,-1,30
 366 351 366 351 357 351.5 c 128,-1,31
 348 352 348 352 338.5 338.5 c 128,-1,32
 329 325 329 325 320 293 c 128,-1,33
 311 261 311 261 305 208 c 0,0,1
233 52 m 2,34,35
 270 52 270 52 300 70 c 128,-1,36
 330 88 330 88 350 119 c 128,-1,37
 370 150 370 150 380.5 189 c 128,-1,38
 391 228 391 228 391 271 c 1,39,-1
 472 271 l 1,40,41
 472 235 472 235 462 193 c 128,-1,42
 452 151 452 151 425.5 112 c 128,-1,43
 399 73 399 73 352.5 43 c 128,-1,44
 306 13 306 13 232 4 c 1,45,-1
 -5 4 l 2,46,47
 -17 4 -17 4 -23 11.5 c 128,-1,48
 -29 19 -29 19 -29.5 28 c 128,-1,49
 -30 37 -30 37 -24.5 44.5 c 128,-1,50
 -19 52 -19 52 -7 52 c 2,51,-1
 233 52 l 2,34,35
460 -155 m 1,52,-1
 462 -147 l 2,53,54
 469 -135 469 -135 479 -136.5 c 128,-1,55
 489 -138 489 -138 490 -150 c 0,56,57
 494 -181 494 -181 478 -210.5 c 128,-1,58
 462 -240 462 -240 430 -263 c 128,-1,59
 398 -286 398 -286 354.5 -299 c 128,-1,60
 311 -312 311 -312 262 -311 c 0,61,62
 238 -311 238 -311 204.5 -306 c 128,-1,63
 171 -301 171 -301 137.5 -287.5 c 128,-1,64
 104 -274 104 -274 79 -251 c 128,-1,65
 54 -228 54 -228 50 -194 c 1,66,-1
 50 -188 l 1,67,-1
 50 -187 l 2,68,69
 49 -135 49 -135 74 -101.5 c 128,-1,70
 99 -68 99 -68 138 -51 c 128,-1,71
 177 -34 177 -34 222.5 -32.5 c 128,-1,72
 268 -31 268 -31 307 -42 c 128,-1,73
 346 -53 346 -53 372 -76 c 128,-1,74
 398 -99 398 -99 397 -131 c 1,75,-1
 396 -130 l 1,76,77
 397 -164 397 -164 383.5 -187 c 128,-1,78
 370 -210 370 -210 350 -219 c 128,-1,79
 330 -228 330 -228 308.5 -222.5 c 128,-1,80
 287 -217 287 -217 273 -194 c 1,81,82
 260 -218 260 -218 240.5 -225 c 128,-1,83
 221 -232 221 -232 202.5 -224.5 c 128,-1,84
 184 -217 184 -217 172 -194 c 128,-1,85
 160 -171 160 -171 161 -131 c 0,86,87
 161 -128 161 -128 166.5 -126 c 128,-1,88
 172 -124 172 -124 179 -123.5 c 128,-1,89
 186 -123 186 -123 192 -125 c 128,-1,90
 198 -127 198 -127 198 -133 c 0,91,92
 198 -165 198 -165 204.5 -180.5 c 128,-1,93
 211 -196 211 -196 220 -196 c 256,94,95
 229 -196 229 -196 238 -180 c 128,-1,96
 247 -164 247 -164 252 -133 c 1,97,-1
 254 -133 l 1,98,-1
 254 -131 l 1,99,-1
 270 -133 l 1,100,-1
 293 -131 l 1,101,102
 293 -161 293 -161 303.5 -177 c 128,-1,103
 314 -193 314 -193 326.5 -194.5 c 128,-1,104
 339 -196 339 -196 347 -182.5 c 128,-1,105
 355 -169 355 -169 350 -138 c 1,106,-1
 347 -130 l 1,107,108
 346 -108 346 -108 327 -93.5 c 128,-1,109
 308 -79 308 -79 280.5 -72.5 c 128,-1,110
 253 -66 253 -66 221.5 -68.5 c 128,-1,111
 190 -71 190 -71 163.5 -84.5 c 128,-1,112
 137 -98 137 -98 120 -124 c 128,-1,113
 103 -150 103 -150 104 -189 c 1,114,115
 112 -216 112 -216 130 -233 c 128,-1,116
 148 -250 148 -250 170.5 -259.5 c 128,-1,117
 193 -269 193 -269 218 -273.5 c 128,-1,118
 243 -278 243 -278 264 -278 c 1,119,-1
 264 -280 l 1,120,121
 305 -280 305 -280 341 -268 c 128,-1,122
 377 -256 377 -256 404 -238 c 128,-1,123
 431 -220 431 -220 446 -198.5 c 128,-1,124
 461 -177 461 -177 460 -155 c 1,52,-1
254 -131 m 1,125,-1
 252 -131 l 1,126,-1
 254 -131 l 1,125,-1
250 -133 m 1,127,-1
 252 -131 l 1,128,-1
 252 -133 l 1,129,-1
 250 -133 l 1,127,-1
EndSplineSet
Ligature2: "'akhn' Akhand lookup 1 subtable" u11317 u1134D u11332
EndChar

StartChar: uE005
Encoding: 57349 57349 24
Width: 736
GlyphClass: 2
Flags: W
LayerCount: 2
Fore
SplineSet
43 4 m 1,0,-1
 44 7 l 1,1,-1
 44 43 l 1,2,-1
 46 43 l 1,3,-1
 93 43 l 2,4,5
 144 43 144 43 186.5 47 c 128,-1,6
 229 51 229 51 260.5 63.5 c 128,-1,7
 292 76 292 76 311.5 98.5 c 128,-1,8
 331 121 331 121 336 159 c 1,9,10
 335 197 335 197 312.5 225 c 128,-1,11
 290 253 290 253 258.5 266.5 c 128,-1,12
 227 280 227 280 192.5 275.5 c 128,-1,13
 158 271 158 271 132 246 c 1,14,15
 155 248 155 248 177.5 243.5 c 128,-1,16
 200 239 200 239 218.5 227.5 c 128,-1,17
 237 216 237 216 248 197.5 c 128,-1,18
 259 179 259 179 259 154 c 0,19,20
 257 109 257 109 223 85 c 128,-1,21
 189 61 189 61 147 61 c 0,22,23
 127 61 127 61 108 67 c 128,-1,24
 89 73 89 73 73.5 84 c 128,-1,25
 58 95 58 95 48.5 112.5 c 128,-1,26
 39 130 39 130 38 154 c 2,27,-1
 38 156 l 1,28,-1
 38 163 l 1,29,30
 46 219 46 219 75.5 253.5 c 128,-1,31
 105 288 105 288 145 302.5 c 128,-1,32
 185 317 185 317 229 314 c 128,-1,33
 273 311 273 311 311 292.5 c 128,-1,34
 349 274 349 274 374.5 242 c 128,-1,35
 400 210 400 210 402 168 c 2,36,-1
 402 158 l 1,37,-1
 402 155 l 1,38,-1
 401 155 l 1,39,40
 398 115 398 115 381.5 87.5 c 128,-1,41
 365 60 365 60 333 43 c 1,42,-1
 485 43 l 1,43,-1
 485 310 l 1,44,-1
 485 311 l 2,45,46
 485 341 485 341 500.5 360.5 c 128,-1,47
 516 380 516 380 539 390 c 128,-1,48
 562 400 562 400 589.5 401 c 128,-1,49
 617 402 617 402 641 395.5 c 128,-1,50
 665 389 665 389 681.5 374.5 c 128,-1,51
 698 360 698 360 700 339 c 0,52,53
 701 339 701 339 701 334 c 1,54,-1
 700 334 l 1,55,56
 701 333 701 333 701 330 c 2,57,-1
 701 30 l 2,58,59
 701 28 701 28 700 28 c 1,60,61
 702 22 702 22 702.5 12 c 128,-1,62
 703 2 703 2 698 2 c 2,63,-1
 373 2 l 2,64,65
 290 2 290 2 208 2 c 0,66,67
 127 2 127 2 46 1 c 1,68,-1
 46 4 l 1,69,-1
 43 4 l 1,0,-1
613 40 m 1,70,71
 613 133 613 133 613.5 188.5 c 128,-1,72
 614 244 614 244 613 278 c 2,73,-1
 613 306 l 2,74,75
 613 317 613 317 602 325.5 c 128,-1,76
 591 334 591 334 578 335 c 128,-1,77
 565 336 565 336 554 327.5 c 128,-1,78
 543 319 543 319 543 298 c 1,79,-1
 543 310 l 1,80,-1
 543 43 l 1,81,82
 560 43 560 43 577 42.5 c 128,-1,83
 594 42 594 42 614 42 c 1,84,-1
 613 40 l 1,70,71
96 156 m 1,85,-1
 95 156 l 1,86,87
 95 134 95 134 111.5 122.5 c 128,-1,88
 128 111 128 111 147.5 110.5 c 128,-1,89
 167 110 167 110 183.5 121 c 128,-1,90
 200 132 200 132 200 156 c 1,91,-1
 199 156 l 1,92,93
 199 179 199 179 183 188.5 c 128,-1,94
 167 198 167 198 147.5 197 c 128,-1,95
 128 196 128 196 112 185 c 128,-1,96
 96 174 96 174 96 156 c 1,85,-1
333 -285 m 1,97,-1
 333 -274 l 1,98,-1
 333 -258 l 1,99,100
 359 -258 359 -258 372.5 -245 c 128,-1,101
 386 -232 386 -232 391.5 -216 c 128,-1,102
 397 -200 397 -200 397 -183 c 0,103,104
 397 -168 397 -168 394 -161 c 0,105,106
 394 -136 394 -136 380 -118 c 128,-1,107
 366 -100 366 -100 344 -90 c 128,-1,108
 322 -80 322 -80 295 -78.5 c 128,-1,109
 268 -77 268 -77 243 -84.5 c 128,-1,110
 218 -92 218 -92 197.5 -109 c 128,-1,111
 177 -126 177 -126 168 -154 c 1,112,113
 195 -147 195 -147 231.5 -154 c 128,-1,114
 268 -161 268 -161 296 -188 c 1,115,-1
 276 -197 l 1,116,-1
 298 -189 l 1,117,118
 313 -215 313 -215 306.5 -235.5 c 128,-1,119
 300 -256 300 -256 280 -268.5 c 128,-1,120
 260 -281 260 -281 232.5 -285 c 128,-1,121
 205 -289 205 -289 179.5 -280.5 c 128,-1,122
 154 -272 154 -272 134.5 -251.5 c 128,-1,123
 115 -231 115 -231 113 -196 c 1,124,-1
 111 -196 l 1,125,126
 111 -148 111 -148 137 -115 c 128,-1,127
 163 -82 163 -82 202.5 -65 c 128,-1,128
 242 -48 242 -48 288 -46 c 128,-1,129
 334 -44 334 -44 374.5 -56 c 128,-1,130
 415 -68 415 -68 442.5 -94.5 c 128,-1,131
 470 -121 470 -121 473 -160 c 1,132,133
 471 -187 471 -187 460.5 -213.5 c 128,-1,134
 450 -240 450 -240 424 -258 c 1,135,-1
 559 -258 l 1,136,-1
 559 -57 l 2,137,138
 559 -50 559 -50 568 -47 c 128,-1,139
 577 -44 577 -44 588 -44 c 0,140,141
 598 -44 598 -44 607 -47 c 128,-1,142
 616 -50 616 -50 616 -57 c 2,143,-1
 616 -269 l 2,144,145
 616 -283 616 -283 603.5 -286.5 c 128,-1,146
 591 -290 591 -290 577 -285 c 1,147,-1
 525 -285 l 1,148,-1
 481 -285 l 1,149,-1
 423 -285 l 1,150,-1
 333 -285 l 1,97,-1
161 -189 m 0,151,152
 165 -232 165 -232 185 -248 c 128,-1,153
 205 -264 205 -264 225.5 -262 c 128,-1,154
 246 -260 246 -260 258 -243.5 c 128,-1,155
 270 -227 270 -227 259 -204 c 1,156,157
 242 -189 242 -189 225.5 -182 c 128,-1,158
 209 -175 209 -175 195.5 -174.5 c 128,-1,159
 182 -174 182 -174 173 -178 c 128,-1,160
 164 -182 164 -182 161 -189 c 0,151,152
EndSplineSet
Ligature2: "'akhn' Akhand lookup 1 subtable" u1131B u1134D u11335
EndChar

StartChar: uE006
Encoding: 57350 57350 25
Width: 836
GlyphClass: 2
Flags: W
LayerCount: 2
Fore
SplineSet
281 10 m 1,0,-1
 273 31 l 1,1,2
 277 44 277 44 282.5 47 c 128,-1,3
 288 50 288 50 289 50 c 1,4,5
 284 50 284 50 295.5 59 c 128,-1,6
 307 68 307 68 322 85.5 c 128,-1,7
 337 103 337 103 350 130.5 c 128,-1,8
 363 158 363 158 360 195 c 2,9,-1
 359 208 l 2,10,11
 354 276 354 276 320.5 312 c 128,-1,12
 287 348 287 348 244.5 350 c 128,-1,13
 202 352 202 352 159.5 320 c 128,-1,14
 117 288 117 288 93 219 c 1,15,16
 108 225 108 225 125.5 225.5 c 128,-1,17
 143 226 143 226 161 220 c 128,-1,18
 179 214 179 214 194.5 199.5 c 128,-1,19
 210 185 210 185 223 162 c 1,20,-1
 221 160 l 1,21,-1
 223 160 l 1,22,23
 240 120 240 120 233 87.5 c 128,-1,24
 226 55 226 55 205 34 c 128,-1,25
 184 13 184 13 154 6.5 c 128,-1,26
 124 0 124 0 96.5 13 c 128,-1,27
 69 26 69 26 49 59.5 c 128,-1,28
 29 93 29 93 27 154 c 2,29,-1
 27 161 l 1,30,-1
 27 167 l 2,31,32
 27 245 27 245 57 296.5 c 128,-1,33
 87 348 87 348 133.5 374.5 c 128,-1,34
 180 401 180 401 233.5 403.5 c 128,-1,35
 287 406 287 406 334 385 c 128,-1,36
 381 364 381 364 414.5 319 c 128,-1,37
 448 274 448 274 453 209 c 1,38,-1
 450 209 l 1,39,40
 449 160 449 160 431 118 c 128,-1,41
 413 76 413 76 381 48 c 1,42,-1
 718 48 l 1,43,-1
 718 388 l 2,44,45
 718 398 718 398 730.5 404 c 128,-1,46
 743 410 743 410 758 410 c 256,47,48
 773 410 773 410 785.5 404 c 128,-1,49
 798 398 798 398 798 388 c 2,50,-1
 798 32 l 2,51,52
 797 16 797 16 782 10 c 128,-1,53
 767 4 767 4 751 6 c 2,54,-1
 637 6 l 1,55,-1
 539 6 l 2,56,57
 489 6 489 6 428.5 5.5 c 128,-1,58
 368 5 368 5 282 4 c 1,59,-1
 284 10 l 1,60,-1
 281 10 l 1,0,-1
81 154 m 0,61,62
 84 115 84 115 95.5 92 c 128,-1,63
 107 69 107 69 121.5 58.5 c 128,-1,64
 136 48 136 48 150 50 c 128,-1,65
 164 52 164 52 175 63.5 c 128,-1,66
 186 75 186 75 189.5 94 c 128,-1,67
 193 113 193 113 185 137 c 1,68,-1
 184 136 l 1,69,70
 167 163 167 163 149.5 174 c 128,-1,71
 132 185 132 185 117 185 c 0,72,73
 103 185 103 185 93 176 c 128,-1,74
 83 167 83 167 81 154 c 0,61,62
581 -155 m 1,75,-1
 583 -147 l 2,76,77
 586 -134 586 -134 600 -136 c 0,78,79
 610 -138 610 -138 611 -150 c 0,80,81
 615 -181 615 -181 599 -210.5 c 128,-1,82
 583 -240 583 -240 551 -263 c 128,-1,83
 519 -286 519 -286 475.5 -299 c 128,-1,84
 432 -312 432 -312 383 -311 c 0,85,86
 359 -311 359 -311 325.5 -306 c 128,-1,87
 292 -301 292 -301 258.5 -287.5 c 128,-1,88
 225 -274 225 -274 200 -251 c 128,-1,89
 175 -228 175 -228 171 -194 c 1,90,-1
 171 -188 l 1,91,-1
 171 -187 l 2,92,93
 171 -134 171 -134 195 -102 c 0,94,95
 220 -68 220 -68 259 -51 c 128,-1,96
 298 -34 298 -34 343.5 -32.5 c 128,-1,97
 389 -31 389 -31 428 -42 c 128,-1,98
 467 -53 467 -53 493 -76 c 128,-1,99
 519 -99 519 -99 518 -131 c 1,100,-1
 517 -130 l 1,101,102
 518 -164 518 -164 504.5 -187 c 128,-1,103
 491 -210 491 -210 471 -219 c 128,-1,104
 451 -228 451 -228 429.5 -222.5 c 128,-1,105
 408 -217 408 -217 394 -194 c 1,106,107
 381 -218 381 -218 361.5 -225 c 128,-1,108
 342 -232 342 -232 323.5 -224.5 c 128,-1,109
 305 -217 305 -217 293 -194 c 128,-1,110
 281 -171 281 -171 282 -131 c 0,111,112
 282 -128 282 -128 287.5 -126 c 128,-1,113
 293 -124 293 -124 300 -123.5 c 128,-1,114
 307 -123 307 -123 313 -125 c 128,-1,115
 319 -127 319 -127 319 -133 c 0,116,117
 319 -165 319 -165 325.5 -180.5 c 128,-1,118
 332 -196 332 -196 341 -196 c 256,119,120
 350 -196 350 -196 359 -180 c 128,-1,121
 368 -164 368 -164 373 -133 c 1,122,-1
 375 -133 l 1,123,-1
 375 -131 l 1,124,-1
 391 -133 l 1,125,-1
 414 -131 l 1,126,127
 414 -161 414 -161 424.5 -177 c 128,-1,128
 435 -193 435 -193 447.5 -194.5 c 128,-1,129
 460 -196 460 -196 468 -182.5 c 128,-1,130
 476 -169 476 -169 471 -138 c 1,131,-1
 468 -130 l 1,132,133
 467 -108 467 -108 448 -93.5 c 128,-1,134
 429 -79 429 -79 401.5 -72.5 c 128,-1,135
 374 -66 374 -66 342.5 -68.5 c 128,-1,136
 311 -71 311 -71 284.5 -84.5 c 128,-1,137
 258 -98 258 -98 241 -124 c 128,-1,138
 224 -150 224 -150 225 -189 c 1,139,140
 233 -216 233 -216 251 -233 c 128,-1,141
 269 -250 269 -250 291.5 -259.5 c 128,-1,142
 314 -269 314 -269 339 -273.5 c 128,-1,143
 364 -278 364 -278 385 -278 c 1,144,-1
 385 -280 l 1,145,146
 426 -280 426 -280 462 -268 c 128,-1,147
 498 -256 498 -256 525 -238 c 128,-1,148
 552 -220 552 -220 567 -198.5 c 128,-1,149
 582 -177 582 -177 581 -155 c 1,75,-1
375 -131 m 1,150,-1
 373 -131 l 1,151,-1
 375 -131 l 1,150,-1
371 -133 m 1,152,-1
 373 -131 l 1,153,-1
 373 -133 l 1,154,-1
 371 -133 l 1,152,-1
EndSplineSet
Ligature2: "'akhn' Akhand lookup 1 subtable" u1132A u1134D u11332
EndChar

StartChar: uE007
Encoding: 57351 57351 26
Width: 859
GlyphClass: 2
Flags: W
LayerCount: 2
Fore
SplineSet
510 31 m 2,0,1
 510 21 510 21 503 15.5 c 128,-1,2
 496 10 496 10 486 8 c 0,3,4
 485 7 485 7 481 7 c 2,5,-1
 259 8 l 1,6,-1
 253 8 l 1,7,8
 253 8 253 8 254 7 c 1,9,10
 254 6 254 6 254 7 c 257,11,12
 254 8 254 8 254 13 c 0,13,14
 254 19 254 19 254 33 c 0,15,16
 254 40 254 40 254 42 c 256,17,18
 254 44 254 44 256 53 c 1,19,-1
 264 56 l 1,20,21
 288 58 288 58 300.5 100.5 c 128,-1,22
 313 143 313 143 308 211 c 1,23,-1
 390 211 l 1,24,25
 390 165 390 165 367.5 125 c 128,-1,26
 345 85 345 85 317 55 c 1,27,-1
 451 55 l 1,28,-1
 451 273 l 1,29,-1
 453 273 l 1,30,31
 453 307 453 307 461 332 c 128,-1,32
 469 357 469 357 482.5 374 c 128,-1,33
 496 391 496 391 512.5 399.5 c 128,-1,34
 529 408 529 408 547 408 c 0,35,36
 564 408 564 408 582.5 398.5 c 128,-1,37
 601 389 601 389 616.5 370.5 c 128,-1,38
 632 352 632 352 642 326 c 128,-1,39
 652 300 652 300 654 266 c 2,40,-1
 654 89 l 1,41,-1
 602 91 l 1,42,-1
 602 273 l 1,43,-1
 616 273 l 1,44,-1
 602 276 l 1,45,46
 602 320 602 320 586.5 342.5 c 128,-1,47
 571 365 571 365 554 364.5 c 128,-1,48
 537 364 537 364 522.5 340.5 c 128,-1,49
 508 317 508 317 510 273 c 2,50,-1
 510 31 l 2,0,1
213 89 m 0,51,52
 213 56 213 56 198.5 35 c 128,-1,53
 184 14 184 14 163 6 c 128,-1,54
 142 -2 142 -2 118.5 4.5 c 128,-1,55
 95 11 95 11 76.5 33.5 c 128,-1,56
 58 56 58 56 48.5 96.5 c 128,-1,57
 39 137 39 137 46 198 c 0,58,59
 44 200 44 200 45 206.5 c 128,-1,60
 46 213 46 213 47 215 c 0,61,62
 55 281 55 281 84 323.5 c 128,-1,63
 113 366 113 366 151 385 c 128,-1,64
 189 404 189 404 231.5 401.5 c 128,-1,65
 274 399 274 399 310 377 c 128,-1,66
 346 355 346 355 369 313 c 128,-1,67
 392 271 392 271 392 212 c 1,68,-1
 307 212 l 1,69,70
 307 257 307 257 293.5 290 c 128,-1,71
 280 323 280 323 259 340.5 c 128,-1,72
 238 358 238 358 212.5 361 c 128,-1,73
 187 364 187 364 163.5 349.5 c 128,-1,74
 140 335 140 335 121.5 302 c 128,-1,75
 103 269 103 269 96 217 c 0,76,77
 96 215 96 215 94.5 214 c 128,-1,78
 93 213 93 213 93 211 c 2,79,-1
 93 181 l 1,80,81
 111 188 111 188 131.5 183.5 c 128,-1,82
 152 179 152 179 168.5 166.5 c 128,-1,83
 185 154 185 154 197 135 c 128,-1,84
 209 116 209 116 211 96 c 0,85,86
 211 94 211 94 212 92.5 c 128,-1,87
 213 91 213 91 213 89 c 0,51,52
714 372 m 2,88,-1
 712 373 l 2,89,90
 704 373 704 373 700 378 c 128,-1,91
 696 383 696 383 696.5 389 c 128,-1,92
 697 395 697 395 701.5 400.5 c 128,-1,93
 706 406 706 406 714 406 c 0,94,95
 738 406 738 406 764 379.5 c 128,-1,96
 790 353 790 353 805 307 c 128,-1,97
 820 261 820 261 817 199 c 128,-1,98
 814 137 814 137 779 66 c 0,99,100
 774 57 774 57 770 55 c 0,101,102
 770 53 770 53 768 45 c 0,103,104
 755 21 755 21 727.5 10.5 c 128,-1,105
 700 0 700 0 672.5 4.5 c 128,-1,106
 645 9 645 9 624 29 c 128,-1,107
 603 49 603 49 603 87 c 1,108,-1
 604 89 l 1,109,-1
 654 91 l 1,110,111
 654 67 654 67 662 57.5 c 128,-1,112
 670 48 670 48 679.5 47 c 128,-1,113
 689 46 689 46 699.5 53 c 128,-1,114
 710 60 710 60 715 73 c 0,115,116
 720 80 720 80 723 81 c 0,117,118
 757 144 757 144 762 198 c 128,-1,119
 767 252 767 252 759 290.5 c 128,-1,120
 751 329 751 329 735.5 350.5 c 128,-1,121
 720 372 720 372 714 372 c 2,88,-1
91 129 m 1,122,123
 94 85 94 85 105 66.5 c 128,-1,124
 116 48 116 48 128.5 46 c 128,-1,125
 141 44 141 44 152 55.5 c 128,-1,126
 163 67 163 67 166 83 c 0,127,128
 165 84 165 84 165 89 c 0,129,130
 165 105 165 105 160 119.5 c 128,-1,131
 155 134 155 134 146 142.5 c 128,-1,132
 137 151 137 151 126.5 153.5 c 128,-1,133
 116 156 116 156 104 150 c 1,134,-1
 91 129 l 1,122,123
403 -221 m 1,135,-1
 403 -230 l 2,136,137
 403 -242 403 -242 394 -247.5 c 128,-1,138
 385 -253 385 -253 374.5 -252 c 128,-1,139
 364 -251 364 -251 354.5 -245 c 128,-1,140
 345 -239 345 -239 345 -230 c 2,141,-1
 345 -58 l 2,142,143
 345 -51 345 -51 361 -48 c 1,144,145
 364 -42 364 -42 378 -42 c 2,146,-1
 617 -42 l 2,147,148
 627 -42 627 -42 632 -47 c 128,-1,149
 637 -52 637 -52 637 -58 c 0,150,151
 637 -63 637 -63 632.5 -68.5 c 128,-1,152
 628 -74 628 -74 617 -74 c 2,153,-1
 549 -74 l 1,154,155
 549 -90 549 -90 548.5 -106 c 128,-1,156
 548 -122 548 -122 548 -141 c 1,157,158
 575 -132 575 -132 605 -133 c 128,-1,159
 635 -134 635 -134 660.5 -144.5 c 128,-1,160
 686 -155 686 -155 703 -173 c 128,-1,161
 720 -191 720 -191 720 -217 c 1,162,-1
 649 -217 l 1,163,164
 649 -195 649 -195 638 -181 c 128,-1,165
 627 -167 627 -167 611 -162.5 c 128,-1,166
 595 -158 595 -158 577.5 -163.5 c 128,-1,167
 560 -169 560 -169 548 -186 c 1,168,-1
 548 -202 l 2,169,170
 548 -230 548 -230 536.5 -242 c 128,-1,171
 525 -254 525 -254 512.5 -253 c 128,-1,172
 500 -252 500 -252 489 -237.5 c 128,-1,173
 478 -223 478 -223 479 -197 c 0,174,175
 480 -158 480 -158 479.5 -129 c 128,-1,176
 479 -100 479 -100 479 -74 c 1,177,-1
 404 -74 l 1,178,-1
 404 -94 l 2,179,180
 404 -103 404 -103 403.5 -119 c 128,-1,181
 403 -135 403 -135 403 -160 c 2,182,-1
 403 -221 l 1,135,-1
549 -312 m 2,183,-1
 208 -312 l 2,184,185
 197 -312 197 -312 191 -307.5 c 128,-1,186
 185 -303 185 -303 185 -297 c 256,187,188
 185 -291 185 -291 191 -286 c 128,-1,189
 197 -281 197 -281 208 -281 c 2,190,-1
 549 -281 l 2,191,192
 581 -281 581 -281 600.5 -276 c 128,-1,193
 620 -271 620 -271 630.5 -262.5 c 128,-1,194
 641 -254 641 -254 645 -242.5 c 128,-1,195
 649 -231 649 -231 649 -218 c 1,196,-1
 720 -218 l 1,197,198
 720 -234 720 -234 709.5 -250.5 c 128,-1,199
 699 -267 699 -267 678 -281 c 128,-1,200
 657 -295 657 -295 625 -303.5 c 128,-1,201
 593 -312 593 -312 549 -312 c 2,183,-1
EndSplineSet
Ligature2: "'akhn' Akhand lookup 1 subtable" u11338 u1134D u11328
EndChar

StartChar: uE008
Encoding: 57352 57352 27
Width: 736
GlyphClass: 2
Flags: W
LayerCount: 2
Fore
SplineSet
41 169 m 2,0,-1
 41 381 l 2,1,2
 42 395 42 395 51.5 402.5 c 128,-1,3
 61 410 61 410 72 410 c 128,-1,4
 83 410 83 410 91.5 402.5 c 128,-1,5
 100 395 100 395 100 381 c 2,6,-1
 100 169 l 1,7,-1
 102 169 l 1,8,9
 102 118 102 118 125 89 c 128,-1,10
 148 60 148 60 174.5 55.5 c 128,-1,11
 201 51 201 51 219.5 71 c 128,-1,12
 238 91 238 91 228 139 c 1,13,-1
 225 139 l 1,14,-1
 225 156 l 2,15,16
 223 158 223 158 223 160 c 0,17,18
 223 164 223 164 222 165 c 1,19,-1
 225 165 l 1,20,-1
 225 381 l 2,21,22
 225 394 225 394 236.5 401 c 128,-1,23
 248 408 248 408 261 408 c 0,24,25
 275 408 275 408 287 401 c 128,-1,26
 299 394 299 394 299 381 c 2,27,-1
 299 177 l 1,28,29
 311 135 311 135 340 108.5 c 128,-1,30
 369 82 369 82 404.5 71 c 128,-1,31
 440 60 440 60 479.5 64.5 c 128,-1,32
 519 69 519 69 552 87.5 c 128,-1,33
 585 106 585 106 608 140 c 128,-1,34
 631 174 631 174 635 223 c 1,35,-1
 633 223 l 1,36,37
 631 228 631 228 629 248 c 128,-1,38
 627 268 627 268 614.5 291.5 c 128,-1,39
 602 315 602 315 575.5 336 c 128,-1,40
 549 357 549 357 498 366 c 1,41,-1
 474 366 l 1,42,43
 470 382 470 382 470 391 c 256,44,45
 470 400 470 400 473.5 404.5 c 128,-1,46
 477 409 477 409 483 409.5 c 128,-1,47
 489 410 489 410 498 410 c 0,48,49
 535 410 535 410 569 394.5 c 128,-1,50
 603 379 603 379 629.5 354 c 128,-1,51
 656 329 656 329 674 295.5 c 128,-1,52
 692 262 692 262 696 227 c 1,53,-1
 693 230 l 1,54,-1
 700 230 l 1,55,56
 698 169 698 169 676 125 c 128,-1,57
 654 81 654 81 619 52.5 c 128,-1,58
 584 24 584 24 539.5 11.5 c 128,-1,59
 495 -1 495 -1 449.5 2 c 128,-1,60
 404 5 404 5 361.5 24 c 128,-1,61
 319 43 319 43 289 77 c 1,62,63
 277 44 277 44 253 26.5 c 128,-1,64
 229 9 229 9 201.5 5.5 c 128,-1,65
 174 2 174 2 145 11 c 128,-1,66
 116 20 116 20 92.5 41.5 c 128,-1,67
 69 63 69 63 54.5 95 c 128,-1,68
 40 127 40 127 41 169 c 2,0,-1
343 -287 m 1,69,-1
 343 -278 l 1,70,-1
 343 -260 l 1,71,72
 371 -260 371 -260 385.5 -247 c 128,-1,73
 400 -234 400 -234 407 -218.5 c 128,-1,74
 414 -203 414 -203 414 -186 c 0,75,76
 414 -171 414 -171 411 -165 c 0,77,78
 411 -140 411 -140 395.5 -122 c 128,-1,79
 380 -104 380 -104 356.5 -94.5 c 128,-1,80
 333 -85 333 -85 304 -83.5 c 128,-1,81
 275 -82 275 -82 248 -89.5 c 128,-1,82
 221 -97 221 -97 198.5 -114 c 128,-1,83
 176 -131 176 -131 165 -159 c 1,84,85
 197 -152 197 -152 235 -159 c 128,-1,86
 273 -166 273 -166 303 -191 c 1,87,-1
 282 -201 l 1,88,-1
 305 -194 l 1,89,90
 321 -219 321 -219 314 -238.5 c 128,-1,91
 307 -258 307 -258 286 -270.5 c 128,-1,92
 265 -283 265 -283 235.5 -286.5 c 128,-1,93
 206 -290 206 -290 178.5 -282 c 128,-1,94
 151 -274 151 -274 130.5 -254 c 128,-1,95
 110 -234 110 -234 106 -200 c 1,96,-1
 104 -200 l 1,97,98
 105 -154 105 -154 133.5 -122.5 c 128,-1,99
 162 -91 162 -91 204.5 -74 c 128,-1,100
 247 -57 247 -57 296 -54.5 c 128,-1,101
 345 -52 345 -52 388 -64 c 128,-1,102
 431 -76 431 -76 460.5 -101 c 128,-1,103
 490 -126 490 -126 494 -165 c 1,104,-1
 493 -165 l 1,105,106
 491 -190 491 -190 480 -216.5 c 128,-1,107
 469 -243 469 -243 441 -260 c 1,108,-1
 587 -260 l 1,109,-1
 587 -62 l 2,110,111
 587 -56 587 -56 596 -52.5 c 128,-1,112
 605 -49 605 -49 616 -49 c 256,113,114
 627 -49 627 -49 637 -52.5 c 128,-1,115
 647 -56 647 -56 647 -63 c 2,116,-1
 647 -271 l 2,117,118
 647 -284 647 -284 634 -287 c 128,-1,119
 621 -290 621 -290 606 -287 c 2,120,-1
 549 -287 l 1,121,-1
 502 -287 l 1,122,-1
 440 -287 l 1,123,-1
 343 -287 l 1,69,-1
158 -195 m 0,124,125
 162 -236 162 -236 183.5 -251 c 128,-1,126
 205 -266 205 -266 227 -264 c 128,-1,127
 249 -262 249 -262 262 -246 c 128,-1,128
 275 -230 275 -230 264 -208 c 1,129,130
 246 -193 246 -193 227.5 -185.5 c 128,-1,131
 209 -178 209 -178 194.5 -177.5 c 128,-1,132
 180 -177 180 -177 170.5 -182 c 128,-1,133
 161 -187 161 -187 158 -195 c 0,124,125
EndSplineSet
Ligature2: "'akhn' Akhand lookup 1 subtable" u11327 u1134D u11335
EndChar

StartChar: uE009
Encoding: 57353 57353 28
Width: 859
GlyphClass: 2
Flags: W
LayerCount: 2
Fore
SplineSet
510 31 m 2,0,1
 510 21 510 21 503 15.5 c 128,-1,2
 496 10 496 10 486 8 c 0,3,4
 485 7 485 7 481 7 c 2,5,-1
 259 8 l 1,6,-1
 253 8 l 1,7,8
 253 8 253 8 254 7 c 1,9,10
 254 6 254 6 254 7 c 257,11,12
 254 8 254 8 254 13 c 0,13,14
 254 19 254 19 254 33 c 0,15,16
 254 40 254 40 254 42 c 256,17,18
 254 44 254 44 256 53 c 1,19,-1
 264 56 l 1,20,21
 288 58 288 58 300.5 100.5 c 128,-1,22
 313 143 313 143 308 211 c 1,23,-1
 390 211 l 1,24,25
 390 165 390 165 367.5 125 c 128,-1,26
 345 85 345 85 317 55 c 1,27,-1
 451 55 l 1,28,-1
 451 273 l 1,29,-1
 453 273 l 1,30,31
 453 307 453 307 461 332 c 128,-1,32
 469 357 469 357 482.5 374 c 128,-1,33
 496 391 496 391 512.5 399.5 c 128,-1,34
 529 408 529 408 547 408 c 0,35,36
 564 408 564 408 582.5 398.5 c 128,-1,37
 601 389 601 389 616.5 370.5 c 128,-1,38
 632 352 632 352 642 326 c 128,-1,39
 652 300 652 300 654 266 c 2,40,-1
 654 89 l 1,41,-1
 602 91 l 1,42,-1
 602 273 l 1,43,-1
 616 273 l 1,44,-1
 602 276 l 1,45,46
 602 320 602 320 586.5 342.5 c 128,-1,47
 571 365 571 365 554 364.5 c 128,-1,48
 537 364 537 364 522.5 340.5 c 128,-1,49
 508 317 508 317 510 273 c 2,50,-1
 510 31 l 2,0,1
213 89 m 0,51,52
 213 56 213 56 198.5 35 c 128,-1,53
 184 14 184 14 163 6 c 128,-1,54
 142 -2 142 -2 118.5 4.5 c 128,-1,55
 95 11 95 11 76.5 33.5 c 128,-1,56
 58 56 58 56 48.5 96.5 c 128,-1,57
 39 137 39 137 46 198 c 0,58,59
 44 200 44 200 45 206.5 c 128,-1,60
 46 213 46 213 47 215 c 0,61,62
 55 281 55 281 84 323.5 c 128,-1,63
 113 366 113 366 151 385 c 128,-1,64
 189 404 189 404 231.5 401.5 c 128,-1,65
 274 399 274 399 310 377 c 128,-1,66
 346 355 346 355 369 313 c 128,-1,67
 392 271 392 271 392 212 c 1,68,-1
 307 212 l 1,69,70
 307 257 307 257 293.5 290 c 128,-1,71
 280 323 280 323 259 340.5 c 128,-1,72
 238 358 238 358 212.5 361 c 128,-1,73
 187 364 187 364 163.5 349.5 c 128,-1,74
 140 335 140 335 121.5 302 c 128,-1,75
 103 269 103 269 96 217 c 0,76,77
 96 215 96 215 94.5 214 c 128,-1,78
 93 213 93 213 93 211 c 2,79,-1
 93 181 l 1,80,81
 111 188 111 188 131.5 183.5 c 128,-1,82
 152 179 152 179 168.5 166.5 c 128,-1,83
 185 154 185 154 197 135 c 128,-1,84
 209 116 209 116 211 96 c 0,85,86
 211 94 211 94 212 92.5 c 128,-1,87
 213 91 213 91 213 89 c 0,51,52
714 372 m 2,88,-1
 712 373 l 2,89,90
 704 373 704 373 700 378 c 128,-1,91
 696 383 696 383 696.5 389 c 128,-1,92
 697 395 697 395 701.5 400.5 c 128,-1,93
 706 406 706 406 714 406 c 0,94,95
 738 406 738 406 764 379.5 c 128,-1,96
 790 353 790 353 805 307 c 128,-1,97
 820 261 820 261 817 199 c 128,-1,98
 814 137 814 137 779 66 c 0,99,100
 774 57 774 57 770 55 c 0,101,102
 770 53 770 53 768 45 c 0,103,104
 755 21 755 21 727.5 10.5 c 128,-1,105
 700 0 700 0 672.5 4.5 c 128,-1,106
 645 9 645 9 624 29 c 128,-1,107
 603 49 603 49 603 87 c 1,108,-1
 604 89 l 1,109,-1
 654 91 l 1,110,111
 654 67 654 67 662 57.5 c 128,-1,112
 670 48 670 48 679.5 47 c 128,-1,113
 689 46 689 46 699.5 53 c 128,-1,114
 710 60 710 60 715 73 c 0,115,116
 720 80 720 80 723 81 c 0,117,118
 757 144 757 144 762 198 c 128,-1,119
 767 252 767 252 759 290.5 c 128,-1,120
 751 329 751 329 735.5 350.5 c 128,-1,121
 720 372 720 372 714 372 c 2,88,-1
91 129 m 1,122,123
 94 85 94 85 105 66.5 c 128,-1,124
 116 48 116 48 128.5 46 c 128,-1,125
 141 44 141 44 152 55.5 c 128,-1,126
 163 67 163 67 166 83 c 0,127,128
 165 84 165 84 165 89 c 0,129,130
 165 105 165 105 160 119.5 c 128,-1,131
 155 134 155 134 146 142.5 c 128,-1,132
 137 151 137 151 126.5 153.5 c 128,-1,133
 116 156 116 156 104 150 c 1,134,-1
 91 129 l 1,122,123
147 -186 m 1,135,-1
 147 -38 l 2,136,137
 147 -32 147 -32 155 -29 c 128,-1,138
 163 -26 163 -26 171 -26 c 0,139,140
 182 -26 182 -26 190 -29 c 128,-1,141
 198 -32 198 -32 198 -38 c 2,142,-1
 198 -186 l 1,143,-1
 199 -186 l 1,144,145
 199 -224 199 -224 216 -245.5 c 128,-1,146
 233 -267 233 -267 253.5 -270 c 128,-1,147
 274 -273 274 -273 289.5 -258 c 128,-1,148
 305 -243 305 -243 302 -208 c 2,149,-1
 302 -201 l 2,150,151
 301 -199 301 -199 301 -196 c 0,152,153
 301 -191 301 -191 300 -188 c 1,154,-1
 302 -188 l 1,155,-1
 302 -38 l 2,156,157
 302 -29 302 -29 312.5 -24.5 c 128,-1,158
 323 -20 323 -20 334 -20 c 0,159,160
 348 -20 348 -20 358 -24.5 c 128,-1,161
 368 -29 368 -29 368 -38 c 2,162,-1
 368 -184 l 1,163,164
 384 -225 384 -225 424 -245 c 128,-1,165
 464 -265 464 -265 509 -265 c 256,166,167
 554 -265 554 -265 594 -245.5 c 128,-1,168
 634 -226 634 -226 650 -187 c 1,169,170
 624 -206 624 -206 594 -212.5 c 128,-1,171
 564 -219 564 -219 537.5 -211.5 c 128,-1,172
 511 -204 511 -204 491.5 -182 c 128,-1,173
 472 -160 472 -160 468 -124 c 1,174,-1
 468 -120 l 2,175,176
 468 -86 468 -86 487 -63 c 128,-1,177
 506 -40 506 -40 534 -29 c 128,-1,178
 562 -18 562 -18 595 -19 c 128,-1,179
 628 -20 628 -20 656 -34 c 128,-1,180
 684 -48 684 -48 702.5 -74.5 c 128,-1,181
 721 -101 721 -101 720 -141 c 1,182,-1
 719 -141 l 1,183,184
 719 -185 719 -185 700 -217.5 c 128,-1,185
 681 -250 681 -250 649.5 -270 c 128,-1,186
 618 -290 618 -290 579 -298.5 c 128,-1,187
 540 -307 540 -307 500 -304.5 c 128,-1,188
 460 -302 460 -302 422.5 -288 c 128,-1,189
 385 -274 385 -274 357 -251 c 1,190,191
 340 -284 340 -284 305.5 -297 c 128,-1,192
 271 -310 271 -310 237.5 -304.5 c 128,-1,193
 204 -299 204 -299 177.5 -274.5 c 128,-1,194
 151 -250 151 -250 148 -208 c 2,195,-1
 147 -186 l 1,135,-1
523 -130 m 1,196,-1
 521 -129 l 1,197,-1
 521 -130 l 2,198,199
 522 -154 522 -154 535 -168 c 128,-1,200
 548 -182 548 -182 567 -188 c 128,-1,201
 586 -194 586 -194 608.5 -189.5 c 128,-1,202
 631 -185 631 -185 652 -170 c 0,203,204
 654 -167 654 -167 654 -161 c 2,205,-1
 654 -151 l 1,206,-1
 655 -151 l 1,207,208
 655 -111 655 -111 634 -90 c 128,-1,209
 613 -69 613 -69 588 -67 c 128,-1,210
 563 -65 563 -65 542 -80 c 128,-1,211
 521 -95 521 -95 521 -129 c 1,212,-1
 523 -130 l 1,196,-1
EndSplineSet
Ligature2: "'akhn' Akhand lookup 1 subtable" u11338 u1134D u11325
EndChar

StartChar: uE00A
Encoding: 57354 57354 29
Width: 859
GlyphClass: 2
Flags: W
LayerCount: 2
Fore
SplineSet
303 0 m 1,0,-1
 803 0 l 2,1,2
 817 0 817 0 830.5 5 c 128,-1,3
 844 10 844 10 844 19 c 2,4,-1
 846 27 l 1,5,-1
 846 379 l 2,6,7
 846 390 846 390 833.5 395 c 128,-1,8
 821 400 821 400 806 399.5 c 128,-1,9
 791 399 791 399 778.5 393.5 c 128,-1,10
 766 388 766 388 766 377 c 2,11,-1
 766 43 l 1,12,13
 742 44 742 44 723 44 c 256,14,15
 704 44 704 44 686 44 c 2,16,-1
 625 44 l 1,17,-1
 625 379 l 2,18,19
 625 390 625 390 614.5 395.5 c 128,-1,20
 604 401 604 401 592 401 c 0,21,22
 581 401 581 401 570.5 395.5 c 128,-1,23
 560 390 560 390 560 379 c 2,24,-1
 560 44 l 1,25,26
 519 44 519 44 475.5 43.5 c 128,-1,27
 432 43 432 43 377 43 c 1,28,29
 412 72 412 72 431 113 c 128,-1,30
 450 154 450 154 450 200 c 1,31,-1
 370 202 l 1,32,-1
 451 200 l 1,33,34
 449 270 449 270 417 315 c 128,-1,35
 385 360 385 360 338.5 381.5 c 128,-1,36
 292 403 292 403 237.5 399 c 128,-1,37
 183 395 183 395 136.5 366 c 128,-1,38
 90 337 90 337 59.5 281.5 c 128,-1,39
 29 226 29 226 29 144 c 1,40,-1
 31 144 l 1,41,-1
 31 142 l 2,42,43
 31 135 31 135 32 134 c 0,44,45
 36 78 36 78 57 46.5 c 128,-1,46
 78 15 78 15 106 4 c 128,-1,47
 134 -7 134 -7 164 0 c 128,-1,48
 194 7 194 7 215.5 28 c 128,-1,49
 237 49 237 49 244 82 c 128,-1,50
 251 115 251 115 234 155 c 1,51,-1
 226 151 l 1,52,-1
 234 156 l 1,53,54
 219 178 219 178 200 191.5 c 128,-1,55
 181 205 181 205 161.5 211 c 128,-1,56
 142 217 142 217 123 217 c 256,57,58
 104 217 104 217 87 211 c 1,59,60
 98 261 98 261 123 293 c 128,-1,61
 148 325 148 325 180 339.5 c 128,-1,62
 212 354 212 354 245.5 351.5 c 128,-1,63
 279 349 279 349 306.5 331 c 128,-1,64
 334 313 334 313 352 280.5 c 128,-1,65
 370 248 370 248 370 202 c 1,66,-1
 369 202 l 1,67,68
 369 173 369 173 365 145.5 c 128,-1,69
 361 118 361 118 353.5 95.5 c 128,-1,70
 346 73 346 73 333.5 58.5 c 128,-1,71
 321 44 321 44 303 43 c 1,72,-1
 302 39 l 1,73,-1
 303 0 l 1,0,-1
429 -268 m 2,74,-1
 226 -268 l 2,75,76
 217 -268 217 -268 212.5 -274 c 128,-1,77
 208 -280 208 -280 208 -286 c 0,78,79
 208 -293 208 -293 213 -298.5 c 128,-1,80
 218 -304 218 -304 228 -304 c 2,81,-1
 428 -304 l 1,82,83
 486 -298 486 -298 524.5 -279 c 128,-1,84
 563 -260 563 -260 586 -235 c 128,-1,85
 609 -210 609 -210 619 -182 c 128,-1,86
 629 -154 629 -154 630 -128 c 1,87,-1
 631 -128 l 1,88,89
 631 -124 631 -124 631 -120 c 0,90,91
 631 -117 631 -117 630 -112 c 2,92,-1
 630 -111 l 1,93,94
 626 -94 626 -94 612 -75.5 c 128,-1,95
 598 -57 598 -57 579 -45.5 c 128,-1,96
 560 -34 560 -34 538.5 -31.5 c 128,-1,97
 517 -29 517 -29 497 -41.5 c 128,-1,98
 477 -54 477 -54 460.5 -85.5 c 128,-1,99
 444 -117 444 -117 436 -172 c 1,100,-1
 436 -174 l 2,101,102
 436 -191 436 -191 424 -198 c 128,-1,103
 412 -205 412 -205 397 -192.5 c 128,-1,104
 382 -180 382 -180 369.5 -144.5 c 128,-1,105
 357 -109 357 -109 357 -42 c 0,106,107
 357 -36 357 -36 349 -33 c 128,-1,108
 341 -30 341 -30 330 -30 c 0,109,110
 321 -30 321 -30 312.5 -33 c 128,-1,111
 304 -36 304 -36 304 -42 c 1,112,-1
 303 -42 l 1,113,114
 302 -97 302 -97 315.5 -134 c 128,-1,115
 329 -171 329 -171 349.5 -193.5 c 128,-1,116
 370 -216 370 -216 394.5 -223.5 c 128,-1,117
 419 -231 419 -231 440 -228 c 128,-1,118
 461 -225 461 -225 474.5 -211.5 c 128,-1,119
 488 -198 488 -198 489 -175 c 0,120,121
 496 -122 496 -122 507.5 -98.5 c 128,-1,122
 519 -75 519 -75 530.5 -72 c 128,-1,123
 542 -69 542 -69 550.5 -82 c 128,-1,124
 559 -95 559 -95 562 -115 c 0,125,126
 561 -145 561 -145 552 -172.5 c 128,-1,127
 543 -200 543 -200 526 -221.5 c 128,-1,128
 509 -243 509 -243 484.5 -255.5 c 128,-1,129
 460 -268 460 -268 429 -268 c 2,74,-1
84 156 m 0,130,131
 87 168 87 168 97.5 174.5 c 128,-1,132
 108 181 108 181 122 179 c 128,-1,133
 136 177 136 177 154 166.5 c 128,-1,134
 172 156 172 156 190 133 c 1,135,136
 201 108 201 108 198.5 88.5 c 128,-1,137
 196 69 196 69 184.5 57 c 128,-1,138
 173 45 173 45 157 43 c 128,-1,139
 141 41 141 41 125.5 51.5 c 128,-1,140
 110 62 110 62 98 87.5 c 128,-1,141
 86 113 86 113 84 156 c 0,130,131
EndSplineSet
Ligature2: "'akhn' Akhand lookup 1 subtable" u11318 u1134D u11317
EndChar

StartChar: uE00B
Encoding: 57355 57355 30
Width: 613
GlyphClass: 2
Flags: W
LayerCount: 2
Fore
SplineSet
146 0 m 1,0,1
 97 0 97 0 75 -4 c 128,-1,2
 53 -8 53 -8 48.5 -15 c 128,-1,3
 44 -22 44 -22 52 -31 c 128,-1,4
 60 -40 60 -40 72 -50 c 0,5,6
 81 -57 81 -57 78.5 -67 c 128,-1,7
 76 -77 76 -77 66.5 -84.5 c 128,-1,8
 57 -92 57 -92 44.5 -94.5 c 128,-1,9
 32 -97 32 -97 22 -90 c 128,-1,10
 12 -83 12 -83 2.5 -70.5 c 128,-1,11
 -7 -58 -7 -58 -10.5 -44.5 c 128,-1,12
 -14 -31 -14 -31 -10 -17 c 128,-1,13
 -6 -3 -6 -3 11 8 c 128,-1,14
 28 19 28 19 61 27 c 128,-1,15
 94 35 94 35 147 36 c 1,16,-1
 147 37 l 1,17,18
 187 39 187 39 230 38 c 128,-1,19
 273 37 273 37 314 37 c 0,20,21
 356 37 356 37 393.5 40.5 c 128,-1,22
 431 44 431 44 459.5 55.5 c 128,-1,23
 488 67 488 67 505 87.5 c 128,-1,24
 522 108 522 108 522 141 c 2,25,-1
 522 152 l 2,26,27
 523 167 523 167 515.5 184.5 c 128,-1,28
 508 202 508 202 492.5 216 c 128,-1,29
 477 230 477 230 455.5 239.5 c 128,-1,30
 434 249 434 249 406 248 c 1,31,32
 408 224 408 224 410 193.5 c 128,-1,33
 412 163 412 163 402.5 136 c 128,-1,34
 393 109 393 109 368 90.5 c 128,-1,35
 343 72 343 72 293 72 c 1,36,-1
 293 71 l 1,37,38
 207 71 207 71 155.5 97.5 c 128,-1,39
 104 124 104 124 90.5 160.5 c 128,-1,40
 77 197 77 197 102 233.5 c 128,-1,41
 127 270 127 270 193 291 c 1,42,-1
 193 366 l 1,43,-1
 193 367 l 1,44,-1
 193 391 l 2,45,46
 193 401 193 401 206.5 407 c 128,-1,47
 220 413 220 413 233 411 c 2,48,-1
 413 411 l 2,49,50
 430 411 430 411 438.5 403.5 c 128,-1,51
 447 396 447 396 448 388 c 128,-1,52
 449 380 449 380 442 373 c 128,-1,53
 435 366 435 366 421 366 c 2,54,-1
 406 366 l 1,55,-1
 406 295 l 1,56,57
 446 298 446 298 478.5 281.5 c 128,-1,58
 511 265 511 265 534 239.5 c 128,-1,59
 557 214 557 214 570 184.5 c 128,-1,60
 583 155 583 155 583 130 c 0,61,62
 577 78 577 78 550 48.5 c 128,-1,63
 523 19 523 19 485 6 c 128,-1,64
 447 -7 447 -7 400.5 -8 c 128,-1,65
 354 -9 354 -9 308 -6 c 128,-1,66
 262 -3 262 -3 219.5 0.5 c 128,-1,67
 177 4 177 4 146 0 c 1,0,1
291 123 m 1,68,69
 311 123 311 123 321 135 c 128,-1,70
 331 147 331 147 333.5 165.5 c 128,-1,71
 336 184 336 184 334.5 206.5 c 128,-1,72
 333 229 333 229 332 251 c 1,73,-1
 222 251 l 1,74,75
 173 240 173 240 150.5 217.5 c 128,-1,76
 128 195 128 195 135.5 172.5 c 128,-1,77
 143 150 143 150 181 134.5 c 128,-1,78
 219 119 219 119 292 122 c 1,79,-1
 291 123 l 1,68,69
252 366 m 1,80,-1
 252 297 l 1,81,-1
 332 297 l 1,82,-1
 332 366 l 1,83,-1
 252 366 l 1,80,-1
220 273 m 1,84,-1
 221 271 l 1,85,-1
 221 273 l 1,86,-1
 220 273 l 1,84,-1
234 -248 m 1,87,-1
 236 -248 l 1,88,89
 236 -245 236 -245 239 -243 c 0,90,91
 247 -221 247 -221 277.5 -201.5 c 128,-1,92
 308 -182 308 -182 341 -164.5 c 128,-1,93
 374 -147 374 -147 399.5 -133 c 128,-1,94
 425 -119 425 -119 425 -110 c 2,95,-1
 425 -108 l 1,96,97
 417 -90 417 -90 395 -78.5 c 128,-1,98
 373 -67 373 -67 346 -62.5 c 128,-1,99
 319 -58 319 -58 292.5 -61.5 c 128,-1,100
 266 -65 266 -65 248 -74 c 1,101,102
 283 -74 283 -74 302 -87.5 c 128,-1,103
 321 -101 321 -101 324 -117.5 c 128,-1,104
 327 -134 327 -134 311 -148 c 128,-1,105
 295 -162 295 -162 260 -162 c 1,106,-1
 260 -129 l 1,107,108
 273 -129 273 -129 276 -123 c 128,-1,109
 279 -117 279 -117 276.5 -109 c 128,-1,110
 274 -101 274 -101 267 -95 c 128,-1,111
 260 -89 260 -89 253 -89 c 2,112,-1
 227 -88 l 1,113,114
 222 -94 222 -94 222 -104 c 2,115,-1
 222 -106 l 1,116,-1
 222 -104 l 1,117,-1
 221 -109 l 1,118,119
 222 -109 222 -109 222 -106 c 1,120,121
 223 -115 223 -115 234 -122 c 128,-1,122
 245 -129 245 -129 259 -129 c 1,123,-1
 259 -162 l 1,124,125
 244 -162 244 -162 229 -158 c 128,-1,126
 214 -154 214 -154 201.5 -147.5 c 128,-1,127
 189 -141 189 -141 181.5 -132.5 c 128,-1,128
 174 -124 174 -124 173 -115 c 1,129,-1
 172 -115 l 1,130,131
 174 -87 174 -87 197 -68.5 c 128,-1,132
 220 -50 220 -50 253 -40.5 c 128,-1,133
 286 -31 286 -31 323.5 -30.5 c 128,-1,134
 361 -30 361 -30 395.5 -37.5 c 128,-1,135
 430 -45 430 -45 454.5 -62 c 128,-1,136
 479 -79 479 -79 485 -104 c 0,137,138
 487 -106 487 -106 487 -109 c 0,139,140
 487 -128 487 -128 474 -141 c 128,-1,141
 461 -154 461 -154 441 -164 c 128,-1,142
 421 -174 421 -174 396.5 -181.5 c 128,-1,143
 372 -189 372 -189 350 -198.5 c 128,-1,144
 328 -208 328 -208 311 -219 c 128,-1,145
 294 -230 294 -230 289 -247 c 1,146,-1
 289 -248 l 2,147,148
 289 -267 289 -267 303.5 -276.5 c 128,-1,149
 318 -286 318 -286 336 -286 c 0,150,151
 353 -286 353 -286 368 -276.5 c 128,-1,152
 383 -267 383 -267 383 -248 c 0,153,154
 383 -242 383 -242 389 -239 c 128,-1,155
 395 -236 395 -236 401 -236 c 0,156,157
 408 -236 408 -236 414.5 -239 c 128,-1,158
 421 -242 421 -242 421 -248 c 0,159,160
 421 -275 421 -275 397 -289.5 c 128,-1,161
 373 -304 373 -304 341.5 -307 c 128,-1,162
 310 -310 310 -310 280.5 -300.5 c 128,-1,163
 251 -291 251 -291 241 -268 c 0,164,165
 239 -266 239 -266 238 -263 c 0,166,167
 237 -263 237 -263 237 -261 c 2,168,-1
 237 -260 l 1,169,-1
 236 -259 l 2,170,171
 235 -258 235 -258 234 -253 c 2,172,-1
 234 -248 l 1,87,-1
288 -263 m 1,173,-1
 288 -261 l 1,174,-1
 288 -262 l 1,175,-1
 288 -263 l 1,173,-1
EndSplineSet
Ligature2: "'akhn' Akhand lookup 1 subtable" u11324 u1134D u1132E
EndChar

StartChar: uE00C
Encoding: 57356 57356 31
Width: 736
GlyphClass: 3
Flags: W
LayerCount: 2
Fore
SplineSet
37 133 m 2,0,-1
 37 390 l 1,1,-1
 35 390 l 1,2,3
 35 398 35 398 43 402.5 c 128,-1,4
 51 407 51 407 60 407 c 0,5,6
 70 407 70 407 78.5 402.5 c 128,-1,7
 87 398 87 398 87 390 c 2,8,-1
 87 137 l 2,9,10
 87 94 87 94 110 73.5 c 128,-1,11
 133 53 133 53 160 53 c 0,12,13
 189 53 189 53 210 73.5 c 128,-1,14
 231 94 231 94 228 136 c 1,15,-1
 238 137 l 1,16,-1
 228 137 l 1,17,18
 228 205 228 205 227 255.5 c 128,-1,19
 226 306 226 306 237 340.5 c 128,-1,20
 248 375 248 375 275.5 393 c 128,-1,21
 303 411 303 411 360 412 c 2,22,-1
 686 412 l 2,23,24
 696 412 696 412 701 404 c 128,-1,25
 706 396 706 396 706 387 c 0,26,27
 706 379 706 379 701 371.5 c 128,-1,28
 696 364 696 364 686 364 c 2,29,-1
 626 364 l 1,30,-1
 626 101 l 1,31,-1
 625 101 l 1,32,33
 620 65 620 65 600.5 43.5 c 128,-1,34
 581 22 581 22 555 12 c 128,-1,35
 529 2 529 2 500.5 5 c 128,-1,36
 472 8 472 8 448.5 24 c 128,-1,37
 425 40 425 40 410.5 67.5 c 128,-1,38
 396 95 396 95 398 135 c 1,39,-1
 399 135 l 1,40,-1
 399 364 l 1,41,-1
 360 364 l 1,42,-1
 360 409 l 1,43,-1
 357 362 l 1,44,45
 323 362 323 362 309.5 351 c 128,-1,46
 296 340 296 340 292.5 314 c 128,-1,47
 289 288 289 288 291.5 244.5 c 128,-1,48
 294 201 294 201 293 137 c 1,49,-1
 291 137 l 1,50,51
 290 93 290 93 270.5 63.5 c 128,-1,52
 251 34 251 34 223 19 c 128,-1,53
 195 4 195 4 162.5 3.5 c 128,-1,54
 130 3 130 3 102 17.5 c 128,-1,55
 74 32 74 32 55.5 60.5 c 128,-1,56
 37 89 37 89 37 133 c 2,0,-1
453 116 m 1,57,58
 457 86 457 86 472 71 c 128,-1,59
 487 56 487 56 505 55 c 128,-1,60
 523 54 523 54 538.5 67 c 128,-1,61
 554 80 554 80 557 104 c 2,62,-1
 557 364 l 1,63,-1
 453 364 l 1,64,-1
 453 116 l 1,57,58
343 -295 m 1,65,-1
 343 -284 l 1,66,-1
 343 -263 l 1,67,68
 369 -263 369 -263 382.5 -249.5 c 128,-1,69
 396 -236 396 -236 402.5 -218 c 128,-1,70
 409 -200 409 -200 409 -182 c 0,71,72
 409 -166 409 -166 406 -159 c 0,73,74
 406 -130 406 -130 392 -110 c 128,-1,75
 378 -90 378 -90 356 -79 c 128,-1,76
 334 -68 334 -68 307.5 -66.5 c 128,-1,77
 281 -65 281 -65 255 -73.5 c 128,-1,78
 229 -82 229 -82 208.5 -101 c 128,-1,79
 188 -120 188 -120 178 -151 c 1,80,81
 207 -144 207 -144 243.5 -151.5 c 128,-1,82
 280 -159 280 -159 306 -187 c 1,83,-1
 287 -198 l 1,84,-1
 308 -189 l 1,85,86
 323 -217 323 -217 316.5 -239.5 c 128,-1,87
 310 -262 310 -262 290 -276 c 128,-1,88
 270 -290 270 -290 243 -294 c 128,-1,89
 216 -298 216 -298 190.5 -290 c 128,-1,90
 165 -282 165 -282 146 -259.5 c 128,-1,91
 127 -237 127 -237 124 -197 c 1,92,-1
 122 -197 l 1,93,94
 122 -144 122 -144 148 -108 c 128,-1,95
 174 -72 174 -72 213 -53 c 128,-1,96
 252 -34 252 -34 298 -31.5 c 128,-1,97
 344 -29 344 -29 384.5 -42 c 128,-1,98
 425 -55 425 -55 452.5 -84 c 128,-1,99
 480 -113 480 -113 483 -157 c 1,100,101
 481 -187 481 -187 470 -215 c 128,-1,102
 459 -243 459 -243 435 -263 c 1,103,-1
 569 -263 l 1,104,-1
 569 -43 l 2,105,106
 569 -36 569 -36 578.5 -32.5 c 128,-1,107
 588 -29 588 -29 598 -29 c 256,108,109
 608 -29 608 -29 617.5 -32.5 c 128,-1,110
 627 -36 627 -36 627 -44 c 2,111,-1
 627 -276 l 2,112,113
 627 -291 627 -291 613.5 -294.5 c 128,-1,114
 600 -298 600 -298 587 -295 c 2,115,-1
 535 -295 l 1,116,-1
 492 -295 l 1,117,-1
 434 -295 l 1,118,-1
 343 -295 l 1,65,-1
171 -190 m 0,119,120
 173 -221 173 -221 184 -239 c 128,-1,121
 195 -257 195 -257 208 -264 c 128,-1,122
 221 -271 221 -271 235.5 -269 c 128,-1,123
 250 -267 250 -267 259.5 -258.5 c 128,-1,124
 269 -250 269 -250 273.5 -236 c 128,-1,125
 278 -222 278 -222 270 -206 c 1,126,127
 253 -190 253 -190 236.5 -181.5 c 128,-1,128
 220 -173 220 -173 206.5 -172.5 c 128,-1,129
 193 -172 193 -172 183.5 -176.5 c 128,-1,130
 174 -181 174 -181 171 -190 c 0,119,120
EndSplineSet
Ligature2: "'akhn' Akhand lookup 1 subtable" u11336 u1134D u11335
EndChar

StartChar: uE00D
Encoding: 57357 57357 32
Width: 736
GlyphClass: 2
Flags: W
LayerCount: 2
Fore
SplineSet
37 133 m 2,0,-1
 37 390 l 1,1,-1
 35 390 l 1,2,3
 35 398 35 398 43 402.5 c 128,-1,4
 51 407 51 407 60 407 c 0,5,6
 70 407 70 407 78.5 402.5 c 128,-1,7
 87 398 87 398 87 390 c 2,8,-1
 87 137 l 2,9,10
 87 94 87 94 110 73.5 c 128,-1,11
 133 53 133 53 160 53 c 0,12,13
 189 53 189 53 210 73.5 c 128,-1,14
 231 94 231 94 228 136 c 1,15,-1
 238 137 l 1,16,-1
 228 137 l 1,17,18
 228 205 228 205 227 255.5 c 128,-1,19
 226 306 226 306 237 340.5 c 128,-1,20
 248 375 248 375 275.5 393 c 128,-1,21
 303 411 303 411 360 412 c 2,22,-1
 686 412 l 2,23,24
 696 412 696 412 701 404 c 128,-1,25
 706 396 706 396 706 387 c 0,26,27
 706 379 706 379 701 371.5 c 128,-1,28
 696 364 696 364 686 364 c 2,29,-1
 626 364 l 1,30,-1
 626 101 l 1,31,-1
 625 101 l 1,32,33
 620 65 620 65 600.5 43.5 c 128,-1,34
 581 22 581 22 555 12 c 128,-1,35
 529 2 529 2 500.5 5 c 128,-1,36
 472 8 472 8 448.5 24 c 128,-1,37
 425 40 425 40 410.5 67.5 c 128,-1,38
 396 95 396 95 398 135 c 1,39,-1
 399 135 l 1,40,-1
 399 364 l 1,41,-1
 360 364 l 1,42,-1
 360 409 l 1,43,-1
 357 362 l 1,44,45
 323 362 323 362 309.5 351 c 128,-1,46
 296 340 296 340 292.5 314 c 128,-1,47
 289 288 289 288 291.5 244.5 c 128,-1,48
 294 201 294 201 293 137 c 1,49,-1
 291 137 l 1,50,51
 290 93 290 93 270.5 63.5 c 128,-1,52
 251 34 251 34 223 19 c 128,-1,53
 195 4 195 4 162.5 3.5 c 128,-1,54
 130 3 130 3 102 17.5 c 128,-1,55
 74 32 74 32 55.5 60.5 c 128,-1,56
 37 89 37 89 37 133 c 2,0,-1
453 116 m 1,57,58
 457 86 457 86 472 71 c 128,-1,59
 487 56 487 56 505 55 c 128,-1,60
 523 54 523 54 538.5 67 c 128,-1,61
 554 80 554 80 557 104 c 2,62,-1
 557 364 l 1,63,-1
 453 364 l 1,64,-1
 453 116 l 1,57,58
260 -303 m 1,65,-1
 253 -291 l 1,66,67
 256 -282 256 -282 260 -280 c 2,68,-1
 264 -278 l 1,69,70
 261 -278 261 -278 270 -272 c 128,-1,71
 279 -266 279 -266 290 -255 c 128,-1,72
 301 -244 301 -244 311 -226 c 128,-1,73
 321 -208 321 -208 318 -184 c 2,74,-1
 317 -175 l 2,75,76
 313 -132 313 -132 288 -109 c 128,-1,77
 263 -86 263 -86 231.5 -84.5 c 128,-1,78
 200 -83 200 -83 168 -104 c 128,-1,79
 136 -125 136 -125 119 -169 c 1,80,81
 142 -161 142 -161 169.5 -168.5 c 128,-1,82
 197 -176 197 -176 215 -206 c 1,83,-1
 214 -208 l 1,84,-1
 215 -208 l 1,85,86
 228 -234 228 -234 223 -254 c 128,-1,87
 218 -274 218 -274 202.5 -287.5 c 128,-1,88
 187 -301 187 -301 165 -305 c 128,-1,89
 143 -309 143 -309 122 -301.5 c 128,-1,90
 101 -294 101 -294 86.5 -272 c 128,-1,91
 72 -250 72 -250 70 -211 c 2,92,-1
 70 -207 l 1,93,-1
 70 -203 l 2,94,95
 70 -153 70 -153 92.5 -119.5 c 128,-1,96
 115 -86 115 -86 149 -69 c 128,-1,97
 183 -52 183 -52 223 -50.5 c 128,-1,98
 263 -49 263 -49 298.5 -62.5 c 128,-1,99
 334 -76 334 -76 359 -104.5 c 128,-1,100
 384 -133 384 -133 388 -175 c 1,101,-1
 385 -175 l 1,102,103
 384 -207 384 -207 370.5 -234 c 128,-1,104
 357 -261 357 -261 334 -279 c 1,105,-1
 586 -279 l 1,106,-1
 586 -60 l 2,107,108
 586 -53 586 -53 595 -49.5 c 128,-1,109
 604 -46 604 -46 615 -46 c 256,110,111
 626 -46 626 -46 635.5 -49.5 c 128,-1,112
 645 -53 645 -53 645 -60 c 2,113,-1
 645 -290 l 2,114,115
 644 -300 644 -300 633.5 -303.5 c 128,-1,116
 623 -307 623 -307 610 -306 c 2,117,-1
 525 -306 l 1,118,-1
 451 -306 l 1,119,-1
 261 -306 l 1,120,-1
 262 -303 l 1,121,-1
 260 -303 l 1,65,-1
111 -211 m 0,122,123
 114 -249 114 -249 129.5 -264.5 c 128,-1,124
 145 -280 145 -280 161 -278 c 128,-1,125
 177 -276 177 -276 186.5 -260.5 c 128,-1,126
 196 -245 196 -245 186 -221 c 1,127,-1
 186 -222 l 1,128,129
 173 -205 173 -205 160 -198 c 128,-1,130
 147 -191 147 -191 137 -191 c 0,131,132
 126 -191 126 -191 119.5 -197 c 128,-1,133
 113 -203 113 -203 111 -211 c 0,122,123
EndSplineSet
Ligature2: "'akhn' Akhand lookup 1 subtable" u11336 u1134D u1132A
EndChar

StartChar: uE00E
Encoding: 57358 57358 33
Width: 637
GlyphClass: 2
Flags: W
LayerCount: 2
Fore
SplineSet
116 250 m 0,0,1
 134 270 134 270 160 252 c 128,-1,2
 186 234 186 234 169 213.5 c 128,-1,3
 152 193 152 193 128 209 c 0,4,5
 100 230 100 230 116 250 c 0,0,1
216 39 m 0,6,7
 158 32 158 32 138 40.5 c 128,-1,8
 118 49 118 49 115 60 c 128,-1,9
 112 71 112 71 125 81 c 0,10,11
 135 88 135 88 149 91 c 0,12,13
 160 93 160 93 166 93 c 0,14,15
 435 95 435 95 527 177 c 0,16,17
 564 210 564 210 564 262 c 2,18,-1
 564 263 l 1,19,20
 560 327 560 327 510 367 c 128,-1,21
 460 407 460 407 400.5 397 c 128,-1,22
 341 387 341 387 308 332 c 1,23,24
 280 373 280 373 237 389.5 c 128,-1,25
 194 406 194 406 154 394.5 c 128,-1,26
 114 383 114 383 85 343.5 c 128,-1,27
 56 304 56 304 56 235 c 1,28,29
 52 199 52 199 94.5 175.5 c 128,-1,30
 137 152 137 152 177 165 c 0,31,32
 222 179 222 179 222 234 c 2,33,-1
 222 240 l 2,34,35
 221 245 221 245 212 266 c 0,36,37
 208 275 208 275 185.5 287.5 c 128,-1,38
 163 300 163 300 128 296 c 1,39,40
 140 334 140 334 164 347 c 128,-1,41
 188 360 188 360 212 347.5 c 128,-1,42
 236 335 236 335 254 299 c 128,-1,43
 272 263 272 263 272 205 c 0,44,45
 272 194 272 194 284 188 c 128,-1,46
 296 182 296 182 309 182 c 0,47,48
 346 182 346 182 346 211 c 0,49,50
 346 227 346 227 340 252 c 1,51,52
 348 311 348 311 371 336 c 128,-1,53
 394 361 394 361 418 358.5 c 128,-1,54
 442 356 442 356 461 329.5 c 128,-1,55
 480 303 480 303 480 264.5 c 128,-1,56
 480 226 480 226 456 203 c 0,57,58
 410 159 410 159 288 144 c 0,59,60
 198 133 198 133 164 132 c 0,61,62
 160 132 160 132 158 128 c 2,63,-1
 138 126 l 2,64,65
 108 123 108 123 85.5 103.5 c 128,-1,66
 63 84 63 84 64 60 c 0,67,68
 64 5 64 5 214 1 c 1,69,70
 213 -32 213 -32 216 -101 c 0,71,72
 222 -214 222 -214 273 -231 c 0,73,74
 298 -239 298 -239 319 -236 c 128,-1,75
 340 -233 340 -233 359 -209 c 0,76,77
 376 -187 376 -187 378 -163 c 0,78,79
 380 -129 380 -129 395 -111 c 0,80,81
 423 -79 423 -79 440 -103 c 0,82,83
 452 -120 452 -120 452 -123 c 0,84,85
 445 -224 445 -224 374 -263 c 0,86,87
 350 -276 350 -276 318 -276 c 2,88,-1
 116 -276 l 2,89,90
 98 -276 98 -276 98 -294 c 0,91,92
 98 -301 98 -301 103 -306.5 c 128,-1,93
 108 -312 108 -312 118 -312 c 2,94,-1
 318 -312 l 1,95,96
 421 -301 421 -301 475 -243 c 0,97,98
 515 -199 515 -199 520 -136 c 1,99,-1
 520 -119 l 1,100,101
 516 -102 516 -102 502 -83.5 c 128,-1,102
 488 -65 488 -65 469 -53.5 c 128,-1,103
 450 -42 450 -42 428 -39.5 c 128,-1,104
 406 -37 406 -37 386 -49.5 c 128,-1,105
 366 -62 366 -62 350 -83 c 128,-1,106
 334 -104 334 -104 326 -160 c 1,107,-1
 326 -162 l 2,108,109
 326 -179 326 -179 314 -185.5 c 128,-1,110
 302 -192 302 -192 287 -180 c 128,-1,111
 272 -168 272 -168 270 -114.5 c 128,-1,112
 268 -61 268 -61 268 -2 c 1,113,-1
 368 -2 l 1,114,-1
 560 -1 l 2,115,116
 570 -1 570 -1 576 6.5 c 128,-1,117
 582 14 582 14 582 22.5 c 128,-1,118
 582 31 582 31 576 38 c 128,-1,119
 570 45 570 45 560 45 c 2,120,-1
 394 44 l 1,121,-1
 274 44 l 2,122,123
 257 44 257 44 216 39 c 0,6,7
EndSplineSet
Ligature2: "'akhn' Akhand lookup 1 subtable" u11319 u1134D u11317
EndChar

StartChar: uE00F
Encoding: 57359 57359 34
Width: 665
GlyphClass: 3
Flags: W
LayerCount: 2
Fore
SplineSet
313 -295 m 1,0,-1
 313 -284 l 1,1,-1
 313 -263 l 1,2,3
 339 -263 339 -263 352.5 -249.5 c 128,-1,4
 366 -236 366 -236 372.5 -218 c 128,-1,5
 379 -200 379 -200 379 -182 c 0,6,7
 379 -166 379 -166 376 -159 c 0,8,9
 376 -130 376 -130 362 -110 c 128,-1,10
 348 -90 348 -90 326 -79 c 128,-1,11
 304 -68 304 -68 277.5 -66.5 c 128,-1,12
 251 -65 251 -65 225 -73.5 c 128,-1,13
 199 -82 199 -82 178.5 -101 c 128,-1,14
 158 -120 158 -120 148 -151 c 1,15,16
 177 -144 177 -144 213.5 -151.5 c 128,-1,17
 250 -159 250 -159 276 -187 c 1,18,-1
 257 -198 l 1,19,-1
 278 -189 l 1,20,21
 293 -217 293 -217 286.5 -239.5 c 128,-1,22
 280 -262 280 -262 260 -276 c 128,-1,23
 240 -290 240 -290 213 -294 c 128,-1,24
 186 -298 186 -298 160.5 -290 c 128,-1,25
 135 -282 135 -282 116 -259.5 c 128,-1,26
 97 -237 97 -237 94 -197 c 1,27,-1
 92 -197 l 1,28,29
 92 -144 92 -144 118 -108 c 128,-1,30
 144 -72 144 -72 183 -53 c 128,-1,31
 222 -34 222 -34 268 -31.5 c 128,-1,32
 314 -29 314 -29 354.5 -42 c 128,-1,33
 395 -55 395 -55 422.5 -84 c 128,-1,34
 450 -113 450 -113 453 -157 c 1,35,36
 451 -187 451 -187 440 -215 c 128,-1,37
 429 -243 429 -243 405 -263 c 1,38,-1
 539 -263 l 1,39,-1
 539 -43 l 2,40,41
 539 -36 539 -36 548.5 -32.5 c 128,-1,42
 558 -29 558 -29 568 -29 c 256,43,44
 578 -29 578 -29 587.5 -32.5 c 128,-1,45
 597 -36 597 -36 597 -44 c 2,46,-1
 597 -276 l 2,47,48
 597 -291 597 -291 583.5 -294.5 c 128,-1,49
 570 -298 570 -298 557 -295 c 2,50,-1
 505 -295 l 1,51,-1
 462 -295 l 1,52,-1
 404 -295 l 1,53,-1
 313 -295 l 1,0,-1
141 -190 m 0,54,55
 143 -221 143 -221 154 -239 c 128,-1,56
 165 -257 165 -257 178 -264 c 128,-1,57
 191 -271 191 -271 205.5 -269 c 128,-1,58
 220 -267 220 -267 229.5 -258.5 c 128,-1,59
 239 -250 239 -250 243.5 -236 c 128,-1,60
 248 -222 248 -222 240 -206 c 1,61,62
 223 -190 223 -190 206.5 -181.5 c 128,-1,63
 190 -173 190 -173 176.5 -172.5 c 128,-1,64
 163 -172 163 -172 153.5 -176.5 c 128,-1,65
 144 -181 144 -181 141 -190 c 0,54,55
58 147 m 1,66,-1
 60 148 l 1,67,-1
 60 387 l 2,68,69
 59 396 59 396 68.5 401 c 128,-1,70
 78 406 78 406 89.5 407 c 128,-1,71
 101 408 101 408 111 404 c 128,-1,72
 121 400 121 400 121 391 c 2,73,-1
 121 148 l 2,74,75
 121 97 121 97 138.5 73 c 128,-1,76
 156 49 156 49 178.5 46 c 128,-1,77
 201 43 201 43 222 58 c 128,-1,78
 243 73 243 73 250 100 c 1,79,80
 249 146 249 146 249.5 189.5 c 128,-1,81
 250 233 250 233 250 268 c 0,82,83
 250 301 250 301 251 321 c 128,-1,84
 252 341 252 341 250 369 c 2,85,-1
 249 387 l 2,86,87
 247 398 247 398 256.5 403.5 c 128,-1,88
 266 409 266 409 279 409 c 0,89,90
 291 409 291 409 301 403.5 c 128,-1,91
 311 398 311 398 311 389 c 0,92,93
 311 353 311 353 311.5 286.5 c 128,-1,94
 312 220 312 220 312 111 c 0,95,96
 313 99 313 99 312 86 c 2,97,-1
 312 54 l 1,98,-1
 514 54 l 1,99,-1
 514 381 l 2,100,101
 514 392 514 392 526.5 397.5 c 128,-1,102
 539 403 539 403 554 403 c 256,103,104
 569 403 569 403 581.5 397.5 c 128,-1,105
 594 392 594 392 594 381 c 2,106,-1
 594 31 l 2,107,108
 594 21 594 21 585.5 15.5 c 128,-1,109
 577 10 577 10 563 8 c 0,110,111
 559 6 559 6 553 6 c 2,112,-1
 283 6 l 2,113,114
 271 6 271 6 263 15 c 0,115,116
 262 16 262 16 260.5 16.5 c 128,-1,117
 259 17 259 17 258 18 c 0,118,119
 229 3 229 3 195 0.5 c 128,-1,120
 161 -2 161 -2 131.5 12 c 128,-1,121
 102 26 102 26 82 58.5 c 128,-1,122
 62 91 62 91 62 146 c 1,123,-1
 58 147 l 1,66,-1
EndSplineSet
Ligature2: "'akhn' Akhand lookup 1 subtable" u1132F u1134D u11335
EndChar

StartChar: uE100
Encoding: 57600 57600 35
Width: 859
GlyphClass: 2
Flags: W
LayerCount: 2
Fore
SplineSet
615 411 m 2,0,-1
 662 411 l 2,1,2
 681 410 681 410 689 402 c 128,-1,3
 697 394 697 394 695.5 385.5 c 128,-1,4
 694 377 694 377 685.5 369.5 c 128,-1,5
 677 362 677 362 664 362 c 2,6,-1
 635 362 l 1,7,-1
 635 295 l 1,8,9
 673 290 673 290 704.5 276.5 c 128,-1,10
 736 263 736 263 759 244 c 128,-1,11
 782 225 782 225 795.5 201.5 c 128,-1,12
 809 178 809 178 809 153 c 1,13,-1
 738 153 l 1,14,15
 738 183 738 183 713.5 210.5 c 128,-1,16
 689 238 689 238 637 247 c 1,17,18
 639 222 639 222 640.5 190.5 c 128,-1,19
 642 159 642 159 634 130.5 c 128,-1,20
 626 102 626 102 602 82.5 c 128,-1,21
 578 63 578 63 527 63 c 1,22,-1
 527 125 l 1,23,24
 546 125 546 125 555 136 c 128,-1,25
 564 147 564 147 566 165 c 128,-1,26
 568 183 568 183 566.5 205 c 128,-1,27
 565 227 565 227 564 250 c 1,28,-1
 457 250 l 1,29,30
 416 241 416 241 401.5 220.5 c 128,-1,31
 387 200 387 200 396.5 178.5 c 128,-1,32
 406 157 406 157 439 141 c 128,-1,33
 472 125 472 125 526 125 c 1,34,-1
 526 63 l 1,35,36
 457 63 457 63 414 86 c 128,-1,37
 371 109 371 109 353 141 c 128,-1,38
 335 173 335 173 343 208 c 128,-1,39
 351 243 351 243 388 268 c 1,40,41
 361 311 361 311 317 336 c 128,-1,42
 273 361 273 361 228.5 364 c 128,-1,43
 184 367 184 367 148.5 344 c 128,-1,44
 113 321 113 321 103 266 c 1,45,46
 129 274 129 274 159 273 c 128,-1,47
 189 272 189 272 215.5 262 c 128,-1,48
 242 252 242 252 258.5 233 c 128,-1,49
 275 214 275 214 275 186 c 0,50,51
 275 184 275 184 274.5 183 c 128,-1,52
 274 182 274 182 274 180 c 0,53,54
 273 152 273 152 256 133.5 c 128,-1,55
 239 115 239 115 212.5 105 c 128,-1,56
 186 95 186 95 156 94.5 c 128,-1,57
 126 94 126 94 100 103.5 c 128,-1,58
 74 113 74 113 55.5 131.5 c 128,-1,59
 37 150 37 150 35 178 c 1,60,-1
 33 178 l 1,61,62
 31 249 31 249 52.5 296 c 128,-1,63
 74 343 74 343 109.5 368.5 c 128,-1,64
 145 394 145 394 190.5 400.5 c 128,-1,65
 236 407 236 407 280.5 396.5 c 128,-1,66
 325 386 325 386 364 360.5 c 128,-1,67
 403 335 403 335 428 297 c 1,68,-1
 428 378 l 1,69,70
 423 384 423 384 428 393 c 1,71,72
 428 403 428 403 439.5 408 c 128,-1,73
 451 413 451 413 462 411 c 0,74,75
 503 411 503 411 542.5 409.5 c 128,-1,76
 582 408 582 408 615 411 c 2,0,-1
386 37 m 0,77,78
 423 37 423 37 464 35.5 c 128,-1,79
 505 34 505 34 545 34 c 0,80,81
 586 34 586 34 622 39 c 128,-1,82
 658 44 658 44 685 56.5 c 128,-1,83
 712 69 712 69 726.5 92 c 128,-1,84
 741 115 741 115 738 152 c 1,85,-1
 809 152 l 1,86,87
 809 98 809 98 788.5 66 c 128,-1,88
 768 34 768 34 734 18 c 128,-1,89
 700 2 700 2 656 -1.5 c 128,-1,90
 612 -5 612 -5 565 -3.5 c 128,-1,91
 518 -2 518 -2 471 0.5 c 128,-1,92
 424 3 424 3 385 0 c 2,93,-1
 380 0 l 2,94,95
 328 0 328 0 305 -4 c 128,-1,96
 282 -8 282 -8 277 -15 c 128,-1,97
 272 -22 272 -22 281 -31.5 c 128,-1,98
 290 -41 290 -41 302 -51 c 0,99,100
 311 -58 311 -58 308.5 -68.5 c 128,-1,101
 306 -79 306 -79 297 -87 c 0,102,103
 282 -101 282 -101 264 -96.5 c 128,-1,104
 246 -92 246 -92 234 -72 c 0,105,106
 224 -57 224 -57 221.5 -37.5 c 128,-1,107
 219 -18 219 -18 233.5 -2 c 128,-1,108
 248 14 248 14 283.5 25.5 c 128,-1,109
 319 37 319 37 386 37 c 0,77,78
106 186 m 1,110,-1
 105 184 l 1,111,112
 105 161 105 161 122.5 149.5 c 128,-1,113
 140 138 140 138 160.5 137.5 c 128,-1,114
 181 137 181 137 198.5 149 c 128,-1,115
 216 161 216 161 216 184 c 0,116,117
 216 188 216 188 217 189 c 0,118,119
 216 212 216 212 198 222 c 128,-1,120
 180 232 180 232 159 231 c 128,-1,121
 138 230 138 230 121.5 219 c 128,-1,122
 105 208 105 208 106 186 c 1,110,-1
484 362 m 1,123,-1
 484 298 l 1,124,-1
 564 298 l 1,125,-1
 564 362 l 1,126,-1
 484 362 l 1,123,-1
387 6 m 1,127,-1
 386 4 l 1,128,-1
 386 3 l 1,129,-1
 387 6 l 1,127,-1
456 272 m 1,130,-1
 455 274 l 1,131,-1
 457 272 l 1,132,-1
 456 272 l 1,130,-1
EndSplineSet
Ligature2: "'akhn' Akhand lookup 0 subtable" u11328 u1134D u11324
EndChar

StartChar: uE101
Encoding: 57601 57601 36
Width: 761
GlyphClass: 2
Flags: W
LayerCount: 2
Fore
SplineSet
94 206 m 0,0,1
 94 182 94 182 108 170 c 128,-1,2
 122 158 122 158 138 158 c 256,3,4
 154 158 154 158 168 170 c 128,-1,5
 182 182 182 182 182 206 c 1,6,-1
 244 206 l 1,7,8
 244 178 244 178 228.5 159.5 c 128,-1,9
 213 141 213 141 190.5 131.5 c 128,-1,10
 168 122 168 122 141 121.5 c 128,-1,11
 114 121 114 121 90.5 129 c 128,-1,12
 67 137 67 137 50.5 154.5 c 128,-1,13
 34 172 34 172 32 199 c 0,14,15
 30 205 30 205 30 206 c 0,16,17
 22 266 22 266 31.5 307 c 128,-1,18
 41 348 41 348 62 372 c 128,-1,19
 83 396 83 396 113 404.5 c 128,-1,20
 143 413 143 413 175.5 407 c 128,-1,21
 208 401 208 401 239.5 383 c 128,-1,22
 271 365 271 365 297 336 c 1,23,-1
 297 392 l 2,24,25
 297 401 297 401 309 404 c 1,26,27
 315 412 315 412 327 413 c 2,28,-1
 594 413 l 2,29,30
 603 413 603 413 608 405 c 128,-1,31
 613 397 613 397 613 388 c 0,32,33
 613 380 613 380 608 372.5 c 128,-1,34
 603 365 603 365 594 365 c 2,35,-1
 516 365 l 1,36,-1
 516 261 l 1,37,38
 545 274 545 274 578 273 c 128,-1,39
 611 272 611 272 639.5 257.5 c 128,-1,40
 668 243 668 243 686.5 215 c 128,-1,41
 705 187 705 187 705 147 c 1,42,-1
 628 147 l 1,43,44
 628 181 628 181 615.5 202 c 128,-1,45
 603 223 603 223 585 230 c 128,-1,46
 567 237 567 237 548 228.5 c 128,-1,47
 529 220 529 220 516 195 c 1,48,-1
 516 177 l 2,49,50
 516 166 516 166 504.5 160.5 c 128,-1,51
 493 155 493 155 478 155 c 0,52,53
 464 155 464 155 452 160.5 c 128,-1,54
 440 166 440 166 440 177 c 2,55,-1
 440 365 l 1,56,-1
 357 365 l 1,57,-1
 357 142 l 2,58,59
 354 135 354 135 344.5 132 c 128,-1,60
 335 129 335 129 324 129.5 c 128,-1,61
 313 130 313 130 305 134 c 128,-1,62
 297 138 297 138 297 144 c 2,63,-1
 297 172 l 2,64,65
 296 173 296 173 296 177 c 0,66,67
 296 230 296 230 280 268.5 c 128,-1,68
 264 307 264 307 240.5 330 c 128,-1,69
 217 353 217 353 189 361.5 c 128,-1,70
 161 370 161 370 137 363 c 128,-1,71
 113 356 113 356 96.5 334.5 c 128,-1,72
 80 313 80 313 79 279 c 1,73,74
 102 291 102 291 130.5 292 c 128,-1,75
 159 293 159 293 184 283.5 c 128,-1,76
 209 274 209 274 226.5 254 c 128,-1,77
 244 234 244 234 244 206 c 1,78,-1
 182 206 l 1,79,80
 182 232 182 232 168.5 244 c 128,-1,81
 155 256 155 256 138 256 c 0,82,83
 122 256 122 256 108 244 c 128,-1,84
 94 232 94 232 94 206 c 0,0,1
516 4 m 2,85,-1
 136 4 l 2,86,87
 126 4 126 4 121 11 c 128,-1,88
 116 18 116 18 116 27 c 128,-1,89
 116 36 116 36 121 43 c 128,-1,90
 126 50 126 50 136 50 c 2,91,-1
 516 50 l 2,92,93
 551 50 551 50 572.5 58 c 128,-1,94
 594 66 594 66 606 78.5 c 128,-1,95
 618 91 618 91 623 108.5 c 128,-1,96
 628 126 628 126 628 146 c 1,97,-1
 705 146 l 1,98,99
 705 121 705 121 693.5 96 c 128,-1,100
 682 71 682 71 659 50.5 c 128,-1,101
 636 30 636 30 600.5 17 c 128,-1,102
 565 4 565 4 516 4 c 2,85,-1
EndSplineSet
Ligature2: "'akhn' Akhand lookup 0 subtable" u11328 u1134D u11328
EndChar

StartChar: uE102
Encoding: 57602 57602 37
Width: 920
GlyphClass: 2
Flags: W
LayerCount: 2
Fore
SplineSet
169 336 m 5,0,-1
 244 336 l 5,1,-1
 244 262 l 5,2,-1
 169 262 l 5,3,-1
 169 336 l 5,0,-1
205 63 m 5,4,5
 205 63 205 63 205 62 c 5,6,7
 153 62 153 62 121 82.5 c 132,-1,8
 89 103 89 103 80 128.5 c 132,-1,9
 71 154 71 154 86 179 c 132,-1,10
 101 204 101 204 142 214 c 5,11,-1
 244 214 l 5,12,13
 245 183 245 183 246.5 154.5 c 132,-1,14
 248 126 248 126 245.5 106 c 132,-1,15
 243 86 243 86 233.5 74.5 c 132,-1,16
 224 63 224 63 205 63 c 5,4,5
414 117 m 5,17,18
 404 106 404 106 398 87 c 132,-1,19
 392 68 392 68 397.5 49 c 132,-1,20
 403 30 403 30 425.5 15.5 c 132,-1,21
 448 1 448 1 496 2 c 5,22,-1
 495 0 l 5,23,24
 526 1 526 1 550.5 19 c 132,-1,25
 575 37 575 37 591 63 c 5,26,27
 615 25 615 25 650.5 10.5 c 132,-1,28
 686 -4 686 -4 719.5 6.5 c 132,-1,29
 753 17 753 17 776.5 53 c 132,-1,30
 800 89 800 89 800 149 c 5,31,-1
 743 149 l 5,32,33
 746 97 746 97 729.5 70 c 132,-1,34
 713 43 713 43 689.5 42 c 132,-1,35
 666 41 666 41 643 67 c 4,36,37
 614 100 614 100 614 146 c 4,38,39
 614 151 614 151 608 156 c 5,40,41
 602 179 602 179 579 193 c 4,42,43
 574 196 574 196 567.5 193 c 132,-1,44
 561 190 561 190 555 186 c 132,-1,45
 549 182 549 182 546 177 c 132,-1,46
 543 172 543 172 544 171 c 4,47,48
 563 152 563 152 563 121 c 4,49,50
 562 98 562 98 550.5 80 c 132,-1,51
 539 62 539 62 523.5 51.5 c 132,-1,52
 508 41 508 41 499 41 c 5,53,-1
 499 43 l 5,54,55
 475 37 475 37 465.5 45 c 132,-1,56
 456 53 456 53 455.5 66 c 132,-1,57
 455 79 455 79 460 94 c 132,-1,58
 465 109 465 109 469 117 c 5,59,-1
 469 118 l 5,60,61
 482 155 482 155 473.5 181 c 132,-1,62
 465 207 465 207 443 224 c 132,-1,63
 421 241 421 241 387 250 c 132,-1,64
 353 259 353 259 314 261 c 5,65,-1
 314 336 l 5,66,-1
 327 336 l 6,67,68
 340 336 340 336 347 343.5 c 132,-1,69
 354 351 354 351 353.5 359.5 c 132,-1,70
 353 368 353 368 344.5 375 c 132,-1,71
 336 382 336 382 320 382 c 6,72,-1
 152 382 l 6,73,74
 140 383 140 383 127 377.5 c 132,-1,75
 114 372 114 372 114 362 c 6,76,-1
 114 256 l 5,77,78
 79 245 79 245 59 221.5 c 132,-1,79
 39 198 39 198 33 170 c 132,-1,80
 27 142 27 142 35 111.5 c 132,-1,81
 43 81 43 81 64.5 57 c 132,-1,82
 86 33 86 33 121.5 17 c 132,-1,83
 157 1 157 1 204 1 c 4,84,85
 254 1 254 1 277.5 25 c 132,-1,86
 301 49 301 49 310 83.5 c 132,-1,87
 319 118 319 118 317.5 154.5 c 132,-1,88
 316 191 316 191 314 217 c 5,89,90
 379 219 379 219 408 191 c 132,-1,91
 437 163 437 163 414 117 c 5,17,18
724 226 m 4,92,93
 733 213 733 213 726 197 c 4,94,95
 720 178 720 178 694 176 c 4,96,97
 669 176 669 176 663 185 c 4,98,99
 654 196 654 196 653 213 c 6,100,-1
 653 214 l 6,101,102
 653 226 653 226 665 236 c 4,103,104
 674 243 674 243 694 242 c 4,105,106
 707 242 707 242 724 226 c 4,92,93
800 149 m 6,107,108
 802 150 802 150 790 205 c 4,109,110
 781 248 781 248 732 269 c 4,111,112
 707 279 707 279 689 279 c 132,-1,113
 671 279 671 279 656 276 c 132,-1,114
 641 273 641 273 628 256 c 132,-1,115
 615 239 615 239 615 214 c 6,116,-1
 615 210 l 6,117,118
 618 184 618 184 631.5 168.5 c 132,-1,119
 645 153 645 153 663.5 147.5 c 132,-1,120
 682 142 682 142 703 139 c 132,-1,121
 724 136 724 136 743 150 c 5,122,-1
 800 149 l 6,107,108
EndSplineSet
LCarets2: 2 0 0
Ligature2: "'akhn' Akhand lookup 0 subtable" u11324 u1134D u11325
EndChar

StartChar: uE103
Encoding: 57603 57603 38
Width: 1128
GlyphClass: 2
Flags: W
LayerCount: 2
Fore
SplineSet
36 132 m 2,0,-1
 36 388 l 1,1,-1
 33 388 l 1,2,3
 33 396 33 396 41 400 c 128,-1,4
 49 404 49 404 59 404 c 256,5,6
 69 404 69 404 77.5 400 c 128,-1,7
 86 396 86 396 86 388 c 2,8,-1
 86 136 l 2,9,10
 86 94 86 94 109 73.5 c 128,-1,11
 132 53 132 53 159 53 c 256,12,13
 186 53 186 53 207 73.5 c 128,-1,14
 228 94 228 94 225 135 c 1,15,-1
 233 136 l 1,16,-1
 225 136 l 1,17,18
 225 203 225 203 224 253.5 c 128,-1,19
 223 304 223 304 233.5 338.5 c 128,-1,20
 244 373 244 373 271 391 c 128,-1,21
 298 409 298 409 354 410 c 2,22,-1
 675 410 l 2,23,24
 684 410 684 410 689 402.5 c 128,-1,25
 694 395 694 395 694 386 c 256,26,27
 694 377 694 377 689 369.5 c 128,-1,28
 684 362 684 362 675 362 c 2,29,-1
 615 362 l 1,30,-1
 615 280 l 1,31,32
 646 275 646 275 673.5 262.5 c 128,-1,33
 701 250 701 250 721.5 231.5 c 128,-1,34
 742 213 742 213 753.5 189.5 c 128,-1,35
 765 166 765 166 764 137 c 1,36,-1
 763 137 l 1,37,38
 758 70 758 70 696 39 c 1,39,-1
 843 39 l 2,40,41
 881 39 881 39 916 39 c 0,42,43
 952 39 952 39 988 38 c 1,44,-1
 988 366 l 2,45,46
 987 380 987 380 999 388 c 128,-1,47
 1011 396 1011 396 1025 397.5 c 128,-1,48
 1039 399 1039 399 1051.5 393.5 c 128,-1,49
 1064 388 1064 388 1064 374 c 2,50,-1
 1064 28 l 1,51,-1
 1064 26 l 1,52,53
 1068 18 1068 18 1066 9 c 2,54,-1
 1064 0 l 1,55,-1
 734 0 l 1,56,-1
 404 0 l 1,57,-1
 404 1 l 1,58,-1
 401 1 l 1,59,-1
 403 5 l 1,60,-1
 403 39 l 1,61,62
 464 39 464 39 514.5 40.5 c 128,-1,63
 565 42 565 42 603 51 c 128,-1,64
 641 60 641 60 664.5 80 c 128,-1,65
 688 100 688 100 696 137 c 1,66,67
 696 174 696 174 672 201 c 128,-1,68
 648 228 648 228 615 240 c 1,69,-1
 615 156 l 2,70,71
 616 151 616 151 617 147 c 128,-1,72
 618 143 618 143 618 138 c 0,73,74
 618 110 618 110 602 92 c 128,-1,75
 586 74 586 74 561 64 c 128,-1,76
 536 54 536 54 507 53.5 c 128,-1,77
 478 53 478 53 453 62.5 c 128,-1,78
 428 72 428 72 411.5 90.5 c 128,-1,79
 395 109 395 109 395 137 c 2,80,-1
 395 145 l 1,81,82
 401 178 401 178 416 202.5 c 128,-1,83
 431 227 431 227 452 244 c 128,-1,84
 473 261 473 261 498.5 270.5 c 128,-1,85
 524 280 524 280 552 283 c 1,86,87
 550 301 550 301 548.5 320.5 c 128,-1,88
 547 340 547 340 547 362 c 1,89,-1
 354 362 l 1,90,-1
 354 407 l 1,91,-1
 351 361 l 1,92,93
 318 361 318 361 304.5 350 c 128,-1,94
 291 339 291 339 288 312.5 c 128,-1,95
 285 286 285 286 287 243 c 128,-1,96
 289 200 289 200 288 136 c 1,97,-1
 287 136 l 1,98,99
 286 92 286 92 267 62.5 c 128,-1,100
 248 33 248 33 219.5 18 c 128,-1,101
 191 3 191 3 159.5 2.5 c 128,-1,102
 128 2 128 2 100.5 16.5 c 128,-1,103
 73 31 73 31 54.5 59.5 c 128,-1,104
 36 88 36 88 36 132 c 2,0,-1
459 137 m 1,105,-1
 457 137 l 1,106,107
 457 118 457 118 473 107 c 128,-1,108
 489 96 489 96 508 95.5 c 128,-1,109
 527 95 527 95 543.5 105.5 c 128,-1,110
 560 116 560 116 560 137 c 1,111,-1
 559 137 l 1,112,113
 559 159 559 159 543 168 c 128,-1,114
 527 177 527 177 508.5 176 c 128,-1,115
 490 175 490 175 474.5 164.5 c 128,-1,116
 459 154 459 154 459 137 c 1,105,-1
558 212 m 1,117,118
 557 221 557 221 556 230 c 128,-1,119
 555 239 555 239 554 247 c 1,120,121
 519 244 519 244 493 220 c 1,122,123
 523 223 523 223 558 212 c 1,117,118
EndSplineSet
Ligature2: "'akhn' Akhand lookup 0 subtable" u11336 u1134D u1131A
EndChar

StartChar: uE104
Encoding: 57604 57604 39
Width: 613
GlyphClass: 2
Flags: W
LayerCount: 2
Fore
SplineSet
307 74 m 1,0,-1
 311 85 l 1,1,2
 313 110 313 110 328.5 125.5 c 128,-1,3
 344 141 344 141 366 154 c 128,-1,4
 388 167 388 167 413 178 c 128,-1,5
 438 189 438 189 459 204.5 c 128,-1,6
 480 220 480 220 493.5 241.5 c 128,-1,7
 507 263 507 263 506 296 c 1,8,-1
 505 296 l 1,9,10
 496 336 496 336 467 352 c 128,-1,11
 438 368 438 368 405.5 362 c 128,-1,12
 373 356 373 356 342.5 331 c 128,-1,13
 312 306 312 306 300 266 c 1,14,-1
 289 259 l 1,15,16
 278 257 278 257 270 258 c 128,-1,17
 262 259 262 259 258 262 c 128,-1,18
 254 265 254 265 252.5 268.5 c 128,-1,19
 251 272 251 272 251 275 c 2,20,-1
 251 282 l 2,21,22
 251 308 251 308 237 325.5 c 128,-1,23
 223 343 223 343 202.5 351 c 128,-1,24
 182 359 182 359 159 357 c 128,-1,25
 136 355 136 355 118 342 c 1,26,27
 154 342 154 342 180.5 323.5 c 128,-1,28
 207 305 207 305 207 267 c 1,29,-1
 202 267 l 1,30,31
 203 266 203 266 206 266 c 2,32,-1
 208 266 l 1,33,34
 208 237 208 237 195 218 c 128,-1,35
 182 199 182 199 162.5 188.5 c 128,-1,36
 143 178 143 178 119.5 177 c 128,-1,37
 96 176 96 176 76 185 c 128,-1,38
 56 194 56 194 42 211.5 c 128,-1,39
 28 229 28 229 26 257 c 0,40,41
 25 258 25 258 25 264 c 0,42,43
 25 326 25 326 56.5 361 c 128,-1,44
 88 396 88 396 131 404.5 c 128,-1,45
 174 413 174 413 217 396 c 128,-1,46
 260 379 260 379 284 339 c 1,47,48
 314 378 314 378 362.5 395.5 c 128,-1,49
 411 413 411 413 458.5 407.5 c 128,-1,50
 506 402 506 402 543 374 c 128,-1,51
 580 346 580 346 586 294 c 1,52,-1
 585 294 l 1,53,54
 585 292 585 292 585.5 290.5 c 128,-1,55
 586 289 586 289 586 287 c 0,56,57
 585 249 585 249 570 224.5 c 128,-1,58
 555 200 555 200 532.5 184 c 128,-1,59
 510 168 510 168 483 157.5 c 128,-1,60
 456 147 456 147 430 137 c 128,-1,61
 404 127 404 127 383 114.5 c 128,-1,62
 362 102 362 102 352 82 c 1,63,64
 352 56 352 56 366 45 c 128,-1,65
 380 34 380 34 397 35.5 c 128,-1,66
 414 37 414 37 428 50 c 128,-1,67
 442 63 442 63 442 88 c 0,68,69
 442 95 442 95 449 98.5 c 128,-1,70
 456 102 456 102 464.5 101 c 128,-1,71
 473 100 473 100 479.5 95 c 128,-1,72
 486 90 486 90 486 81 c 0,73,74
 486 55 486 55 473 37.5 c 128,-1,75
 460 20 460 20 440 11 c 128,-1,76
 420 2 420 2 397 1.5 c 128,-1,77
 374 1 374 1 354 8.5 c 128,-1,78
 334 16 334 16 320.5 32.5 c 128,-1,79
 307 49 307 49 307 74 c 1,0,-1
86 266 m 0,80,81
 86 241 86 241 97.5 229 c 128,-1,82
 109 217 109 217 122 216.5 c 128,-1,83
 135 216 135 216 146.5 228.5 c 128,-1,84
 158 241 158 241 158 265 c 1,85,86
 152 267 152 267 159 267 c 1,87,88
 158 284 158 284 145 292 c 128,-1,89
 132 300 132 300 118 299.5 c 128,-1,90
 104 299 104 299 93.5 290 c 128,-1,91
 83 281 83 281 86 266 c 0,80,81
EndSplineSet
Ligature2: "'akhn' Akhand lookup 0 subtable" u1132E u1134D u1132E
EndChar

StartChar: uE105
Encoding: 57605 57605 40
Width: 554
GlyphClass: 3
Flags: W
LayerCount: 2
Fore
SplineSet
124 290 m 1,0,-1
 123 231 l 1,1,-1
 123 127 l 2,2,3
 123 110 123 110 113 102 c 128,-1,4
 103 94 103 94 88.5 96 c 128,-1,5
 74 98 74 98 63.5 107 c 128,-1,6
 53 116 53 116 54 127 c 2,7,-1
 54 380 l 2,8,9
 54 391 54 391 72 395 c 1,10,11
 77 404 77 404 92 404 c 2,12,-1
 379 404 l 2,13,14
 391 404 391 404 397 396.5 c 128,-1,15
 403 389 403 389 403 380.5 c 128,-1,16
 403 372 403 372 396.5 365 c 128,-1,17
 390 358 390 358 379 358 c 2,18,-1
 297 358 l 1,19,-1
 297 310 l 2,20,21
 297 302 297 302 296.5 284.5 c 128,-1,22
 296 267 296 267 296 258 c 1,23,24
 325 270 325 270 342 270 c 2,25,-1
 364 270 l 2,26,27
 398 268 398 268 432 253 c 0,28,29
 496 224 496 224 500 145 c 1,30,-1
 502 145 l 1,31,32
 502 84 502 84 480 66 c 0,33,34
 406 6 406 6 388 6 c 0,35,36
 387 6 387 6 386 6 c 2,37,-1
 324 -32 l 1,38,39
 311 -51 311 -51 311 -67 c 128,-1,40
 311 -83 311 -83 320 -96 c 0,41,42
 345 -138 345 -138 390 -138 c 0,43,44
 391 -138 391 -138 392 -138 c 0,45,46
 422 -137 422 -137 430 -94 c 1,47,-1
 406 -58 l 1,48,49
 411 -33 411 -33 438 -33 c 0,50,51
 440 -33 440 -33 442 -33 c 0,52,53
 474 -35 474 -35 474 -77 c 0,54,55
 474 -101 474 -101 458 -131 c 128,-1,56
 442 -161 442 -161 418 -165.5 c 128,-1,57
 394 -170 394 -170 366 -170 c 128,-1,58
 338 -170 338 -170 306 -154 c 128,-1,59
 274 -138 274 -138 260 -90 c 0,60,61
 258 -84 258 -84 258 -70.5 c 128,-1,62
 258 -57 258 -57 272 -31 c 128,-1,63
 286 -5 286 -5 316 14 c 0,64,65
 322 20 322 20 358 51.5 c 128,-1,66
 394 83 394 83 413 110 c 0,67,68
 417 113 417 113 418 135 c 1,69,-1
 416 135 l 1,70,71
 416 215 416 215 372 227 c 0,72,73
 364 230 364 230 356 230 c 0,74,75
 319 230 319 230 296 192 c 1,76,-1
 296 169 l 2,77,78
 296 130 296 130 283.5 111.5 c 128,-1,79
 271 93 271 93 258 93 c 0,80,81
 256 93 256 93 254 93 c 0,82,83
 239 96 239 96 226.5 114.5 c 128,-1,84
 214 133 214 133 214 166 c 0,85,86
 214 171 214 171 214.5 193 c 128,-1,87
 215 215 215 215 215 277 c 2,88,-1
 214 358 l 1,89,-1
 124 358 l 1,90,-1
 124 290 l 1,0,-1
EndSplineSet
Ligature2: "'akhn' Akhand lookup 0 subtable" u11328 u1134D u1132E
EndChar

StartChar: uE106
Encoding: 57606 57606 41
Width: 655
GlyphClass: 2
Flags: W
LayerCount: 2
Fore
SplineSet
264 125 m 1,0,-1
 176 125 l 2,1,2
 148 123 148 123 121 125 c 2,3,-1
 118 125 l 2,4,5
 117 125 117 125 116 125.5 c 128,-1,6
 115 126 115 126 113 126 c 0,7,8
 99 133 99 133 99 153 c 0,9,10
 100 161 100 161 106 167 c 128,-1,11
 112 173 112 173 121 173 c 0,12,13
 159 173 159 173 193.5 178.5 c 128,-1,14
 228 184 228 184 255 196.5 c 128,-1,15
 282 209 282 209 297.5 227 c 128,-1,16
 313 245 313 245 313 269 c 1,17,-1
 381 269 l 1,18,19
 381 230 381 230 364.5 204.5 c 128,-1,20
 348 179 348 179 322 162 c 1,21,22
 355 143 355 143 354 112 c 0,23,24
 354 98 354 98 344.5 82 c 128,-1,25
 335 66 335 66 314 51 c 1,26,-1
 510 51 l 1,27,-1
 510 393 l 2,28,29
 510 401 510 401 520.5 405 c 128,-1,30
 531 409 531 409 545 409 c 0,31,32
 558 409 558 409 569 404.5 c 128,-1,33
 580 400 580 400 580 393 c 2,34,-1
 580 37 l 1,35,36
 586 26 586 26 577.5 14 c 128,-1,37
 569 2 569 2 548 2 c 2,38,-1
 48 2 l 2,39,40
 39 2 39 2 34 9.5 c 128,-1,41
 29 17 29 17 29 27 c 0,42,43
 29 36 29 36 34 43.5 c 128,-1,44
 39 51 39 51 48 51 c 2,45,-1
 84 51 l 1,46,-1
 86 51 l 2,47,48
 181 51 181 51 231.5 61 c 128,-1,49
 282 71 282 71 298.5 83.5 c 128,-1,50
 315 96 315 96 303.5 108.5 c 128,-1,51
 292 121 292 121 264 125 c 1,0,-1
260 303 m 0,52,53
 260 281 260 281 249 267 c 128,-1,54
 238 253 238 253 220.5 245.5 c 128,-1,55
 203 238 203 238 182 237.5 c 128,-1,56
 161 237 161 237 142.5 242.5 c 128,-1,57
 124 248 124 248 110.5 260.5 c 128,-1,58
 97 273 97 273 94 293 c 0,59,60
 91 297 91 297 91 304 c 0,61,62
 91 333 91 333 111 355.5 c 128,-1,63
 131 378 131 378 162 390 c 128,-1,64
 193 402 193 402 229 403 c 128,-1,65
 265 404 265 404 297.5 391 c 128,-1,66
 330 378 330 378 353.5 348.5 c 128,-1,67
 377 319 377 319 382 271 c 1,68,-1
 311 271 l 1,69,70
 311 296 311 296 302.5 313 c 128,-1,71
 294 330 294 330 280 340 c 128,-1,72
 266 350 266 350 249 354 c 128,-1,73
 232 358 232 358 216 357 c 1,74,75
 235 350 235 350 247.5 336.5 c 128,-1,76
 260 323 260 323 260 303 c 0,52,53
153 303 m 0,77,78
 153 289 153 289 160.5 282 c 128,-1,79
 168 275 168 275 177 275 c 0,80,81
 187 275 187 275 195 282 c 128,-1,82
 203 289 203 289 203 303 c 0,83,84
 203 316 203 316 195 323 c 128,-1,85
 187 330 187 330 177 330 c 0,86,87
 168 330 168 330 160.5 323 c 128,-1,88
 153 316 153 316 153 303 c 0,77,78
EndSplineSet
Ligature2: "'akhn' Akhand lookup 0 subtable" u11326 u1134D u11335
EndChar

StartChar: uE107
Encoding: 57607 57607 42
Width: 917
GlyphClass: 2
Flags: W
LayerCount: 2
Fore
SplineSet
563 240 m 1,0,-1
 562 242 l 1,1,2
 560 239 560 239 558 239 c 0,3,4
 550 238 550 238 542 235 c 128,-1,5
 534 232 534 232 525 228 c 1,6,7
 567 197 567 197 587 159.5 c 128,-1,8
 607 122 607 122 604 88 c 128,-1,9
 601 54 601 54 575.5 29.5 c 128,-1,10
 550 5 550 5 500 1 c 1,11,-1
 490 1 l 2,12,13
 462 -2 462 -2 443.5 21.5 c 128,-1,14
 425 45 425 45 418 80.5 c 128,-1,15
 411 116 411 116 417.5 156.5 c 128,-1,16
 424 197 424 197 446 227 c 1,17,18
 421 236 421 236 391 241 c 128,-1,19
 361 246 361 246 325 244 c 1,20,21
 326 225 326 225 327.5 200 c 128,-1,22
 329 175 329 175 328 148.5 c 128,-1,23
 327 122 327 122 322 96.5 c 128,-1,24
 317 71 317 71 306.5 50.5 c 128,-1,25
 296 30 296 30 277.5 17.5 c 128,-1,26
 259 5 259 5 230 5 c 1,27,-1
 230 4 l 1,28,29
 183 4 183 4 147 20 c 128,-1,30
 111 36 111 36 87 61.5 c 128,-1,31
 63 87 63 87 53.5 119 c 128,-1,32
 44 151 44 151 49.5 182 c 128,-1,33
 55 213 55 213 78 240.5 c 128,-1,34
 101 268 101 268 142 285 c 1,35,-1
 142 392 l 2,36,37
 142 406 142 406 161 412 c 1,38,-1
 161 415 l 1,39,-1
 349 415 l 2,40,41
 359 415 359 415 365 407.5 c 128,-1,42
 371 400 371 400 371 391 c 256,43,44
 371 382 371 382 365 375 c 128,-1,45
 359 368 359 368 349 368 c 2,46,-1
 325 368 l 1,47,-1
 325 291 l 1,48,49
 374 289 374 289 410.5 280 c 128,-1,50
 447 271 447 271 477 257 c 1,51,52
 490 265 490 265 505.5 270.5 c 128,-1,53
 521 276 521 276 542 279 c 2,54,-1
 561 280 l 1,55,-1
 561 281 l 1,56,57
 614 281 614 281 647.5 256 c 128,-1,58
 681 231 681 231 697 196 c 128,-1,59
 713 161 713 161 712.5 121.5 c 128,-1,60
 712 82 712 82 698 52 c 1,61,-1
 784 52 l 1,62,-1
 784 345 l 2,63,64
 784 354 784 354 794.5 359.5 c 128,-1,65
 805 365 805 365 817.5 365.5 c 128,-1,66
 830 366 830 366 840.5 361 c 128,-1,67
 851 356 851 356 851 347 c 2,68,-1
 851 22 l 2,69,70
 851 9 851 9 845 4.5 c 128,-1,71
 839 0 839 0 831 0 c 0,72,73
 824 0 824 0 818.5 2 c 128,-1,74
 813 4 813 4 814 4 c 1,75,76
 810 4 810 4 808 3.5 c 128,-1,77
 806 3 806 3 802 4 c 2,78,-1
 768 4 l 1,79,-1
 736 4 l 1,80,-1
 703 4 l 2,81,82
 695 4 695 4 688.5 2 c 128,-1,83
 682 0 682 0 671 1 c 2,84,-1
 642 6 l 2,85,86
 633 5 633 5 628 10 c 128,-1,87
 623 15 623 15 620 23 c 128,-1,88
 617 31 617 31 619 37.5 c 128,-1,89
 621 44 621 44 626 46 c 0,90,91
 655 56 655 56 662.5 88.5 c 128,-1,92
 670 121 670 121 660 155.5 c 128,-1,93
 650 190 650 190 625 216.5 c 128,-1,94
 600 243 600 243 563 240 c 1,0,-1
231 55 m 0,95,96
 249 55 249 55 257 74.5 c 128,-1,97
 265 94 265 94 266.5 122.5 c 128,-1,98
 268 151 268 151 266 183 c 128,-1,99
 264 215 264 215 262 242 c 1,100,-1
 168 242 l 1,101,102
 122 225 122 225 106.5 192 c 128,-1,103
 91 159 91 159 101.5 126.5 c 128,-1,104
 112 94 112 94 143.5 72 c 128,-1,105
 175 50 175 50 223 54 c 0,106,107
 224 55 224 55 231 55 c 0,95,96
502 41 m 2,108,109
 530 41 530 41 543 58 c 128,-1,110
 556 75 556 75 555 100 c 128,-1,111
 554 125 554 125 537.5 153 c 128,-1,112
 521 181 521 181 490 204 c 1,113,114
 478 189 478 189 470.5 165.5 c 128,-1,115
 463 142 463 142 462 117.5 c 128,-1,116
 461 93 461 93 468 71.5 c 128,-1,117
 475 50 475 50 494 40 c 0,118,119
 494 39 494 39 494.5 37.5 c 128,-1,120
 495 36 495 36 495 34 c 1,121,122
 495 40 495 40 493 42 c 1,123,-1
 502 41 l 2,108,109
193 368 m 1,124,-1
 193 292 l 1,125,-1
 262 292 l 1,126,-1
 262 368 l 1,127,-1
 193 368 l 1,124,-1
165 268 m 1,128,-1
 167 264 l 1,129,-1
 167 268 l 1,130,-1
 165 268 l 1,128,-1
EndSplineSet
Ligature2: "'akhn' Akhand lookup 0 subtable" u11324 u1134D u11335
EndChar

StartChar: uE108
Encoding: 57608 57608 43
Width: 772
GlyphClass: 2
Flags: W
LayerCount: 2
Fore
SplineSet
85 259 m 1,0,-1
 92 251 l 1,1,2
 82 255 82 255 82 266 c 0,3,4
 82 301 82 301 93.5 328 c 128,-1,5
 105 355 105 355 125 373.5 c 128,-1,6
 145 392 145 392 170 402 c 128,-1,7
 195 412 195 412 221 412 c 128,-1,8
 247 412 247 412 271.5 403 c 128,-1,9
 296 394 296 394 315 375.5 c 128,-1,10
 334 357 334 357 345 329.5 c 128,-1,11
 356 302 356 302 355 264 c 1,12,-1
 354 264 l 1,13,14
 354 250 354 250 342.5 232 c 128,-1,15
 331 214 331 214 303 199 c 1,16,-1
 461 199 l 2,17,18
 471 199 471 199 476 192.5 c 128,-1,19
 481 186 481 186 480.5 179.5 c 128,-1,20
 480 173 480 173 474.5 167 c 128,-1,21
 469 161 469 161 459 161 c 0,22,23
 416 161 416 161 379 161.5 c 128,-1,24
 342 162 342 162 308 162 c 256,25,26
 274 162 274 162 241 162.5 c 128,-1,27
 208 163 208 163 171 163 c 1,28,29
 162 132 162 132 168.5 107.5 c 128,-1,30
 175 83 175 83 191.5 66.5 c 128,-1,31
 208 50 208 50 232 44 c 128,-1,32
 256 38 256 38 281 44.5 c 128,-1,33
 306 51 306 51 329.5 71 c 128,-1,34
 353 91 353 91 370 128 c 1,35,-1
 425 128 l 1,36,37
 425 127 425 127 424.5 126.5 c 128,-1,38
 424 126 424 126 424 125 c 0,39,40
 429 123 429 123 432 119 c 0,41,42
 454 69 454 69 486.5 51 c 128,-1,43
 519 33 519 33 550.5 40 c 128,-1,44
 582 47 582 47 607 74.5 c 128,-1,45
 632 102 632 102 638 142 c 1,46,-1
 711 142 l 1,47,48
 711 107 711 107 693.5 79.5 c 128,-1,49
 676 52 676 52 648.5 33 c 128,-1,50
 621 14 621 14 586.5 5 c 128,-1,51
 552 -4 552 -4 517 -1 c 128,-1,52
 482 2 482 2 450.5 18 c 128,-1,53
 419 34 419 34 397 65 c 1,54,55
 375 35 375 35 344.5 19.5 c 128,-1,56
 314 4 314 4 281 1 c 128,-1,57
 248 -2 248 -2 215.5 7 c 128,-1,58
 183 16 183 16 159 36.5 c 128,-1,59
 135 57 135 57 123 88.5 c 128,-1,60
 111 120 111 120 117 161 c 1,61,-1
 111 161 l 1,62,-1
 92 162 l 2,63,64
 84 162 84 162 76.5 161.5 c 128,-1,65
 69 161 69 161 60 161 c 2,66,-1
 39 161 l 2,67,68
 29 161 29 161 23.5 167 c 128,-1,69
 18 173 18 173 18 179 c 0,70,71
 18 186 18 186 23.5 192.5 c 128,-1,72
 29 199 29 199 39 199 c 2,73,-1
 105 199 l 1,74,-1
 111 199 l 2,75,76
 167 199 167 199 198 205 c 128,-1,77
 229 211 229 211 245.5 220 c 128,-1,78
 262 229 262 229 270 241 c 128,-1,79
 278 253 278 253 288 264 c 1,80,-1
 287 264 l 1,81,82
 287 304 287 304 273.5 329 c 128,-1,83
 260 354 260 354 240.5 363 c 128,-1,84
 221 372 221 372 199.5 364.5 c 128,-1,85
 178 357 178 357 162 334 c 1,86,87
 195 339 195 339 219.5 328.5 c 128,-1,88
 244 318 244 318 242 301 c 2,89,90
 242 301 242 301 242 300 c 2,91,92
 242 300 242 300 241 299 c 1,93,-1
 242 299 l 1,94,95
 242 271 242 271 219.5 254.5 c 128,-1,96
 197 238 197 238 168.5 232 c 128,-1,97
 140 226 140 226 115 232.5 c 128,-1,98
 90 239 90 239 85 259 c 1,0,-1
518 372 m 1,99,-1
 492 371 l 2,100,101
 481 371 481 371 477 376.5 c 128,-1,102
 473 382 473 382 474.5 389 c 128,-1,103
 476 396 476 396 482.5 402 c 128,-1,104
 489 408 489 408 500 408 c 0,105,106
 532 408 532 408 568.5 384.5 c 128,-1,107
 605 361 605 361 637 324 c 128,-1,108
 669 287 669 287 690.5 240 c 128,-1,109
 712 193 712 193 712 143 c 1,110,-1
 639 143 l 1,111,112
 639 183 639 183 629.5 221 c 128,-1,113
 620 259 620 259 603 290 c 128,-1,114
 586 321 586 321 564 342.5 c 128,-1,115
 542 364 542 364 518 372 c 1,99,-1
143 290 m 0,116,117
 141 285 141 285 140.5 280 c 128,-1,118
 140 275 140 275 139 270 c 0,119,120
 150 257 150 257 166.5 263.5 c 128,-1,121
 183 270 183 270 188 296 c 1,122,-1
 189 296 l 1,123,124
 181 309 181 309 167.5 309.5 c 128,-1,125
 154 310 154 310 143 290 c 0,116,117
92 251 m 1,126,-1
 93 250 l 1,127,128
 93 251 93 251 92 251 c 1,126,-1
EndSplineSet
Ligature2: "'akhn' Akhand lookup 0 subtable" u11326 u1134D u11327
EndChar

StartChar: uE109
Encoding: 57609 57609 44
Width: 1024
GlyphClass: 2
Flags: W
LayerCount: 2
Fore
SplineSet
441 -118 m 0,0,1
 441 -111 441 -111 446.5 -107 c 128,-1,2
 452 -103 452 -103 458 -103.5 c 128,-1,3
 464 -104 464 -104 469 -108 c 128,-1,4
 474 -112 474 -112 474 -119 c 0,5,6
 474 -166 474 -166 503 -193 c 128,-1,7
 532 -220 532 -220 572 -234 c 128,-1,8
 612 -248 612 -248 652.5 -251.5 c 128,-1,9
 693 -255 693 -255 717 -255 c 0,10,11
 769 -255 769 -255 806.5 -240.5 c 128,-1,12
 844 -226 844 -226 867 -203.5 c 128,-1,13
 890 -181 890 -181 898 -153.5 c 128,-1,14
 906 -126 906 -126 899 -101 c 128,-1,15
 892 -76 892 -76 870 -56 c 128,-1,16
 848 -36 848 -36 810 -28 c 1,17,-1
 810 -46 l 1,18,-1
 810 -48 l 2,19,20
 810 -57 810 -57 809.5 -80 c 128,-1,21
 809 -103 809 -103 802 -127.5 c 128,-1,22
 795 -152 795 -152 777 -170 c 128,-1,23
 759 -188 759 -188 724 -188 c 2,24,-1
 721 -188 l 2,25,26
 674 -187 674 -187 642 -175 c 128,-1,27
 610 -163 610 -163 591.5 -143.5 c 128,-1,28
 573 -124 573 -124 567.5 -101 c 128,-1,29
 562 -78 562 -78 569.5 -56 c 128,-1,30
 577 -34 577 -34 594.5 -16 c 128,-1,31
 612 2 612 2 641 11 c 1,32,33
 636 33 636 33 616 53 c 128,-1,34
 596 73 596 73 568.5 85.5 c 128,-1,35
 541 98 541 98 509 100 c 128,-1,36
 477 102 477 102 449 88 c 1,37,38
 485 84 485 84 502 60 c 128,-1,39
 519 36 519 36 517.5 8.5 c 128,-1,40
 516 -19 516 -19 495.5 -41 c 128,-1,41
 475 -63 475 -63 436 -63 c 0,42,43
 400 -63 400 -63 380.5 -44 c 128,-1,44
 361 -25 361 -25 356 0 c 1,45,46
 329 -16 329 -16 298.5 -25 c 128,-1,47
 268 -34 268 -34 219 -36 c 1,48,-1
 219 4 l 1,49,50
 268 4 268 4 301 19.5 c 128,-1,51
 334 35 334 35 354 55 c 1,52,-1
 376 71 l 2,53,54
 378 73 378 73 382 73 c 0,55,56
 413 107 413 107 448 120.5 c 128,-1,57
 483 134 483 134 518.5 133 c 128,-1,58
 554 132 554 132 586 119 c 128,-1,59
 618 106 618 106 643 86 c 1,60,-1
 643 115 l 1,61,-1
 643 116 l 1,62,-1
 643 134 l 1,63,-1
 841 134 l 2,64,65
 860 134 860 134 869.5 127.5 c 128,-1,66
 879 121 879 121 878.5 112 c 128,-1,67
 878 103 878 103 867 96.5 c 128,-1,68
 856 90 856 90 835 90 c 2,69,-1
 810 90 l 1,70,-1
 810 15 l 1,71,72
 868 10 868 10 904.5 -14.5 c 128,-1,73
 941 -39 941 -39 955.5 -73.5 c 128,-1,74
 970 -108 970 -108 962 -146 c 128,-1,75
 954 -184 954 -184 924.5 -216.5 c 128,-1,76
 895 -249 895 -249 844 -270.5 c 128,-1,77
 793 -292 793 -292 720 -292 c 2,78,-1
 719 -292 l 1,79,-1
 718 -292 l 2,80,81
 673 -292 673 -292 623 -282.5 c 128,-1,82
 573 -273 573 -273 532.5 -252.5 c 128,-1,83
 492 -232 492 -232 465.5 -199 c 128,-1,84
 439 -166 439 -166 441 -118 c 0,0,1
394 240 m 1,85,-1
 393 240 l 1,86,87
 393 232 393 232 383.5 228.5 c 128,-1,88
 374 225 374 225 362 226 c 128,-1,89
 350 227 350 227 340.5 232 c 128,-1,90
 331 237 331 237 331 244 c 0,91,92
 331 290 331 290 310 319.5 c 128,-1,93
 289 349 289 349 259.5 362 c 128,-1,94
 230 375 230 375 199 371 c 128,-1,95
 168 367 168 367 146 344 c 1,96,97
 161 343 161 343 176 337.5 c 128,-1,98
 191 332 191 332 203.5 321.5 c 128,-1,99
 216 311 216 311 223.5 296.5 c 128,-1,100
 231 282 231 282 231 263 c 0,101,102
 231 261 231 261 229 259 c 0,103,104
 227 236 227 236 214.5 222.5 c 128,-1,105
 202 209 202 209 183.5 203.5 c 128,-1,106
 165 198 165 198 143.5 199.5 c 128,-1,107
 122 201 122 201 103 208 c 128,-1,108
 84 215 84 215 69.5 228.5 c 128,-1,109
 55 242 55 242 51 259 c 0,110,111
 48 262 48 262 48 266 c 0,112,113
 48 307 48 307 65.5 336 c 128,-1,114
 83 365 83 365 111 381.5 c 128,-1,115
 139 398 139 398 174.5 402.5 c 128,-1,116
 210 407 210 407 245 400 c 128,-1,117
 280 393 280 393 311.5 375 c 128,-1,118
 343 357 343 357 364 330 c 1,119,120
 380 364 380 364 408 381.5 c 128,-1,121
 436 399 436 399 468.5 404.5 c 128,-1,122
 501 410 501 410 534 402 c 128,-1,123
 567 394 567 394 594.5 376.5 c 128,-1,124
 622 359 622 359 639.5 332.5 c 128,-1,125
 657 306 657 306 658 272 c 1,126,-1
 657 272 l 1,127,128
 656 238 656 238 629 214 c 128,-1,129
 602 190 602 190 561 174.5 c 128,-1,130
 520 159 520 159 471.5 149.5 c 128,-1,131
 423 140 423 140 379 135.5 c 128,-1,132
 335 131 335 131 302 130.5 c 128,-1,133
 269 130 269 130 259 131 c 0,134,135
 190 115 190 115 159 96.5 c 128,-1,136
 128 78 128 78 126.5 61 c 128,-1,137
 125 44 125 44 149.5 29.5 c 128,-1,138
 174 15 174 15 217 6 c 1,139,-1
 217 -36 l 1,140,141
 173 -36 173 -36 138.5 -24 c 128,-1,142
 104 -12 104 -12 83.5 6.5 c 128,-1,143
 63 25 63 25 59.5 48.5 c 128,-1,144
 56 72 56 72 72.5 94.5 c 128,-1,145
 89 117 89 117 128.5 137 c 128,-1,146
 168 157 168 157 234 169 c 0,147,148
 239 171 239 171 245 172.5 c 128,-1,149
 251 174 251 174 260 174 c 2,150,-1
 282 174 l 1,151,-1
 287 174 l 2,152,153
 434 176 434 176 506 201 c 128,-1,154
 578 226 578 226 580 276 c 0,155,156
 579 295 579 295 564 312 c 128,-1,157
 549 329 549 329 528 338 c 128,-1,158
 507 347 507 347 482.5 347.5 c 128,-1,159
 458 348 458 348 438 337.5 c 128,-1,160
 418 327 418 327 405 303.5 c 128,-1,161
 392 280 392 280 394 240 c 1,85,-1
666 -19 m 1,162,-1
 666 -18 l 1,163,164
 631 -26 631 -26 616 -46.5 c 128,-1,165
 601 -67 601 -67 607 -88 c 128,-1,166
 613 -109 613 -109 642 -124.5 c 128,-1,167
 671 -140 671 -140 724 -140 c 0,168,169
 735 -140 735 -140 740.5 -134 c 128,-1,170
 746 -128 746 -128 748.5 -118 c 128,-1,171
 751 -108 751 -108 750.5 -96 c 128,-1,172
 750 -84 750 -84 749 -72 c 2,173,-1
 749 -19 l 1,174,-1
 666 -19 l 1,162,-1
436 49 m 0,175,176
 421 49 421 49 410 42 c 2,177,-1
 407 40 l 2,178,179
 405 37 405 37 395 30 c 1,180,181
 384 12 384 12 393.5 -8 c 128,-1,182
 403 -28 403 -28 436 -28 c 0,183,184
 459 -28 459 -28 470 -15.5 c 128,-1,185
 481 -3 481 -3 481 10 c 0,186,187
 481 24 481 24 470 36.5 c 128,-1,188
 459 49 459 49 436 49 c 0,175,176
749 90 m 1,189,190
 732 90 732 90 717 90.5 c 128,-1,191
 702 91 702 91 688 91 c 1,192,-1
 688 17 l 1,193,-1
 749 17 l 1,194,-1
 749 90 l 1,189,190
125 265 m 0,195,196
 125 252 125 252 132.5 244.5 c 128,-1,197
 140 237 140 237 149.5 235.5 c 128,-1,198
 159 234 159 234 168 240 c 128,-1,199
 177 246 177 246 180 259 c 2,200,-1
 180 263 l 2,201,202
 180 279 180 279 171.5 288.5 c 128,-1,203
 163 298 163 298 152 299 c 128,-1,204
 141 300 141 300 132.5 293 c 128,-1,205
 124 286 124 286 124 269 c 0,206,207
 124 268 124 268 124.5 267 c 128,-1,208
 125 266 125 266 125 265 c 0,195,196
EndSplineSet
Ligature2: "'akhn' Akhand lookup 0 subtable" u1131C u1134D u1131E
EndChar

StartChar: uE10A
Encoding: 57610 57610 45
Width: 859
GlyphClass: 2
Flags: W
LayerCount: 2
Fore
SplineSet
31 220 m 2,0,-1
 31 221 l 1,1,-1
 30 221 l 1,2,3
 36 271 36 271 57 306 c 128,-1,4
 78 341 78 341 108 362 c 128,-1,5
 138 383 138 383 174.5 391 c 128,-1,6
 211 399 211 399 247 396.5 c 128,-1,7
 283 394 283 394 316 382 c 128,-1,8
 349 370 349 370 374 349 c 1,9,-1
 374 412 l 1,10,-1
 578 412 l 2,11,12
 589 412 589 412 594.5 405.5 c 128,-1,13
 600 399 600 399 600 392 c 256,14,15
 600 385 600 385 594.5 379 c 128,-1,16
 589 373 589 373 578 373 c 2,17,-1
 552 373 l 1,18,-1
 552 296 l 1,19,20
 584 291 584 291 611.5 278.5 c 128,-1,21
 639 266 639 266 659 248.5 c 128,-1,22
 679 231 679 231 690.5 210 c 128,-1,23
 702 189 702 189 702 168 c 1,24,-1
 641 168 l 1,25,26
 641 195 641 195 618.5 218.5 c 128,-1,27
 596 242 596 242 553 250 c 1,28,29
 555 227 555 227 556.5 198.5 c 128,-1,30
 558 170 558 170 550.5 144.5 c 128,-1,31
 543 119 543 119 522.5 101.5 c 128,-1,32
 502 84 502 84 460 84 c 1,33,-1
 460 139 l 1,34,35
 476 139 476 139 484 149.5 c 128,-1,36
 492 160 492 160 493.5 176.5 c 128,-1,37
 495 193 495 193 493.5 212.5 c 128,-1,38
 492 232 492 232 490 253 c 1,39,-1
 399 253 l 1,40,41
 363 244 363 244 350 225 c 128,-1,42
 337 206 337 206 345 187 c 128,-1,43
 353 168 353 168 382 153.5 c 128,-1,44
 411 139 411 139 459 139 c 1,45,-1
 459 84 l 1,46,47
 398 84 398 84 359.5 109 c 128,-1,48
 321 134 321 134 308 168 c 128,-1,49
 295 202 295 202 309 236 c 128,-1,50
 323 270 323 270 365 288 c 1,51,52
 351 320 351 320 320 338.5 c 128,-1,53
 289 357 289 357 253 359.5 c 128,-1,54
 217 362 217 362 181 347.5 c 128,-1,55
 145 333 145 333 121 298 c 1,56,57
 143 300 143 300 163.5 296 c 128,-1,58
 184 292 184 292 201 282 c 128,-1,59
 218 272 218 272 229 256.5 c 128,-1,60
 240 241 240 241 240 219 c 0,61,62
 240 200 240 200 230.5 185 c 128,-1,63
 221 170 221 170 207 160.5 c 128,-1,64
 193 151 193 151 174 145.5 c 128,-1,65
 155 140 155 140 135 140 c 0,66,67
 116 140 116 140 97 145 c 128,-1,68
 78 150 78 150 63.5 160 c 128,-1,69
 49 170 49 170 40 185 c 128,-1,70
 31 200 31 200 31 220 c 2,0,-1
98 1 m 2,71,72
 90 1 90 1 85.5 7.5 c 128,-1,73
 81 14 81 14 81 22 c 128,-1,74
 81 30 81 30 85.5 36.5 c 128,-1,75
 90 43 90 43 98 43 c 2,76,-1
 425 43 l 2,77,78
 466 46 466 46 505 53 c 128,-1,79
 544 60 544 60 574 74.5 c 128,-1,80
 604 89 604 89 622.5 111.5 c 128,-1,81
 641 134 641 134 641 167 c 1,82,-1
 702 167 l 1,83,84
 702 118 702 118 675 88.5 c 128,-1,85
 648 59 648 59 602 43 c 1,86,-1
 768 43 l 1,87,88
 764 48 764 48 764 54 c 2,89,-1
 764 392 l 2,90,91
 764 402 764 402 773 408 c 128,-1,92
 782 414 782 414 794 414.5 c 128,-1,93
 806 415 806 415 815 409.5 c 128,-1,94
 824 404 824 404 824 394 c 0,95,96
 824 311 824 311 824.5 224 c 128,-1,97
 825 137 825 137 825 54 c 0,98,99
 825 46 825 46 824 39 c 2,100,101
 824 39 824 39 824 32 c 0,102,103
 828 20 828 20 823 10.5 c 128,-1,104
 818 1 818 1 804 1 c 2,105,-1
 98 1 l 2,71,72
92 219 m 0,106,107
 92 199 92 199 107 188 c 128,-1,108
 122 177 122 177 140.5 176.5 c 128,-1,109
 159 176 159 176 174 186 c 128,-1,110
 189 196 189 196 190 217 c 2,111,-1
 190 219 l 1,112,-1
 190 220 l 2,113,114
 189 242 189 242 174 252 c 128,-1,115
 159 262 159 262 140.5 261 c 128,-1,116
 122 260 122 260 107 249 c 128,-1,117
 92 238 92 238 92 219 c 0,106,107
423 373 m 1,118,-1
 423 298 l 1,119,-1
 490 298 l 1,120,-1
 490 373 l 1,121,-1
 423 373 l 1,118,-1
EndSplineSet
Ligature2: "'akhn' Akhand lookup 0 subtable" u1131E u1134D u1131A
EndChar

StartChar: uE10B
Encoding: 57611 57611 46
Width: 736
GlyphClass: 2
Flags: W
LayerCount: 2
Fore
SplineSet
94 206 m 0,0,1
 94 182 94 182 108 170 c 128,-1,2
 122 158 122 158 138 158 c 256,3,4
 154 158 154 158 168 170 c 128,-1,5
 182 182 182 182 182 206 c 1,6,-1
 244 206 l 1,7,8
 244 178 244 178 228.5 159.5 c 128,-1,9
 213 141 213 141 190.5 131.5 c 128,-1,10
 168 122 168 122 141 121.5 c 128,-1,11
 114 121 114 121 90.5 129 c 128,-1,12
 67 137 67 137 50.5 154.5 c 128,-1,13
 34 172 34 172 32 199 c 0,14,15
 30 205 30 205 30 206 c 0,16,17
 22 266 22 266 31.5 307 c 128,-1,18
 41 348 41 348 62 372 c 128,-1,19
 83 396 83 396 113 404.5 c 128,-1,20
 143 413 143 413 175.5 407 c 128,-1,21
 208 401 208 401 239.5 383 c 128,-1,22
 271 365 271 365 297 336 c 1,23,-1
 297 392 l 2,24,25
 297 401 297 401 309 404 c 1,26,27
 315 412 315 412 327 413 c 2,28,-1
 594 413 l 2,29,30
 603 413 603 413 608 405 c 128,-1,31
 613 397 613 397 613 388 c 0,32,33
 613 380 613 380 608 372.5 c 128,-1,34
 603 365 603 365 594 365 c 2,35,-1
 516 365 l 1,36,-1
 516 261 l 1,37,38
 545 274 545 274 578 273 c 128,-1,39
 611 272 611 272 639.5 257.5 c 128,-1,40
 668 243 668 243 686.5 215 c 128,-1,41
 705 187 705 187 705 147 c 1,42,-1
 701 147 l 1,43,44
 700 120 700 120 680 99.5 c 128,-1,45
 660 79 660 79 628.5 63 c 128,-1,46
 597 47 597 47 557 36 c 128,-1,47
 517 25 517 25 475 17.5 c 128,-1,48
 433 10 433 10 393.5 6.5 c 128,-1,49
 354 3 354 3 324 2 c 0,50,51
 316 0 316 0 313 0 c 0,52,53
 226 -19 226 -19 182 -45 c 128,-1,54
 138 -71 138 -71 133.5 -94 c 128,-1,55
 129 -117 129 -117 161 -132 c 128,-1,56
 193 -147 193 -147 257 -146 c 1,57,-1
 257 -205 l 1,58,-1
 259 -143 l 1,59,60
 287 -144 287 -144 311 -136.5 c 128,-1,61
 335 -129 335 -129 355 -117.5 c 128,-1,62
 375 -106 375 -106 391.5 -93.5 c 128,-1,63
 408 -81 408 -81 420 -72 c 2,64,-1
 425 -68 l 2,65,66
 454 -41 454 -41 487.5 -25.5 c 128,-1,67
 521 -10 521 -10 554.5 -5.5 c 128,-1,68
 588 -1 588 -1 619.5 -5.5 c 128,-1,69
 651 -10 651 -10 675.5 -23.5 c 128,-1,70
 700 -37 700 -37 715.5 -57.5 c 128,-1,71
 731 -78 731 -78 732 -103 c 1,72,-1
 731 -103 l 1,73,-1
 731 -104 l 1,74,75
 732 -104 732 -104 732 -105 c 0,76,77
 727 -138 727 -138 700 -160.5 c 128,-1,78
 673 -183 673 -183 639 -194.5 c 128,-1,79
 605 -206 605 -206 572 -206.5 c 128,-1,80
 539 -207 539 -207 522 -196 c 1,81,82
 507 -196 507 -196 500 -188.5 c 128,-1,83
 493 -181 493 -181 493.5 -173 c 128,-1,84
 494 -165 494 -165 501.5 -158 c 128,-1,85
 509 -151 509 -151 524 -151 c 1,86,87
 547 -163 547 -163 570 -164 c 128,-1,88
 593 -165 593 -165 612.5 -158 c 128,-1,89
 632 -151 632 -151 645 -136.5 c 128,-1,90
 658 -122 658 -122 662 -103 c 1,91,-1
 658 -103 l 1,92,93
 661 -90 661 -90 652 -75 c 128,-1,94
 643 -60 643 -60 622.5 -52.5 c 128,-1,95
 602 -45 602 -45 570.5 -49.5 c 128,-1,96
 539 -54 539 -54 498 -79 c 2,97,-1
 468 -95 l 1,98,99
 446 -113 446 -113 423.5 -132.5 c 128,-1,100
 401 -152 401 -152 376 -167.5 c 128,-1,101
 351 -183 351 -183 321.5 -193.5 c 128,-1,102
 292 -204 292 -204 257 -205 c 0,103,104
 202 -208 202 -208 160 -193.5 c 128,-1,105
 118 -179 118 -179 95 -155.5 c 128,-1,106
 72 -132 72 -132 69.5 -103 c 128,-1,107
 67 -74 67 -74 90 -45.5 c 128,-1,108
 113 -17 113 -17 164 5.5 c 128,-1,109
 215 28 215 28 299 38 c 1,110,-1
 334 40 l 1,111,-1
 340 40 l 1,112,113
 413 47 413 47 464 57.5 c 128,-1,114
 515 68 515 68 549 81 c 128,-1,115
 583 94 583 94 601.5 110 c 128,-1,116
 620 126 620 126 627 144 c 1,117,-1
 664 147 l 1,118,-1
 628 147 l 1,119,120
 628 181 628 181 615.5 202 c 128,-1,121
 603 223 603 223 585 230 c 128,-1,122
 567 237 567 237 548 228.5 c 128,-1,123
 529 220 529 220 516 195 c 1,124,-1
 516 177 l 2,125,126
 516 166 516 166 504.5 160.5 c 128,-1,127
 493 155 493 155 478 155 c 0,128,129
 464 155 464 155 452 160.5 c 128,-1,130
 440 166 440 166 440 177 c 2,131,-1
 440 365 l 1,132,-1
 357 365 l 1,133,-1
 357 142 l 2,134,135
 354 135 354 135 344.5 132 c 128,-1,136
 335 129 335 129 324 129.5 c 128,-1,137
 313 130 313 130 305 134 c 128,-1,138
 297 138 297 138 297 144 c 2,139,-1
 297 172 l 2,140,141
 296 173 296 173 296 177 c 0,142,143
 296 230 296 230 280 268.5 c 128,-1,144
 264 307 264 307 240.5 330 c 128,-1,145
 217 353 217 353 189 361.5 c 128,-1,146
 161 370 161 370 137 363 c 128,-1,147
 113 356 113 356 96.5 334.5 c 128,-1,148
 80 313 80 313 79 279 c 1,149,150
 102 291 102 291 130.5 292 c 128,-1,151
 159 293 159 293 184 283.5 c 128,-1,152
 209 274 209 274 226.5 254 c 128,-1,153
 244 234 244 234 244 206 c 1,154,-1
 182 206 l 1,155,156
 182 232 182 232 168.5 244 c 128,-1,157
 155 256 155 256 138 256 c 0,158,159
 122 256 122 256 108 244 c 128,-1,160
 94 232 94 232 94 206 c 0,0,1
EndSplineSet
Ligature2: "'akhn' Akhand lookup 0 subtable" u1131E u1134D u1131C
EndChar

StartChar: uE10C
Encoding: 57612 57612 47
Width: 1050
GlyphClass: 2
Flags: W
LayerCount: 2
Fore
SplineSet
383 60 m 1,0,-1
 396 44 l 1,1,-1
 411 56 l 1,2,-1
 396 45 l 1,3,4
 390 55 390 55 385 74.5 c 128,-1,5
 380 94 380 94 378 117.5 c 128,-1,6
 376 141 376 141 377.5 165 c 128,-1,7
 379 189 379 189 386 210 c 1,8,-1
 337 210 l 1,9,-1
 337 175 l 1,10,-1
 336 175 l 1,11,12
 339 117 339 117 325.5 75.5 c 128,-1,13
 312 34 312 34 291.5 16 c 128,-1,14
 271 -2 271 -2 247 6 c 128,-1,15
 223 14 223 14 204 56 c 1,16,17
 189 18 189 18 160 8.5 c 128,-1,18
 131 -1 131 -1 102.5 9.5 c 128,-1,19
 74 20 74 20 51.5 47 c 128,-1,20
 29 74 29 74 24.5 107.5 c 128,-1,21
 20 141 20 141 41 177.5 c 128,-1,22
 62 214 62 214 122 245 c 1,23,-1
 122 380 l 2,24,25
 122 384 122 384 126 389 c 0,26,27
 128 395 128 395 134 400.5 c 128,-1,28
 140 406 140 406 152 406 c 2,29,-1
 360 406 l 2,30,31
 374 405 374 405 380 397.5 c 128,-1,32
 386 390 386 390 385.5 382 c 128,-1,33
 385 374 385 374 378 367 c 128,-1,34
 371 360 371 360 359 360 c 2,35,-1
 337 360 l 1,36,-1
 337 255 l 1,37,-1
 450 255 l 2,38,39
 452 255 452 255 458 253 c 0,40,41
 530 251 530 251 574 230 c 128,-1,42
 618 209 618 209 638.5 178.5 c 128,-1,43
 659 148 659 148 656.5 113.5 c 128,-1,44
 654 79 654 79 632 49 c 1,45,-1
 824 49 l 1,46,-1
 824 202 l 1,47,48
 795 203 795 203 769.5 208.5 c 128,-1,49
 744 214 744 214 725 225.5 c 128,-1,50
 706 237 706 237 694.5 253 c 128,-1,51
 683 269 683 269 683 293 c 0,52,53
 683 327 683 327 698 352.5 c 128,-1,54
 713 378 713 378 735.5 392.5 c 128,-1,55
 758 407 758 407 785 408.5 c 128,-1,56
 812 410 812 410 835.5 396.5 c 128,-1,57
 859 383 859 383 876 352 c 128,-1,58
 893 321 893 321 896 270 c 0,59,60
 899 265 899 265 899 262 c 2,61,-1
 899 253 l 1,62,63
 913 258 913 258 931 270 c 1,64,65
 933 284 933 284 944.5 290.5 c 128,-1,66
 956 297 956 297 970 295.5 c 128,-1,67
 984 294 984 294 995 286.5 c 128,-1,68
 1006 279 1006 279 1006 266 c 2,69,-1
 1006 27 l 2,70,71
 1006 19 1006 19 997 12 c 0,72,73
 986 4 986 4 968 4 c 2,74,-1
 899 4 l 1,75,-1
 899 -89 l 2,76,77
 899 -101 899 -101 887.5 -107.5 c 128,-1,78
 876 -114 876 -114 861 -114 c 0,79,80
 848 -114 848 -114 836 -107.5 c 128,-1,81
 824 -101 824 -101 824 -89 c 2,82,-1
 824 4 l 1,83,-1
 580 4 l 1,84,85
 569 -1 569 -1 558.5 3 c 128,-1,86
 548 7 548 7 542.5 15 c 128,-1,87
 537 23 537 23 537.5 32 c 128,-1,88
 538 41 538 41 549 47 c 0,89,90
 581 63 581 63 597 88 c 128,-1,91
 613 113 613 113 609 137.5 c 128,-1,92
 605 162 605 162 578 181.5 c 128,-1,93
 551 201 551 201 496 207 c 1,94,95
 506 182 506 182 509 151.5 c 128,-1,96
 512 121 512 121 508 92 c 128,-1,97
 504 63 504 63 493.5 40 c 128,-1,98
 483 17 483 17 467.5 9 c 128,-1,99
 452 1 452 1 430.5 11.5 c 128,-1,100
 409 22 409 22 383 60 c 1,0,-1
170 134 m 1,101,-1
 170 152 l 1,102,103
 174 163 174 163 182.5 165.5 c 128,-1,104
 191 168 191 168 200 165 c 1,105,106
 209 167 209 167 216 165.5 c 128,-1,107
 223 164 223 164 225 156 c 0,108,109
 234 101 234 101 245 78 c 128,-1,110
 256 55 256 55 263.5 60 c 128,-1,111
 271 65 271 65 273 95 c 128,-1,112
 275 125 275 125 266 175 c 1,113,-1
 265 175 l 1,114,-1
 265 210 l 1,115,-1
 162 210 l 1,116,117
 107 184 107 184 88.5 156 c 128,-1,118
 70 128 70 128 73 104.5 c 128,-1,119
 76 81 76 81 94.5 66 c 128,-1,120
 113 51 113 51 131 51 c 0,121,122
 150 51 150 51 163.5 70 c 128,-1,123
 177 89 177 89 170 134 c 1,101,-1
183 360 m 1,124,-1
 183 255 l 1,125,-1
 265 255 l 1,126,-1
 265 360 l 1,127,-1
 183 360 l 1,124,-1
739 293 m 0,128,129
 739 267 739 267 764.5 254 c 128,-1,130
 790 241 790 241 824 240 c 1,131,-1
 824 262 l 2,132,133
 824 267 824 267 825 268 c 1,134,-1
 824 269 l 1,135,136
 828 315 828 315 815 335.5 c 128,-1,137
 802 356 802 356 783 356 c 0,138,139
 766 356 766 356 751.5 339 c 128,-1,140
 737 322 737 322 739 293 c 0,128,129
425 69 m 1,141,-1
 427 70 l 1,142,-1
 425 68 l 1,143,144
 441 53 441 53 452 56 c 128,-1,145
 463 59 463 59 468.5 73 c 128,-1,146
 474 87 474 87 475 108.5 c 128,-1,147
 476 130 476 130 472.5 150 c 128,-1,148
 469 170 469 170 461 186 c 128,-1,149
 453 202 453 202 440 205 c 1,150,151
 428 202 428 202 420.5 185 c 128,-1,152
 413 168 413 168 411 146.5 c 128,-1,153
 409 125 409 125 412.5 103 c 128,-1,154
 416 81 416 81 425 69 c 1,141,-1
931 215 m 1,155,156
 923 213 923 213 915 211.5 c 128,-1,157
 907 210 907 210 899 208 c 1,158,-1
 899 49 l 1,159,-1
 931 49 l 1,160,-1
 931 215 l 1,155,156
EndSplineSet
Ligature2: "'akhn' Akhand lookup 0 subtable" u11315 u1134D u11337
EndChar

StartChar: uE10D
Encoding: 57613 57613 48
Width: 659
GlyphClass: 2
Flags: W
LayerCount: 2
Fore
SplineSet
118 54 m 1,0,-1
 119 54 l 1,1,2
 119 46 119 46 110 42 c 128,-1,3
 101 38 101 38 90 38 c 0,4,5
 80 38 80 38 71 42 c 128,-1,6
 62 46 62 46 62 54 c 2,7,-1
 62 389 l 2,8,9
 62 399 62 399 75 404 c 1,10,11
 81 412 81 412 93 413 c 2,12,-1
 346 413 l 2,13,14
 356 413 356 413 361.5 405.5 c 128,-1,15
 367 398 367 398 367 390 c 256,16,17
 367 382 367 382 361.5 375 c 128,-1,18
 356 368 356 368 346 368 c 2,19,-1
 272 368 l 1,20,-1
 272 271 l 1,21,22
 304 283 304 283 342 281.5 c 128,-1,23
 380 280 380 280 412 266.5 c 128,-1,24
 444 253 444 253 466 230 c 128,-1,25
 488 207 488 207 488 177 c 1,26,-1
 419 177 l 1,27,28
 419 200 419 200 398.5 217 c 128,-1,29
 378 234 378 234 352 239.5 c 128,-1,30
 326 245 326 245 302.5 233.5 c 128,-1,31
 279 222 279 222 272 188 c 1,32,-1
 272 176 l 2,33,34
 272 174 272 174 270 168 c 2,35,-1
 272 160 l 2,36,37
 271 148 271 148 259.5 142.5 c 128,-1,38
 248 137 248 137 234.5 138.5 c 128,-1,39
 221 140 221 140 210.5 147 c 128,-1,40
 200 154 200 154 200 165 c 2,41,-1
 200 173 l 1,42,-1
 200 176 l 1,43,-1
 200 368 l 1,44,-1
 118 368 l 1,45,-1
 118 54 l 1,0,-1
216 2 m 1,46,-1
 199 2 l 2,47,48
 181 2 181 2 178 22 c 0,49,50
 176 39 176 39 190 47 c 1,51,-1
 191 47 l 1,52,53
 191 48 191 48 193 48 c 0,54,55
 194 49 194 49 197 49 c 2,56,-1
 199 49 l 1,57,-1
 215 49 l 2,58,59
 252 50 252 50 288.5 57.5 c 128,-1,60
 325 65 325 65 353.5 79 c 128,-1,61
 382 93 382 93 400 117 c 128,-1,62
 418 141 418 141 418 176 c 1,63,-1
 487 176 l 1,64,65
 487 130 487 130 465.5 100 c 128,-1,66
 444 70 444 70 411 49 c 1,67,-1
 424 49 l 1,68,-1
 598 49 l 2,69,70
 607 49 607 49 611.5 42 c 128,-1,71
 616 35 616 35 616 26 c 256,72,73
 616 17 616 17 611.5 9.5 c 128,-1,74
 607 2 607 2 598 2 c 2,75,-1
 452 2 l 1,76,-1
 452 -95 l 2,77,78
 452 -106 452 -106 440.5 -112.5 c 128,-1,79
 429 -119 429 -119 416 -119 c 256,80,81
 403 -119 403 -119 391.5 -112.5 c 128,-1,82
 380 -106 380 -106 380 -95 c 2,83,-1
 380 2 l 1,84,-1
 216 2 l 1,46,-1
EndSplineSet
Ligature2: "'akhn' Akhand lookup 0 subtable" u11328 u1134D u11326
EndChar

StartChar: uE10E
Encoding: 57614 57614 49
Width: 982
GlyphClass: 3
Flags: W
LayerCount: 2
Fore
SplineSet
117 242.5 m 128,-1,1
 104 231 104 231 104 206 c 128,-1,2
 104 181 104 181 117 166.5 c 128,-1,3
 130 152 130 152 146 150 c 128,-1,4
 162 148 162 148 175 161.5 c 128,-1,5
 188 175 188 175 188 203 c 128,-1,6
 188 231 188 231 175 242.5 c 128,-1,7
 162 254 162 254 146 254 c 128,-1,0
 130 254 130 254 117 242.5 c 128,-1,1
263 144 m 0,8,9
 273 146 273 146 289 162 c 0,10,11
 316 190 316 190 316 237 c 1,12,-1
 318 237 l 1,13,14
 315 277 315 277 291.5 308.5 c 128,-1,15
 268 340 268 340 237 346.5 c 128,-1,16
 206 353 206 353 173 339.5 c 128,-1,17
 140 326 140 326 122 289 c 1,18,19
 164 298 164 298 204 276 c 128,-1,20
 244 254 244 254 244 213 c 128,-1,21
 244 172 244 172 229 150 c 0,22,23
 200 109 200 109 148 113 c 128,-1,24
 96 117 96 117 65 160 c 0,25,26
 48 183 48 183 48 201 c 128,-1,27
 48 219 48 219 50 222 c 2,28,-1
 50 225 l 2,29,30
 50 315 50 315 100.5 362 c 128,-1,31
 151 409 151 409 218.5 409 c 128,-1,32
 286 409 286 409 336 364 c 0,33,34
 360 343 360 343 375 306 c 0,35,36
 392 265 392 265 392 224 c 1,37,38
 387 176 387 176 354 144 c 1,39,-1
 508 144 l 1,40,-1
 508 312 l 2,41,42
 508 343 508 343 527 369 c 0,43,44
 542 390 542 390 572 401 c 256,45,46
 602 412 602 412 631 402.5 c 128,-1,47
 660 393 660 393 680 362 c 1,48,49
 720 406 720 406 784 410 c 0,50,51
 847 413 847 413 893 365.5 c 128,-1,52
 939 318 939 318 929 208 c 0,53,54
 924 154 924 154 862 99 c 1,55,56
 739 19 739 19 774 -39 c 0,57,58
 804 -89 804 -89 854 -64 c 0,59,60
 885 -49 885 -49 842 1 c 1,61,62
 841 34 841 34 850 37 c 0,63,64
 881 47 881 47 906 16 c 128,-1,65
 931 -15 931 -15 916 -46 c 0,66,67
 894 -91 894 -91 843.5 -103 c 128,-1,68
 793 -115 793 -115 740 -87 c 1,69,70
 707 -62 707 -62 706.5 -31 c 128,-1,71
 706 0 706 0 722 28 c 1,72,-1
 798 124 l 2,73,74
 843 181 843 181 850 210 c 1,75,-1
 850 212 l 2,76,77
 850 280 850 280 830 315.5 c 128,-1,78
 810 351 810 351 784 359.5 c 128,-1,79
 758 368 758 368 733 351.5 c 128,-1,80
 708 335 708 335 700 299 c 1,81,-1
 702 265 l 1,82,-1
 704 265 l 1,83,-1
 704 120 l 2,84,85
 704 109 704 109 693 102.5 c 128,-1,86
 682 96 682 96 669 96 c 128,-1,87
 656 96 656 96 645 102.5 c 128,-1,88
 634 109 634 109 634 120 c 2,89,-1
 632 251 l 1,90,-1
 632 263 l 2,91,92
 632 292 632 292 621 310 c 0,93,94
 598 347 598 347 574 327 c 1,95,-1
 564 304 l 1,96,-1
 564 118 l 1,97,98
 558 96 558 96 532 96 c 0,99,100
 529 96 529 96 526 96 c 2,101,-1
 257 96 l 2,102,103
 249 96 249 96 246 110 c 128,-1,104
 243 124 243 124 248 134 c 0,105,106
 255 142 255 142 263 144 c 0,8,9
EndSplineSet
Ligature2: "'akhn' Akhand lookup 0 subtable" u11339 u1134D u1132E
EndChar

StartChar: uE10F
Encoding: 57615 57615 50
Width: 612
GlyphClass: 2
Flags: W
LayerCount: 2
Fore
SplineSet
400 242 m 1,0,1
 407 180 407 180 397 151 c 0,2,3
 390 124 390 124 379 112 c 128,-1,4
 368 100 368 100 356 85.5 c 128,-1,5
 344 71 344 71 305 67 c 1,6,7
 239 67 239 67 208.5 86.5 c 128,-1,8
 178 106 178 106 157 127 c 128,-1,9
 136 148 136 148 130 176.5 c 128,-1,10
 124 205 124 205 127 220 c 0,11,12
 133 248 133 248 217 283 c 1,13,-1
 217 390 l 2,14,15
 217 404 217 404 236 410 c 1,16,-1
 236 413 l 1,17,-1
 424 413 l 2,18,19
 434 413 434 413 440 405.5 c 128,-1,20
 446 398 446 398 446 389 c 256,21,22
 446 380 446 380 440 373 c 128,-1,23
 434 366 434 366 424 366 c 2,24,-1
 400 366 l 1,25,-1
 400 289 l 1,26,27
 449 287 449 287 589 289 c 1,28,-1
 589 245 l 1,29,-1
 543 244 l 1,30,-1
 542 78 l 1,31,32
 524 10 524 10 468 -26 c 0,33,34
 393 -75 393 -75 311 -72 c 128,-1,35
 229 -69 229 -69 128 -14 c 0,36,37
 106 -2 106 -2 22 86 c 0,38,39
 0 108 0 108 -8 128 c 0,40,41
 -17 148 -17 148 -8 155 c 0,42,43
 3 162 3 162 22 148 c 2,44,-1
 130 43 l 1,45,46
 207 -8 207 -8 263 -14 c 0,47,48
 355 -23 355 -23 423 12 c 0,49,50
 467 36 467 36 487 107 c 1,51,-1
 487 242 l 1,52,-1
 400 242 l 1,0,1
304 138 m 0,53,54
 326 161 326 161 341 199 c 0,55,56
 344 204 344 204 340.5 220 c 128,-1,57
 337 236 337 236 337 240 c 1,58,-1
 243 240 l 1,59,60
 189 223 189 223 186 215 c 0,61,62
 181 191 181 191 192 177 c 0,63,64
 214 152 214 152 218 150 c 0,65,66
 249 133 249 133 257 132 c 0,67,68
 298 132 298 132 304 138 c 0,53,54
268 366 m 1,69,-1
 268 290 l 1,70,-1
 337 290 l 1,71,-1
 337 366 l 1,72,-1
 268 366 l 1,69,-1
EndSplineSet
Ligature2: "'akhn' Akhand lookup 0 subtable" u11324 u1134D u11330
EndChar

StartChar: uE110
Encoding: 57616 57616 51
Width: 869
GlyphClass: 2
Flags: W
LayerCount: 2
Fore
SplineSet
497 119 m 1,0,1
 501 89 501 89 516 74 c 128,-1,2
 531 59 531 59 549 58 c 128,-1,3
 567 57 567 57 582.5 70 c 128,-1,4
 598 83 598 83 601 107 c 2,5,-1
 601 367 l 1,6,-1
 497 367 l 1,7,-1
 497 119 l 1,0,1
67 -28 m 0,8,9
 71 -29 71 -29 103 -42 c 0,10,11
 271 -99 271 -99 282 -101 c 0,12,13
 532 -145 532 -145 673 -58 c 0,14,15
 723 -27 723 -27 730 28 c 1,16,-1
 730 367 l 1,17,-1
 670 367 l 1,18,-1
 670 104 l 1,19,-1
 669 104 l 1,20,21
 660 38 660 38 601 15.5 c 128,-1,22
 542 -7 542 -7 490 28.5 c 128,-1,23
 438 64 438 64 442 138 c 1,24,-1
 443 138 l 1,25,-1
 443 367 l 1,26,-1
 401 366 l 2,27,28
 366 365 366 365 353 354 c 128,-1,29
 340 343 340 343 336.5 317 c 128,-1,30
 333 291 333 291 335.5 247.5 c 128,-1,31
 338 204 338 204 337 140 c 1,32,-1
 335 140 l 1,33,34
 334 96 334 96 314.5 66.5 c 128,-1,35
 295 37 295 37 267 22 c 128,-1,36
 239 7 239 7 206.5 6.5 c 128,-1,37
 174 6 174 6 146 21 c 0,38,39
 81 54 81 54 81 136 c 2,40,-1
 81 393 l 1,41,-1
 79 393 l 1,42,43
 79 401 79 401 87 405.5 c 128,-1,44
 95 410 95 410 104.5 410 c 128,-1,45
 114 410 114 410 122.5 405.5 c 128,-1,46
 131 401 131 401 131 393 c 2,47,-1
 131 140 l 2,48,49
 131 97 131 97 154 76.5 c 128,-1,50
 177 56 177 56 205 56 c 128,-1,51
 233 56 233 56 254 76.5 c 128,-1,52
 275 97 275 97 272 139 c 2,53,-1
 272 140 l 2,54,55
 272 208 272 208 271 258.5 c 128,-1,56
 270 309 270 309 281 343.5 c 128,-1,57
 292 378 292 378 319.5 396 c 128,-1,58
 347 414 347 414 404 415 c 2,59,-1
 812 415 l 2,60,61
 819 415 819 415 828.5 404.5 c 128,-1,62
 838 394 838 394 829.5 380.5 c 128,-1,63
 821 367 821 367 816 367 c 2,64,-1
 781 367 l 1,65,-1
 781 3 l 1,66,67
 762 -73 762 -73 646 -136 c 0,68,69
 588 -167 588 -167 476 -170 c 0,70,71
 332 -175 332 -175 241 -149 c 0,72,73
 156 -123 156 -123 50 -70 c 0,74,75
 38 -64 38 -64 36 -58 c 0,76,77
 -5 0 -5 0 18 -10 c 0,78,79
 39 -20 39 -20 67 -28 c 0,8,9
EndSplineSet
Ligature2: "'akhn' Akhand lookup 0 subtable" u11336 u1134D u11330
EndChar

StartChar: uE111
Encoding: 57617 57617 52
Width: 920
GlyphClass: 2
Flags: W
LayerCount: 2
Fore
SplineSet
139 57 m 1,0,1
 139 41 139 41 110.5 41 c 128,-1,2
 82 41 82 41 82 57 c 2,3,-1
 82 392 l 2,4,5
 82 402 82 402 95 407 c 1,6,7
 101 415 101 415 113 416 c 2,8,-1
 366 416 l 2,9,10
 376 416 376 416 381.5 408.5 c 128,-1,11
 387 401 387 401 387 393 c 256,12,13
 387 385 387 385 381.5 378 c 128,-1,14
 376 371 376 371 366 371 c 2,15,-1
 292 371 l 1,16,-1
 292 274 l 1,17,18
 324 286 324 286 362 284 c 0,19,20
 440 281 440 281 487 232 c 1,21,-1
 495 198 l 2,22,23
 504 170 504 170 491 130 c 1,24,-1
 492 129 l 1,25,26
 476 104 476 104 477 82 c 128,-1,27
 478 60 478 60 487.5 52 c 128,-1,28
 497 44 497 44 523 50 c 1,29,-1
 523 48 l 1,30,31
 533 48 533 48 550 60 c 0,32,33
 588 86 588 86 589.5 126.5 c 128,-1,34
 591 167 591 167 571 187 c 0,35,36
 568 190 568 190 578 199 c 0,37,38
 598 215 598 215 609 210 c 0,39,40
 632 198 632 198 640 171 c 0,41,42
 644 166 644 166 657.5 124.5 c 128,-1,43
 671 83 671 83 677 75 c 0,44,45
 701 48 701 48 726 49 c 128,-1,46
 751 50 751 50 769 78.5 c 128,-1,47
 787 107 787 107 783 163 c 2,48,-1
 778 198 l 1,49,50
 767 237 767 237 736 254 c 0,51,52
 720 262 720 262 698 261 c 2,53,-1
 670 264 l 1,54,55
 653 272 653 272 662 287 c 0,56,57
 670 301 670 301 693 301 c 128,-1,58
 716 301 716 301 743 289.5 c 128,-1,59
 770 278 770 278 792 260 c 0,60,61
 845 218 845 218 839 124 c 1,62,-1
 819 60 l 1,63,64
 794 22 794 22 758.5 11 c 128,-1,65
 723 0 723 0 685 15.5 c 128,-1,66
 647 31 647 31 621 72 c 1,67,68
 604 44 604 44 577.5 25 c 128,-1,69
 551 6 551 6 519 5 c 1,70,-1
 520 7 l 1,71,72
 467 6 467 6 445.5 20 c 128,-1,73
 424 34 424 34 413 63 c 128,-1,74
 402 92 402 92 426 122 c 0,75,76
 440 142 440 142 439.5 172.5 c 128,-1,77
 439 203 439 203 418.5 220 c 128,-1,78
 398 237 398 237 372 242.5 c 128,-1,79
 346 248 346 248 322.5 236.5 c 128,-1,80
 299 225 299 225 292 191 c 1,81,-1
 292 179 l 2,82,83
 292 177 292 177 290 171 c 2,84,-1
 292 163 l 2,85,86
 291 151 291 151 279.5 145.5 c 128,-1,87
 268 140 268 140 254.5 141.5 c 128,-1,88
 241 143 241 143 230.5 150 c 128,-1,89
 220 157 220 157 220 168 c 2,90,-1
 220 371 l 1,91,-1
 138 371 l 1,92,-1
 138 57 l 1,93,-1
 139 57 l 1,0,1
438 179 m 1024,94,-1
EndSplineSet
Ligature2: "'akhn' Akhand lookup 0 subtable" u11328 u1134D u11327
EndChar

StartChar: uE112
Encoding: 57618 57618 53
Width: 659
GlyphClass: 2
Flags: W
LayerCount: 2
Fore
SplineSet
114 69 m 1,0,1
 114 53 114 53 85.5 53 c 128,-1,2
 57 53 57 53 57 69 c 2,3,-1
 57 404 l 2,4,5
 57 414 57 414 70 419 c 1,6,7
 76 427 76 427 88 428 c 2,8,-1
 341 428 l 2,9,10
 351 428 351 428 356.5 420.5 c 128,-1,11
 362 413 362 413 362 405 c 128,-1,12
 362 397 362 397 356.5 390 c 128,-1,13
 351 383 351 383 341 383 c 2,14,-1
 267 383 l 1,15,-1
 267 286 l 1,16,17
 299 298 299 298 337 296.5 c 128,-1,18
 375 295 375 295 407 281.5 c 128,-1,19
 439 268 439 268 461.5 240 c 128,-1,20
 484 212 484 212 484 182 c 1,21,-1
 482 182 l 1,22,23
 478 110 478 110 406 64 c 1,24,-1
 550 64 l 1,25,-1
 550 273 l 2,26,27
 552 297 552 297 570 298 c 0,28,29
 600 300 600 300 603 277 c 2,30,-1
 603 15 l 1,31,-1
 211 16 l 1,32,-1
 211 17 l 1,33,-1
 194 17 l 2,34,35
 176 17 176 17 173.5 35.5 c 128,-1,36
 171 54 171 54 185 62 c 1,37,-1
 186 62 l 1,38,39
 186 64 186 64 192 64 c 2,40,-1
 210 64 l 1,41,42
 347 68 347 68 395 132 c 0,43,44
 410 152 410 152 413 180 c 1,45,-1
 412 180 l 1,46,47
 412 203 412 203 392.5 226 c 128,-1,48
 373 249 373 249 347 254.5 c 128,-1,49
 321 260 321 260 297.5 248.5 c 128,-1,50
 274 237 274 237 267 203 c 1,51,-1
 267 191 l 2,52,53
 267 189 267 189 265 183 c 2,54,-1
 267 175 l 2,55,56
 266 163 266 163 254.5 157.5 c 128,-1,57
 243 152 243 152 229.5 153.5 c 128,-1,58
 216 155 216 155 205.5 162 c 128,-1,59
 195 169 195 169 195 180 c 2,60,-1
 195 383 l 1,61,-1
 113 383 l 1,62,-1
 113 69 l 1,63,-1
 114 69 l 1,0,1
EndSplineSet
Ligature2: "'akhn' Akhand lookup 0 subtable" u11328 u1134D u11335
EndChar

StartChar: uE113
Encoding: 57619 57619 54
Width: 834
GlyphClass: 2
Flags: W
LayerCount: 2
Fore
SplineSet
502 134 m 1,0,1
 552 134 552 134 546 218 c 2,2,-1
 543 262 l 1,3,-1
 433 262 l 2,4,5
 430 262 430 262 399 217 c 0,6,7
 386 196 386 196 403 164 c 1,8,9
 405 150 405 150 443 132 c 0,10,11
 459 125 459 125 503 133 c 1,12,-1
 502 134 l 1,0,1
463 383 m 1,13,-1
 463 308 l 1,14,-1
 543 308 l 1,15,-1
 543 383 l 1,16,-1
 463 383 l 1,13,-1
357 404 m 0,17,18
 357 381 357 381 321 381 c 2,19,-1
 306 381 l 1,20,-1
 306 300 l 1,21,-1
 407 300 l 1,22,-1
 405 383 l 1,23,-1
 405 408 l 2,24,25
 405 417 405 417 417.5 423.5 c 128,-1,26
 430 430 430 430 445 428 c 2,27,-1
 624 428 l 2,28,29
 641 428 641 428 650 420 c 0,30,31
 667 405 667 405 654 390 c 0,32,33
 647 383 647 383 632 383 c 2,34,-1
 617 383 l 1,35,-1
 617 306 l 1,36,37
 692 311 692 311 745 251 c 0,38,39
 794 196 794 196 794 141 c 1,40,41
 784 51 784 51 697 17 c 0,42,43
 634 -5 634 -5 472 8 c 2,44,-1
 431 12 l 2,45,46
 419 15 419 15 408 11 c 1,47,48
 321 11 321 11 310 -4 c 0,49,50
 301 -15 301 -15 333 -39 c 0,51,52
 343 -47 343 -47 340 -56.5 c 128,-1,53
 337 -66 337 -66 327.5 -74 c 128,-1,54
 318 -82 318 -82 305.5 -84.5 c 128,-1,55
 293 -87 293 -87 283.5 -79.5 c 128,-1,56
 274 -72 274 -72 264 -59 c 0,57,58
 244 -33 244 -33 251 -6 c 0,59,60
 256 8 256 8 270.5 18 c 128,-1,61
 285 28 285 28 319.5 36.5 c 128,-1,62
 354 45 354 45 409 47 c 1,63,-1
 359 48 l 1,64,65
 450 50 450 50 485.5 49 c 128,-1,66
 521 48 521 48 545 48 c 0,67,68
 680 48 680 48 717 98 c 0,69,70
 733 118 733 118 734 152 c 2,71,-1
 734 163 l 2,72,73
 736 193 736 193 704 227 c 0,74,75
 691 240 691 240 667.5 250 c 128,-1,76
 644 260 644 260 618 259 c 1,77,78
 620 230 620 230 622 202 c 0,79,80
 625 133 625 133 579 101 c 0,81,82
 552 83 552 83 504 83 c 1,83,-1
 504 82 l 1,84,85
 428 82 428 82 417 88 c 0,86,87
 371 113 371 113 352 151 c 0,88,89
 345 166 345 166 356 206.5 c 128,-1,90
 367 247 367 247 383 252 c 1,91,-1
 306 253 l 1,92,-1
 306 191 l 2,93,94
 304 71 304 71 264 50 c 0,95,96
 247 41 247 41 226.5 50.5 c 128,-1,97
 206 60 206 60 193 80 c 1,98,99
 178 49 178 49 152 48 c 0,100,101
 97 46 97 46 60 106 c 0,102,103
 43 135 43 135 41 170.5 c 128,-1,104
 39 206 39 206 58 237 c 128,-1,105
 77 268 77 268 129 292 c 1,106,-1
 129 405 l 2,107,108
 129 411 129 411 134.5 416.5 c 128,-1,109
 140 422 140 422 145 423 c 1,110,-1
 146 425 l 1,111,-1
 150 425 l 2,112,113
 153 425 153 425 154.5 426.5 c 128,-1,114
 156 428 156 428 176.5 427 c 128,-1,115
 197 426 197 426 233.5 427 c 128,-1,116
 270 428 270 428 296 427 c 2,117,-1
 325 427 l 2,118,119
 340 427 340 427 348.5 419.5 c 128,-1,120
 357 412 357 412 357 404 c 0,17,18
195 185 m 1,121,-1
 197 159 l 1,122,123
 210 104 210 104 228 102 c 0,124,125
 235 102 235 102 240.5 121.5 c 128,-1,126
 246 141 246 141 245 159.5 c 128,-1,127
 244 178 244 178 245 180 c 128,-1,128
 246 182 246 182 246 187 c 128,-1,129
 246 192 246 192 247 193 c 1,130,-1
 246 188 l 1,131,-1
 246 253 l 1,132,-1
 153 253 l 1,133,134
 113 235 113 235 99 211 c 0,135,136
 74 164 74 164 102 124 c 0,137,138
 113 109 113 109 128.5 104 c 128,-1,139
 144 99 144 99 157 113 c 0,140,141
 169 127 169 127 168 165 c 0,142,143
 167 167 167 167 167 175 c 0,144,145
 167 202 167 202 183 202 c 0,146,147
 188 202 188 202 191.5 196.5 c 128,-1,148
 195 191 195 191 194 188 c 2,149,-1
 194 186 l 1,150,-1
 195 185 l 1,121,-1
176 381 m 1,151,152
 176 379 176 379 177 378 c 2,153,-1
 177 300 l 1,154,-1
 246 300 l 1,155,-1
 246 381 l 1,156,-1
 176 381 l 1,151,152
EndSplineSet
Ligature2: "'akhn' Akhand lookup 0 subtable" u11315 u1134D u11324
EndChar

StartChar: uE114
Encoding: 57620 57620 55
Width: 854
GlyphClass: 2
Flags: W
LayerCount: 2
Fore
SplineSet
63 40 m 2,0,1
 63 24 63 24 91 24 c 0,2,3
 120 24 120 24 120 40 c 1,4,-1
 119 40 l 1,5,-1
 119 354 l 1,6,-1
 201 354 l 1,7,-1
 201 151 l 2,8,9
 201 140 201 140 211.5 133 c 128,-1,10
 222 126 222 126 235.5 124.5 c 128,-1,11
 249 123 249 123 260.5 128 c 128,-1,12
 272 133 272 133 273 146 c 1,13,-1
 271 154 l 2,14,15
 273 160 273 160 273 162 c 2,16,-1
 273 174 l 1,17,18
 279 208 279 208 303 219.5 c 128,-1,19
 327 231 327 231 353 225.5 c 128,-1,20
 379 220 379 220 395 204.5 c 128,-1,21
 411 189 411 189 411 166 c 1,22,23
 401 155 401 155 392 111.5 c 128,-1,24
 383 68 383 68 388.5 49 c 128,-1,25
 394 30 394 30 416.5 15.5 c 128,-1,26
 439 1 439 1 487 2 c 1,27,-1
 486 0 l 1,28,29
 543 2 543 2 583 63 c 1,30,31
 607 25 607 25 642.5 10.5 c 128,-1,32
 678 -4 678 -4 711 6.5 c 128,-1,33
 744 17 744 17 766.5 50.5 c 128,-1,34
 789 84 789 84 792 135 c 1,35,-1
 794 135 l 1,36,-1
 792 146 l 2,37,38
 792 147 792 147 792 149 c 1,39,-1
 791 149 l 1,40,-1
 781 205 l 2,41,42
 772 250 772 250 723 269 c 0,43,44
 698 279 698 279 680.5 279 c 128,-1,45
 663 279 663 279 648 276 c 128,-1,46
 633 273 633 273 619.5 256 c 128,-1,47
 606 239 606 239 606 214 c 2,48,-1
 606 210 l 2,49,50
 607 193 607 193 621 176.5 c 128,-1,51
 635 160 635 160 654 151 c 0,52,53
 703 128 703 128 734 151 c 1,54,55
 736 98 736 98 720 70 c 0,56,57
 704 43 704 43 681.5 42 c 128,-1,58
 659 41 659 41 635 66 c 0,59,60
 600 100 600 100 600 146 c 0,61,62
 600 151 600 151 594 156 c 1,63,64
 588 180 588 180 565 193 c 0,65,66
 557 198 557 198 547 190 c 0,67,68
 526 175 526 175 530 171 c 0,69,70
 548 153 548 153 548 125 c 128,-1,71
 548 97 548 97 539 79.5 c 128,-1,72
 530 62 530 62 515 51.5 c 128,-1,73
 500 41 500 41 490 41 c 1,74,-1
 490 43 l 1,75,76
 448 33 448 33 446 66 c 0,77,78
 446 86 446 86 461 117 c 1,79,-1
 461 118 l 1,80,-1
 472 174 l 1,81,82
 481 192 481 192 463 215.5 c 128,-1,83
 445 239 445 239 413 252.5 c 128,-1,84
 381 266 381 266 343 268 c 128,-1,85
 305 270 305 270 273 257 c 1,86,-1
 273 354 l 1,87,-1
 347 354 l 2,88,89
 357 354 357 354 362.5 361 c 128,-1,90
 368 368 368 368 368 376 c 128,-1,91
 368 384 368 384 362.5 391.5 c 128,-1,92
 357 399 357 399 347 399 c 2,93,-1
 94 399 l 2,94,95
 82 399 82 399 76 390 c 1,96,97
 64 385 64 385 63 375 c 2,98,-1
 63 40 l 2,0,1
716 226 m 0,99,100
 725 213 725 213 718 197 c 0,101,102
 712 178 712 178 686 177 c 128,-1,103
 660 176 660 176 652.5 186 c 128,-1,104
 645 196 645 196 644 213 c 2,105,-1
 644 214 l 2,106,107
 644 226 644 226 654.5 234.5 c 128,-1,108
 665 243 665 243 682 242.5 c 128,-1,109
 699 242 699 242 716 226 c 0,99,100
EndSplineSet
Ligature2: "'akhn' Akhand lookup 0 subtable" u11328 u1134D u11325
EndChar

StartChar: uE115
Encoding: 57621 57621 56
Width: 876
GlyphClass: 2
Flags: W
LayerCount: 2
Fore
SplineSet
214 165 m 1024,0,-1
118 192 m 1,1,-1
 117 191 l 1,2,3
 120 138 120 138 150 118 c 0,4,5
 163 110 163 110 179 111 c 0,6,7
 211 113 211 113 218 137 c 0,8,9
 221 150 221 150 211 170.5 c 128,-1,10
 201 191 201 191 184 203 c 128,-1,11
 167 215 167 215 152.5 216.5 c 128,-1,12
 138 218 138 218 128.5 211 c 128,-1,13
 119 204 119 204 118 192 c 1,1,-1
590 111 m 1,14,-1
 692 113 l 2,15,16
 694 113 694 113 710 112.5 c 128,-1,17
 726 112 726 112 735 112 c 1,18,-1
 735 226 l 1,19,20
 710 208 710 208 634 200 c 1,21,-1
 590 111 l 1,14,-1
433 238 m 0,22,23
 433 153 433 153 377 113 c 1,24,-1
 533 113 l 1,25,-1
 574 199 l 1,26,27
 529 204 529 204 511.5 229.5 c 128,-1,28
 494 255 494 255 494 307 c 2,29,-1
 494 311 l 1,30,-1
 495 312 l 1,31,-1
 495 313 l 2,32,33
 495 341 495 341 509 359 c 0,34,35
 536 396 536 396 583 389 c 128,-1,36
 630 382 630 382 651 328 c 0,37,38
 661 302 661 302 655 262 c 1,39,-1
 657 262 l 1,40,-1
 657 242 l 1,41,42
 699 253 699 253 735 285 c 0,43,44
 744 290 744 290 744 293 c 0,45,46
 744 301 744 301 760 303 c 128,-1,47
 776 305 776 305 783.5 298.5 c 128,-1,48
 791 292 791 292 791 286 c 2,49,-1
 792 96 l 1,50,-1
 789 71 l 1,51,-1
 565 68 l 1,52,-1
 520 -15 l 1,53,-1
 795 -16 l 2,54,55
 809 -16 809 -16 809 -38 c 128,-1,56
 809 -60 809 -60 795 -60 c 2,57,-1
 653 -60 l 1,58,-1
 653 -110 l 2,59,60
 653 -127 653 -127 627.5 -127.5 c 128,-1,61
 602 -128 602 -128 602 -110 c 2,62,-1
 602 -60 l 1,63,-1
 454 -60 l 2,64,65
 441 -60 441 -60 435 -54 c 0,66,67
 433 -52 433 -52 456 -13 c 2,68,-1
 505 72 l 1,69,-1
 290 72 l 1,70,-1
 290 113 l 1,71,-1
 311 113 l 2,72,73
 342 116 342 116 352.5 142.5 c 128,-1,74
 363 169 363 169 363 221 c 128,-1,75
 363 273 363 273 348 296 c 0,76,77
 319 344 319 344 262 349 c 0,78,79
 235 351 235 351 207.5 339.5 c 128,-1,80
 180 328 180 328 160.5 308 c 128,-1,81
 141 288 141 288 126 246 c 1,82,83
 156 253 156 253 184 242 c 0,84,85
 234 222 234 222 253 181 c 0,86,87
 269 153 269 153 262 130 c 0,88,89
 247 83 247 83 184.5 74.5 c 128,-1,90
 122 66 122 66 85 122 c 0,91,92
 68 148 68 148 69 203 c 0,93,94
 72 314 72 314 164 369 c 0,95,96
 202 392 202 392 248 394 c 0,97,98
 344 399 344 399 402 327 c 0,99,100
 433 288 433 288 433 238 c 0,22,23
600 262 m 2,101,102
 603 301 603 301 595.5 325.5 c 128,-1,103
 588 350 588 350 577 355 c 256,104,105
 566 360 566 360 555 347.5 c 128,-1,106
 544 335 544 335 540 305 c 1,107,108
 542 273 542 273 559.5 257.5 c 128,-1,109
 577 242 577 242 600 239 c 1,110,-1
 600 262 l 2,101,102
EndSplineSet
Ligature2: "'akhn' Akhand lookup 0 subtable" u11337 u1134D u1131F
EndChar

StartChar: uE180
Encoding: 57728 57728 57
Width: 1228
GlyphClass: 2
Flags: W
LayerCount: 2
Fore
SplineSet
106 209 m 1,0,-1
 105 207 l 1,1,-1
 37 207 l 1,2,-1
 37 212 l 2,3,4
 40 279 40 279 64.5 320 c 128,-1,5
 89 361 89 361 125 381.5 c 128,-1,6
 161 402 161 402 205 404.5 c 128,-1,7
 249 407 249 407 290 394 c 128,-1,8
 331 381 331 381 365.5 357 c 128,-1,9
 400 333 400 333 419 301 c 1,10,-1
 419 370 l 2,11,12
 416 379 416 379 419 388 c 2,13,-1
 419 389 l 2,14,15
 419 400 419 400 430.5 405 c 128,-1,16
 442 410 442 410 455 408 c 0,17,18
 495 407 495 407 532.5 405.5 c 128,-1,19
 570 404 570 404 603 408 c 1,20,-1
 649 408 l 2,21,22
 668 407 668 407 676 398 c 128,-1,23
 684 389 684 389 683 379.5 c 128,-1,24
 682 370 682 370 673.5 361.5 c 128,-1,25
 665 353 665 353 651 353 c 2,26,-1
 623 353 l 1,27,-1
 623 276 l 1,28,29
 646 274 646 274 668 271 c 128,-1,30
 690 268 690 268 714 263 c 1,31,32
 739 293 739 293 773 310.5 c 128,-1,33
 807 328 807 328 844.5 333 c 128,-1,34
 882 338 882 338 919 331.5 c 128,-1,35
 956 325 956 325 986 306 c 128,-1,36
 1016 287 1016 287 1035.5 256.5 c 128,-1,37
 1055 226 1055 226 1057 184 c 1,38,-1
 1056 184 l 1,39,40
 1058 149 1058 149 1046 113 c 128,-1,41
 1034 77 1034 77 1001 51 c 1,42,-1
 1123 50 l 1,43,-1
 1123 385 l 2,44,45
 1124 394 1124 394 1133.5 401 c 128,-1,46
 1143 408 1143 408 1153 410 c 128,-1,47
 1163 412 1163 412 1172 407.5 c 128,-1,48
 1181 403 1181 403 1181 393 c 2,49,-1
 1181 47 l 2,50,51
 1181 35 1181 35 1178 29 c 2,52,-1
 1179 10 l 1,53,-1
 1117 10 l 1,54,-1
 1070 10 l 1,55,-1
 1010 10 l 1,56,-1
 908 10 l 1,57,-1
 909 18 l 1,58,-1
 909 20 l 1,59,-1
 907 46 l 1,60,-1
 905 52 l 1,61,-1
 907 52 l 1,62,-1
 907 54 l 1,63,64
 934 54 934 54 949.5 70.5 c 128,-1,65
 965 87 965 87 971.5 108.5 c 128,-1,66
 978 130 978 130 978.5 151.5 c 128,-1,67
 979 173 979 173 976 183 c 1,68,-1
 975 183 l 1,69,70
 975 227 975 227 952 254.5 c 128,-1,71
 929 282 929 282 896 290 c 128,-1,72
 863 298 863 298 827.5 288 c 128,-1,73
 792 278 792 278 766 246 c 1,74,75
 803 229 803 229 830.5 200.5 c 128,-1,76
 858 172 858 172 870 128 c 1,77,-1
 873 129 l 1,78,79
 884 96 884 96 875 70 c 128,-1,80
 866 44 866 44 845.5 28.5 c 128,-1,81
 825 13 825 13 797.5 9.5 c 128,-1,82
 770 6 770 6 744.5 18 c 128,-1,83
 719 30 719 30 699.5 58.5 c 128,-1,84
 680 87 680 87 676 136 c 1,85,-1
 674 136 l 1,86,87
 674 186 674 186 690 223 c 1,88,89
 653 230 653 230 623 229 c 1,90,91
 625 201 625 201 628 163.5 c 128,-1,92
 631 126 631 126 623 90.5 c 128,-1,93
 615 55 615 55 591.5 30.5 c 128,-1,94
 568 6 568 6 517 6 c 1,95,-1
 517 78 l 1,96,97
 536 78 536 78 545 91 c 128,-1,98
 554 104 554 104 556 124.5 c 128,-1,99
 558 145 558 145 556 171.5 c 128,-1,100
 554 198 554 198 553 223 c 1,101,-1
 451 223 l 1,102,103
 411 209 411 209 398 181 c 128,-1,104
 385 153 385 153 394.5 126 c 128,-1,105
 404 99 404 99 435.5 83.5 c 128,-1,106
 467 68 467 68 516 78 c 1,107,-1
 516 6 l 1,108,109
 446 6 446 6 402.5 31.5 c 128,-1,110
 359 57 359 57 342.5 94 c 128,-1,111
 326 131 326 131 335.5 172 c 128,-1,112
 345 213 345 213 382 243 c 1,113,114
 365 280 365 280 329.5 309.5 c 128,-1,115
 294 339 294 339 255 352 c 128,-1,116
 216 365 216 365 179 355.5 c 128,-1,117
 142 346 142 346 121 306 c 1,118,119
 147 312 147 312 173.5 308.5 c 128,-1,120
 200 305 200 305 222 293 c 128,-1,121
 244 281 244 281 258 259.5 c 128,-1,122
 272 238 272 238 272 209 c 2,123,-1
 272 207 l 1,124,-1
 272 206 l 2,125,126
 272 172 272 172 255 149 c 128,-1,127
 238 126 238 126 211.5 114 c 128,-1,128
 185 102 185 102 154.5 101.5 c 128,-1,129
 124 101 124 101 98 112.5 c 128,-1,130
 72 124 72 124 54.5 147 c 128,-1,131
 37 170 37 170 37 206 c 1,132,-1
 106 206 l 1,133,134
 106 186 106 186 123 174 c 128,-1,135
 140 162 140 162 161 160.5 c 128,-1,136
 182 159 182 159 199 169.5 c 128,-1,137
 216 180 216 180 216 206 c 2,138,-1
 216 208 l 1,139,-1
 216 209 l 2,140,141
 216 237 216 237 198.5 250 c 128,-1,142
 181 263 181 263 160 262.5 c 128,-1,143
 139 262 139 262 122 248.5 c 128,-1,144
 105 235 105 235 106 209 c 1,0,-1
830 117 m 0,145,146
 830 151 830 151 804.5 173.5 c 128,-1,147
 779 196 779 196 743 209 c 1,148,149
 732 180 732 180 727 134 c 1,150,151
 728 88 728 88 746 68 c 128,-1,152
 764 48 764 48 784.5 47.5 c 128,-1,153
 805 47 805 47 821.5 61 c 128,-1,154
 838 75 838 75 836 96 c 0,155,156
 834 99 834 99 832 104 c 128,-1,157
 830 109 830 109 830 117 c 0,145,146
474 353 m 1,158,-1
 474 278 l 1,159,-1
 553 278 l 1,160,-1
 553 353 l 1,161,-1
 474 353 l 1,158,-1
447 249 m 1,162,-1
 449 244 l 1,163,-1
 449 249 l 1,164,-1
 447 249 l 1,162,-1
EndSplineSet
EndChar

StartChar: uE200
Encoding: 57856 57856 58
Width: 404
GlyphClass: 2
Flags: W
LayerCount: 2
Fore
SplineSet
164 515 m 1,0,-1
 132 522 l 1,1,2
 126 530 126 530 124.5 539.5 c 128,-1,3
 123 549 123 549 126.5 555 c 128,-1,4
 130 561 130 561 138.5 562 c 128,-1,5
 147 563 147 563 160 555 c 0,6,7
 210 540 210 540 239.5 514.5 c 128,-1,8
 269 489 269 489 284 457 c 128,-1,9
 299 425 299 425 301 387.5 c 128,-1,10
 303 350 303 350 297 310.5 c 128,-1,11
 291 271 291 271 279 230.5 c 128,-1,12
 267 190 267 190 256 153 c 0,13,14
 248 126 248 126 244 94.5 c 128,-1,15
 240 63 240 63 232 24 c 1,16,17
 284 24 284 24 315.5 5 c 128,-1,18
 347 -14 347 -14 361.5 -42 c 128,-1,19
 376 -70 376 -70 374.5 -101 c 128,-1,20
 373 -132 373 -132 359.5 -157 c 128,-1,21
 346 -182 346 -182 321.5 -196 c 128,-1,22
 297 -210 297 -210 265 -203 c 1,23,-1
 266 -202 l 1,24,25
 241 -202 241 -202 224 -188.5 c 128,-1,26
 207 -175 207 -175 196 -151.5 c 128,-1,27
 185 -128 185 -128 180.5 -95 c 128,-1,28
 176 -62 176 -62 177 -24 c 1,29,-1
 155 -24 l 2,30,31
 148 -24 148 -24 141 -24 c 0,32,33
 136 -24 136 -24 128 -25 c 2,34,-1
 55 -25 l 2,35,36
 29 -23 29 -23 17 -14.5 c 128,-1,37
 5 -6 5 -6 6 3 c 128,-1,38
 7 12 7 12 21 19.5 c 128,-1,39
 35 27 35 27 61 27 c 0,40,41
 95 27 95 27 124.5 27.5 c 128,-1,42
 154 28 154 28 177 28 c 1,43,44
 179 62 179 62 188 93.5 c 128,-1,45
 197 125 197 125 204 164 c 1,46,47
 228 236 228 236 241.5 288 c 128,-1,48
 255 340 255 340 253 380 c 128,-1,49
 251 420 251 420 230 452 c 128,-1,50
 209 484 209 484 164 515 c 1,0,-1
288 -156 m 1,51,52
 310 -156 310 -156 321.5 -138.5 c 128,-1,53
 333 -121 333 -121 328.5 -99 c 128,-1,54
 324 -77 324 -77 299 -56 c 128,-1,55
 274 -35 274 -35 225 -27 c 1,56,57
 222 -75 222 -75 229 -109 c 128,-1,58
 236 -143 236 -143 263 -148 c 1,59,-1
 266 -150 l 1,60,-1
 288 -156 l 1,51,52
EndSplineSet
Ligature2: "'rphf' Reph Form lookup 2 subtable" u11330 u1134D
EndChar

StartChar: uE201
Encoding: 57857 57857 59
Width: 407
GlyphClass: 2
Flags: W
LayerCount: 2
Fore
SplineSet
135 -74 m 1,0,-1
 150 -51 l 1,1,-1
 151 -51 l 1,2,3
 167 -22 167 -22 165.5 2 c 128,-1,4
 164 26 164 26 151.5 41 c 128,-1,5
 139 56 139 56 119 61.5 c 128,-1,6
 99 67 99 67 78 57 c 1,7,-1
 72 33 l 1,8,9
 61 25 61 25 49.5 26.5 c 128,-1,10
 38 28 38 28 32.5 35 c 128,-1,11
 27 42 27 42 29.5 52 c 128,-1,12
 32 62 32 62 49 72 c 0,13,14
 65 83 65 83 81 86.5 c 128,-1,15
 97 90 97 90 115 90 c 0,16,17
 140 90 140 90 160.5 80.5 c 128,-1,18
 181 71 181 71 193.5 52.5 c 128,-1,19
 206 34 206 34 208 7 c 128,-1,20
 210 -20 210 -20 197 -55 c 1,21,-1
 198 -55 l 1,22,-1
 197 -55 l 1,23,-1
 197 -59 l 1,24,-1
 196 -59 l 1,25,26
 182 -92 182 -92 190 -116.5 c 128,-1,27
 198 -141 198 -141 215.5 -147 c 128,-1,28
 233 -153 233 -153 256 -135 c 128,-1,29
 279 -117 279 -117 293 -65 c 0,30,31
 307 3 307 3 309.5 80.5 c 128,-1,32
 312 158 312 158 301 229.5 c 128,-1,33
 290 301 290 301 264.5 360 c 128,-1,34
 239 419 239 419 196 452 c 2,35,-1
 159 478 l 1,36,37
 157 494 157 494 165.5 502 c 128,-1,38
 174 510 174 510 186 511 c 128,-1,39
 198 512 198 512 209.5 508.5 c 128,-1,40
 221 505 221 505 225 499 c 0,41,42
 268 442 268 442 299.5 380.5 c 128,-1,43
 331 319 331 319 348 250.5 c 128,-1,44
 365 182 365 182 366.5 104 c 128,-1,45
 368 26 368 26 352 -66 c 1,46,-1
 350 -66 l 1,47,-1
 352 -68 l 1,48,49
 338 -124 338 -124 312 -156 c 128,-1,50
 286 -188 286 -188 255.5 -200.5 c 128,-1,51
 225 -213 225 -213 196 -208 c 128,-1,52
 167 -203 167 -203 147.5 -185 c 128,-1,53
 128 -167 128 -167 123 -138 c 128,-1,54
 118 -109 118 -109 135 -74 c 1,0,-1
EndSplineSet
Ligature2: "'pstf' Post Base Forms lookup 3 subtable" u1134D u1132F
EndChar

StartChar: uE203
Encoding: 57859 57859 60
Width: 243
GlyphClass: 2
Flags: W
LayerCount: 2
Fore
SplineSet
77 147 m 2,0,1
 66 147 66 147 59.5 155.5 c 128,-1,2
 53 164 53 164 53 174 c 256,3,4
 53 184 53 184 59 192.5 c 128,-1,5
 65 201 65 201 77 201 c 2,6,-1
 224 201 l 2,7,8
 235 201 235 201 241 192.5 c 128,-1,9
 247 184 247 184 247 174 c 256,10,11
 247 164 247 164 240.5 155.5 c 128,-1,12
 234 147 234 147 224 147 c 2,13,-1
 182 147 l 1,14,-1
 182 41 l 2,15,16
 181 -29 181 -29 169.5 -74.5 c 128,-1,17
 158 -120 158 -120 138.5 -147.5 c 128,-1,18
 119 -175 119 -175 95 -188 c 128,-1,19
 71 -201 71 -201 46.5 -205 c 128,-1,20
 22 -209 22 -209 0 -208 c 128,-1,21
 -22 -207 -22 -207 -36 -207 c 0,22,23
 -49 -207 -49 -207 -59.5 -200 c 128,-1,24
 -70 -193 -70 -193 -72.5 -184.5 c 128,-1,25
 -75 -176 -75 -176 -67.5 -170.5 c 128,-1,26
 -60 -165 -60 -165 -36 -169 c 0,27,28
 -2 -175 -2 -175 29 -169 c 128,-1,29
 60 -163 60 -163 83 -139.5 c 128,-1,30
 106 -116 106 -116 117.5 -70.5 c 128,-1,31
 129 -25 129 -25 123 48 c 1,32,-1
 124 36 l 1,33,-1
 126 42 l 1,34,-1
 124 41 l 1,35,-1
 124 147 l 1,36,-1
 77 147 l 2,0,1
EndSplineSet
EndChar

StartChar: uE204
Encoding: 57860 57860 61
Width: 243
GlyphClass: 2
Flags: W
LayerCount: 2
Fore
SplineSet
72 147 m 2,0,1
 61 147 61 147 54.5 155.5 c 128,-1,2
 48 164 48 164 48 174 c 256,3,4
 48 184 48 184 54 192.5 c 128,-1,5
 60 201 60 201 72 201 c 2,6,-1
 219 201 l 2,7,8
 230 201 230 201 236 192.5 c 128,-1,9
 242 184 242 184 242 174 c 256,10,11
 242 164 242 164 236 155.5 c 128,-1,12
 230 147 230 147 219 147 c 2,13,-1
 177 147 l 1,14,-1
 177 41 l 1,15,16
 181 -56 181 -56 169.5 -122 c 128,-1,17
 158 -188 158 -188 135 -229.5 c 128,-1,18
 112 -271 112 -271 80.5 -289 c 128,-1,19
 49 -307 49 -307 15 -307 c 0,20,21
 2 -307 2 -307 -8.5 -300 c 128,-1,22
 -19 -293 -19 -293 -22 -284.5 c 128,-1,23
 -25 -276 -25 -276 -17 -269 c 128,-1,24
 -9 -262 -9 -262 14 -263 c 0,25,26
 39 -264 39 -264 61 -246.5 c 128,-1,27
 83 -229 83 -229 98 -192 c 128,-1,28
 113 -155 113 -155 119 -95.5 c 128,-1,29
 125 -36 125 -36 118 48 c 1,30,-1
 119 36 l 1,31,-1
 121 42 l 1,32,-1
 119 41 l 1,33,-1
 119 147 l 1,34,-1
 72 147 l 2,0,1
EndSplineSet
LCarets2: 1 0
Ligature2: "'pstf' Post Base Forms lookup 3 subtable" u1134D u11330
Ligature2: "'rkrf' Rakar Forms lookup 7-1" u1134D u11330
EndChar

StartChar: uE20B
Encoding: 57867 57867 62
Width: 308
GlyphClass: 2
Flags: W
LayerCount: 2
Fore
SplineSet
112 219 m 1,0,-1
 119 220 l 2,1,2
 127 220 127 220 137 220 c 256,3,4
 147 220 147 220 157 218 c 0,5,6
 181 211 181 211 198 199 c 128,-1,7
 215 187 215 187 220 173 c 0,8,9
 228 153 228 153 229.5 131.5 c 128,-1,10
 231 110 231 110 230 105 c 0,11,12
 227 86 227 86 218 72.5 c 128,-1,13
 209 59 209 59 196 51.5 c 128,-1,14
 183 44 183 44 168.5 41 c 128,-1,15
 154 38 154 38 140 40 c 2,16,-1
 117 44 l 1,17,-1
 100 52 l 2,18,19
 83 63 83 63 78.5 75 c 128,-1,20
 74 87 74 87 77.5 95.5 c 128,-1,21
 81 104 81 104 89.5 109 c 128,-1,22
 98 114 98 114 109 110 c 0,23,24
 115 107 115 107 122 109 c 128,-1,25
 129 111 129 111 133.5 116 c 128,-1,26
 138 121 138 121 137.5 128 c 128,-1,27
 137 135 137 135 129 143 c 1,28,29
 114 148 114 148 99.5 150 c 128,-1,30
 85 152 85 152 62 138 c 0,31,32
 48 130 48 130 43.5 117.5 c 128,-1,33
 39 105 39 105 39 100 c 0,34,35
 39 69 39 69 48.5 53 c 128,-1,36
 58 37 58 37 73 26 c 0,37,38
 87 14 87 14 96.5 9.5 c 128,-1,39
 106 5 106 5 114 3.5 c 128,-1,40
 122 2 122 2 129 2 c 0,41,42
 137 2 137 2 146 -1 c 1,43,-1
 146 0 l 1,44,-1
 152 0 l 2,45,46
 198 0 198 0 223 18 c 128,-1,47
 248 36 248 36 259 59 c 128,-1,48
 270 82 270 82 271.5 105 c 128,-1,49
 273 128 273 128 273 138 c 0,50,51
 273 157 273 157 266.5 175.5 c 128,-1,52
 260 194 260 194 249.5 207.5 c 128,-1,53
 239 221 239 221 225 230 c 128,-1,54
 211 239 211 239 196 241 c 1,55,56
 207 248 207 248 214 254.5 c 128,-1,57
 221 261 221 261 225.5 270 c 128,-1,58
 230 279 230 279 231.5 291.5 c 128,-1,59
 233 304 233 304 233 323 c 0,60,61
 233 350 233 350 224 368.5 c 128,-1,62
 215 387 215 387 202.5 399 c 128,-1,63
 190 411 190 411 178 415.5 c 128,-1,64
 166 420 166 420 160 418 c 2,65,-1
 134 416 l 2,66,67
 110 413 110 413 92.5 392 c 128,-1,68
 75 371 75 371 75 350 c 0,69,70
 75 347 75 347 75.5 339 c 128,-1,71
 76 331 76 331 81 316 c 1,72,-1
 102 337 l 1,73,74
 99 352 99 352 110 364.5 c 128,-1,75
 121 377 121 377 145 382 c 1,76,-1
 146 380 l 1,77,78
 161 381 161 381 172 375.5 c 128,-1,79
 183 370 183 370 190 360.5 c 128,-1,80
 197 351 197 351 199.5 339.5 c 128,-1,81
 202 328 202 328 202 317 c 0,82,83
 202 302 202 302 195.5 288.5 c 128,-1,84
 189 275 189 275 179.5 266.5 c 128,-1,85
 170 258 170 258 157.5 254.5 c 128,-1,86
 145 251 145 251 134 253 c 0,87,88
 123 253 123 253 119 253 c 256,89,90
 115 253 115 253 112 253 c 0,91,92
 110 253 110 253 108 253 c 256,93,94
 106 253 106 253 98 253 c 0,95,96
 83 255 83 255 77.5 250 c 128,-1,97
 72 245 72 245 71.5 238 c 128,-1,98
 71 231 71 231 74 225 c 128,-1,99
 77 219 77 219 79 219 c 2,100,-1
 98 219 l 1,101,-1
 112 219 l 1,0,-1
EndSplineSet
EndChar

StartChar: uE315
Encoding: 58133 58133 63
Width: 0
GlyphClass: 2
Flags: W
LayerCount: 2
Fore
SplineSet
-150 -293 m 1,0,-1
 -151 -291 l 2,1,2
 -151 -289 -151 -289 -153 -289 c 0,3,4
 -164 -280 -164 -280 -168.5 -265.5 c 128,-1,5
 -173 -251 -173 -251 -171.5 -235 c 128,-1,6
 -170 -219 -170 -219 -164 -202 c 128,-1,7
 -158 -185 -158 -185 -150 -172 c 1,8,-1
 -210 -172 l 1,9,-1
 -210 -214 l 2,10,11
 -211 -256 -211 -256 -221.5 -277 c 128,-1,12
 -232 -298 -232 -298 -245.5 -304 c 128,-1,13
 -259 -310 -259 -310 -275 -303.5 c 128,-1,14
 -291 -297 -291 -297 -304 -284 c 1,15,16
 -317 -303 -317 -303 -338 -304 c 128,-1,17
 -359 -305 -359 -305 -378 -295.5 c 128,-1,18
 -397 -286 -397 -286 -412 -267 c 128,-1,19
 -427 -248 -427 -248 -428.5 -226.5 c 128,-1,20
 -430 -205 -430 -205 -414 -183.5 c 128,-1,21
 -398 -162 -398 -162 -356 -146 c 1,22,-1
 -356 -63 l 2,23,24
 -356 -58 -356 -58 -352 -55 c 128,-1,25
 -348 -52 -348 -52 -343 -50 c 2,26,-1
 -342 -49 l 1,27,-1
 -338 -49 l 2,28,29
 -336 -49 -336 -49 -334.5 -48.5 c 128,-1,30
 -333 -48 -333 -48 -331 -48 c 0,31,32
 -301 -49 -301 -49 -270.5 -48 c 128,-1,33
 -240 -47 -240 -47 -218 -48 c 2,34,-1
 -195 -48 l 2,35,36
 -183 -48 -183 -48 -176 -52.5 c 128,-1,37
 -169 -57 -169 -57 -168.5 -62.5 c 128,-1,38
 -168 -68 -168 -68 -175 -72.5 c 128,-1,39
 -182 -77 -182 -77 -199 -77 c 2,40,-1
 -210 -77 l 1,41,-1
 -210 -143 l 1,42,-1
 -128 -143 l 2,43,44
 -125 -143 -125 -143 -107 -143.5 c 128,-1,45
 -89 -144 -89 -144 -70 -156 c 0,46,47
 -54 -167 -54 -167 -45 -185.5 c 128,-1,48
 -36 -204 -36 -204 -36 -224 c 256,49,50
 -36 -244 -36 -244 -43.5 -263.5 c 128,-1,51
 -51 -283 -51 -283 -65.5 -294 c 128,-1,52
 -80 -305 -80 -305 -101.5 -306.5 c 128,-1,53
 -123 -308 -123 -308 -150 -293 c 1,0,-1
-261 -207 m 1,54,-1
 -262 -217 l 1,55,-1
 -262 -216 l 1,56,-1
 -262 -172 l 1,57,-1
 -336 -172 l 1,58,59
 -369 -184 -369 -184 -380.5 -199.5 c 128,-1,60
 -392 -215 -392 -215 -390.5 -230 c 128,-1,61
 -389 -245 -389 -245 -378.5 -256 c 128,-1,62
 -368 -267 -368 -267 -355 -269.5 c 128,-1,63
 -342 -272 -342 -272 -332.5 -263.5 c 128,-1,64
 -323 -255 -323 -255 -324 -230 c 0,65,66
 -325 -228 -325 -228 -325 -223 c 0,67,68
 -325 -219 -325 -219 -324 -217 c 0,69,70
 -323 -211 -323 -211 -319.5 -208.5 c 128,-1,71
 -316 -206 -316 -206 -311.5 -206.5 c 128,-1,72
 -307 -207 -307 -207 -304.5 -209.5 c 128,-1,73
 -302 -212 -302 -212 -303 -216 c 1,74,75
 -303 -217 -303 -217 -303 -216 c 1,76,77
 -303 -216 -303 -216 -303 -216 c 1,78,79
 -302 -217 -302 -217 -301 -220.5 c 128,-1,80
 -300 -224 -300 -224 -300 -233 c 0,81,82
 -296 -250 -296 -250 -289.5 -259.5 c 128,-1,83
 -283 -269 -283 -269 -278 -269 c 0,84,85
 -272 -269 -272 -269 -267 -258 c 128,-1,86
 -262 -247 -262 -247 -263 -222 c 0,87,88
 -263 -221 -263 -221 -262.5 -220 c 128,-1,89
 -262 -219 -262 -219 -262 -217 c 0,90,91
 -262 -213 -262 -213 -261 -213 c 1,92,-1
 -261 -207 l 1,54,-1
-139 -245 m 1,93,-1
 -135 -258 l 2,94,95
 -124 -282 -124 -282 -108 -280 c 0,96,97
 -90 -277 -90 -277 -79 -263.5 c 128,-1,98
 -68 -250 -68 -250 -65.5 -234 c 128,-1,99
 -63 -218 -63 -218 -69 -201.5 c 128,-1,100
 -75 -185 -75 -185 -90 -176 c 1,101,-1
 -106 -173 l 1,102,103
 -126 -185 -126 -185 -132 -201 c 128,-1,104
 -138 -217 -138 -217 -140 -230 c 2,105,-1
 -139 -245 l 1,93,-1
-317 -77 m 1,106,-1
 -317 -111 l 1,107,-1
 -317 -143 l 1,108,-1
 -262 -143 l 1,109,-1
 -262 -77 l 1,110,-1
 -317 -77 l 1,106,-1
EndSplineSet
Ligature2: "'blwf' Below Base Forms lookup 4 subtable" u1134D u11315
EndChar

StartChar: uE316
Encoding: 58134 58134 64
Width: 0
GlyphClass: 2
Flags: W
LayerCount: 2
Fore
SplineSet
-305 -296 m 1,0,-1
 -305 -291 l 1,1,2
 -312 -276 -312 -276 -308 -266 c 128,-1,3
 -304 -256 -304 -256 -294 -249 c 128,-1,4
 -284 -242 -284 -242 -270 -236 c 128,-1,5
 -256 -230 -256 -230 -243 -222.5 c 128,-1,6
 -230 -215 -230 -215 -221.5 -203 c 128,-1,7
 -213 -191 -213 -191 -213 -172 c 0,8,9
 -213 -168 -213 -168 -211 -166 c 0,10,11
 -215 -141 -215 -141 -231.5 -123 c 128,-1,12
 -248 -105 -248 -105 -272 -96 c 128,-1,13
 -296 -87 -296 -87 -324 -86 c 128,-1,14
 -352 -85 -352 -85 -378 -93 c 128,-1,15
 -404 -101 -404 -101 -425.5 -118.5 c 128,-1,16
 -447 -136 -447 -136 -458 -164 c 1,17,18
 -439 -159 -439 -159 -417 -166 c 128,-1,19
 -395 -173 -395 -173 -379 -199 c 1,20,-1
 -380 -200 l 1,21,22
 -371 -226 -371 -226 -374 -246 c 128,-1,23
 -377 -266 -377 -266 -387.5 -279 c 128,-1,24
 -398 -292 -398 -292 -414.5 -296.5 c 128,-1,25
 -431 -301 -431 -301 -446.5 -294 c 128,-1,26
 -462 -287 -462 -287 -474 -267.5 c 128,-1,27
 -486 -248 -486 -248 -489 -214 c 0,28,29
 -491 -213 -491 -213 -492 -208 c 1,30,-1
 -494 -208 l 1,31,32
 -494 -159 -494 -159 -470 -125 c 128,-1,33
 -446 -91 -446 -91 -410.5 -73 c 128,-1,34
 -375 -55 -375 -55 -332.5 -52 c 128,-1,35
 -290 -49 -290 -49 -253 -61 c 128,-1,36
 -216 -73 -216 -73 -190 -100 c 128,-1,37
 -164 -127 -164 -127 -161 -168 c 2,38,-1
 -161 -169 l 1,39,-1
 -161 -172 l 2,40,41
 -161 -200 -161 -200 -177 -216.5 c 128,-1,42
 -193 -233 -193 -233 -214.5 -243 c 128,-1,43
 -236 -253 -236 -253 -257.5 -258 c 128,-1,44
 -279 -263 -279 -263 -290 -266 c 1,45,-1
 -77 -266 l 1,46,-1
 -77 -66 l 2,47,48
 -77 -60 -77 -60 -71.5 -57 c 128,-1,49
 -66 -54 -66 -54 -60 -54 c 128,-1,50
 -54 -54 -54 -54 -48.5 -57 c 128,-1,51
 -43 -60 -43 -60 -43 -67 c 2,52,-1
 -43 -281 l 2,53,54
 -43 -289 -43 -289 -48.5 -292 c 128,-1,55
 -54 -295 -54 -295 -60 -295 c 1,56,-1
 -60 -296 l 1,57,-1
 -299 -296 l 1,58,59
 -302 -302 -302 -302 -303 -296 c 1,60,-1
 -305 -296 l 1,0,-1
-464 -200 m 1,61,62
 -462 -240 -462 -240 -448.5 -255 c 128,-1,63
 -435 -270 -435 -270 -422 -268.5 c 128,-1,64
 -409 -267 -409 -267 -400.5 -252 c 128,-1,65
 -392 -237 -392 -237 -400 -214 c 1,66,-1
 -401 -215 l 1,67,68
 -420 -185 -420 -185 -439.5 -185 c 128,-1,69
 -459 -185 -459 -185 -464 -200 c 1,61,62
EndSplineSet
LCarets2: 1 0
Ligature2: "'blwf' Below Base Forms lookup 4 subtable" u1134D u11316
EndChar

StartChar: uE317
Encoding: 58135 58135 65
Width: 0
GlyphClass: 2
Flags: W
LayerCount: 2
Fore
SplineSet
-167 -166 m 0,0,1
 -168 -184 -168 -184 -182 -196 c 128,-1,2
 -196 -208 -196 -208 -216 -211 c 128,-1,3
 -236 -214 -236 -214 -259 -207 c 128,-1,4
 -282 -200 -282 -200 -302 -181.5 c 128,-1,5
 -322 -163 -322 -163 -334.5 -131.5 c 128,-1,6
 -347 -100 -347 -100 -346 -54 c 1,7,-1
 -345 -54 l 1,8,9
 -345 -49 -345 -49 -337.5 -46.5 c 128,-1,10
 -330 -44 -330 -44 -321 -44 c 0,11,12
 -311 -44 -311 -44 -303.5 -46.5 c 128,-1,13
 -296 -49 -296 -49 -296 -54 c 0,14,15
 -296 -110 -296 -110 -283.5 -140.5 c 128,-1,16
 -271 -171 -271 -171 -257 -181 c 128,-1,17
 -243 -191 -243 -191 -230.5 -185.5 c 128,-1,18
 -218 -180 -218 -180 -218 -166 c 2,19,-1
 -218 -163 l 1,20,21
 -210 -113 -210 -113 -192.5 -86 c 128,-1,22
 -175 -59 -175 -59 -154 -50 c 128,-1,23
 -133 -41 -133 -41 -110.5 -46 c 128,-1,24
 -88 -51 -88 -51 -70 -64 c 128,-1,25
 -52 -77 -52 -77 -41 -94.5 c 128,-1,26
 -30 -112 -30 -112 -32 -127 c 1,27,-1
 -98 -127 l 1,28,29
 -98 -108 -98 -108 -106 -93.5 c 128,-1,30
 -114 -79 -114 -79 -125 -79 c 256,31,32
 -136 -79 -136 -79 -148 -98 c 128,-1,33
 -160 -117 -160 -117 -167 -166 c 0,0,1
-225 -260 m 2,34,35
 -194 -260 -194 -260 -170.5 -249.5 c 128,-1,36
 -147 -239 -147 -239 -131.5 -220.5 c 128,-1,37
 -116 -202 -116 -202 -107 -178 c 128,-1,38
 -98 -154 -98 -154 -98 -127 c 1,39,-1
 -32 -127 l 1,40,41
 -32 -149 -32 -149 -40 -175 c 128,-1,42
 -48 -201 -48 -201 -69.5 -225 c 128,-1,43
 -91 -249 -91 -249 -129 -267 c 128,-1,44
 -167 -285 -167 -285 -226 -290 c 1,45,-1
 -418 -290 l 2,46,47
 -427 -290 -427 -290 -432 -285.5 c 128,-1,48
 -437 -281 -437 -281 -437 -274 c 0,49,50
 -437 -269 -437 -269 -432.5 -264.5 c 128,-1,51
 -428 -260 -428 -260 -419 -260 c 2,52,-1
 -225 -260 l 2,34,35
EndSplineSet
Ligature2: "'blwf' Below Base Forms lookup 4 subtable" u1134D u11317
EndChar

StartChar: uE318
Encoding: 58136 58136 66
Width: 0
GlyphClass: 2
Flags: W
LayerCount: 2
Fore
SplineSet
-368 -293 m 1,0,-1
 -368 -268 l 1,1,-1
 -368 -265 l 1,2,3
 -357 -265 -357 -265 -349 -256 c 128,-1,4
 -341 -247 -341 -247 -336 -233 c 128,-1,5
 -331 -219 -331 -219 -329 -201.5 c 128,-1,6
 -327 -184 -327 -184 -327 -167 c 0,7,8
 -327 -124 -327 -124 -350.5 -100.5 c 128,-1,9
 -374 -77 -374 -77 -404 -75 c 128,-1,10
 -434 -73 -434 -73 -463 -94 c 128,-1,11
 -492 -115 -492 -115 -502 -162 c 1,12,13
 -482 -154 -482 -154 -456 -161 c 128,-1,14
 -430 -168 -430 -168 -411 -195 c 1,15,-1
 -415 -199 l 1,16,-1
 -411 -196 l 1,17,18
 -401 -222 -401 -222 -405 -242 c 128,-1,19
 -409 -262 -409 -262 -422 -275 c 128,-1,20
 -435 -288 -435 -288 -453.5 -292 c 128,-1,21
 -472 -296 -472 -296 -489.5 -289.5 c 128,-1,22
 -507 -283 -507 -283 -520.5 -263.5 c 128,-1,23
 -534 -244 -534 -244 -536 -209 c 0,24,25
 -537 -209 -537 -209 -537 -204 c 2,26,-1
 -537 -203 l 2,27,28
 -537 -153 -537 -153 -518 -118.5 c 128,-1,29
 -499 -84 -499 -84 -470 -66 c 128,-1,30
 -441 -48 -441 -48 -408 -45.5 c 128,-1,31
 -375 -43 -375 -43 -345.5 -56 c 128,-1,32
 -316 -69 -316 -69 -296 -97.5 c 128,-1,33
 -276 -126 -276 -126 -275 -169 c 1,34,-1
 -327 -167 l 1,35,-1
 -276 -169 l 1,36,37
 -276 -197 -276 -197 -288 -222.5 c 128,-1,38
 -300 -248 -300 -248 -321 -265 c 1,39,-1
 -208 -265 l 1,40,-1
 -208 -58 l 2,41,42
 -208 -50 -208 -50 -202.5 -46.5 c 128,-1,43
 -197 -43 -197 -43 -190 -43 c 0,44,45
 -182 -43 -182 -43 -175.5 -46.5 c 128,-1,46
 -169 -50 -169 -50 -169 -58 c 2,47,-1
 -169 -265 l 1,48,-1
 -130 -265 l 1,49,-1
 -83 -265 l 1,50,-1
 -83 -59 l 2,51,52
 -83 -52 -83 -52 -75 -48.5 c 128,-1,53
 -67 -45 -67 -45 -57.5 -44.5 c 128,-1,54
 -48 -44 -48 -44 -40 -47.5 c 128,-1,55
 -32 -51 -32 -51 -32 -58 c 2,56,-1
 -32 -275 l 1,57,-1
 -33 -281 l 2,58,59
 -33 -286 -33 -286 -41 -289.5 c 128,-1,60
 -49 -293 -49 -293 -57 -293 c 2,61,-1
 -102 -293 l 1,62,-1
 -129 -293 l 1,63,-1
 -148 -293 l 1,64,-1
 -172 -293 l 1,65,-1
 -212 -293 l 1,66,-1
 -281 -293 l 1,67,-1
 -368 -293 l 1,0,-1
-503 -195 m 0,68,69
 -502 -235 -502 -235 -487.5 -250.5 c 128,-1,70
 -473 -266 -473 -266 -458 -264.5 c 128,-1,71
 -443 -263 -443 -263 -435 -247 c 128,-1,72
 -427 -231 -427 -231 -437 -209 c 1,73,74
 -460 -182 -460 -182 -480 -181.5 c 128,-1,75
 -500 -181 -500 -181 -503 -195 c 0,68,69
EndSplineSet
LCarets2: 1 0
Ligature2: "'blwf' Below Base Forms lookup 4 subtable" u1134D u11318
EndChar

StartChar: uE31A
Encoding: 58138 58138 67
Width: 0
GlyphClass: 2
Flags: W
LayerCount: 2
Fore
SplineSet
-513 -286 m 1,0,-1
 -515 -281 l 1,1,-1
 -515 -259 l 1,2,3
 -471 -261 -471 -261 -430 -260 c 128,-1,4
 -389 -259 -389 -259 -357 -251.5 c 128,-1,5
 -325 -244 -325 -244 -305 -226.5 c 128,-1,6
 -285 -209 -285 -209 -283 -177 c 0,7,8
 -284 -149 -284 -149 -299 -129.5 c 128,-1,9
 -314 -110 -314 -110 -335.5 -100.5 c 128,-1,10
 -357 -91 -357 -91 -380 -94 c 128,-1,11
 -403 -97 -403 -97 -421 -116 c 1,12,13
 -406 -115 -406 -115 -390.5 -118 c 128,-1,14
 -375 -121 -375 -121 -362.5 -129 c 128,-1,15
 -350 -137 -350 -137 -343 -150 c 128,-1,16
 -336 -163 -336 -163 -336 -181 c 0,17,18
 -337 -214 -337 -214 -360 -230 c 128,-1,19
 -383 -246 -383 -246 -411 -246 c 0,20,21
 -424 -246 -424 -246 -437.5 -242.5 c 128,-1,22
 -451 -239 -451 -239 -461.5 -230.5 c 128,-1,23
 -472 -222 -472 -222 -478.5 -210.5 c 128,-1,24
 -485 -199 -485 -199 -485 -181 c 2,25,-1
 -485 -179 l 1,26,-1
 -485 -174 l 1,27,28
 -479 -133 -479 -133 -459 -108.5 c 128,-1,29
 -439 -84 -439 -84 -412 -73.5 c 128,-1,30
 -385 -63 -385 -63 -355 -65.5 c 128,-1,31
 -325 -68 -325 -68 -299 -81 c 128,-1,32
 -273 -94 -273 -94 -256 -117 c 128,-1,33
 -239 -140 -239 -140 -238 -171 c 2,34,-1
 -238 -178 l 1,35,-1
 -238 -180 l 1,36,-1
 -239 -180 l 1,37,38
 -241 -210 -241 -210 -252 -228 c 128,-1,39
 -263 -246 -263 -246 -286 -259 c 1,40,-1
 -189 -259 l 2,41,42
 -164 -259 -164 -259 -140 -259 c 128,-1,43
 -116 -259 -116 -259 -94 -260 c 1,44,45
 -94 -181 -94 -181 -93.5 -129 c 128,-1,46
 -93 -77 -93 -77 -93 -59 c 0,47,48
 -93 -52 -93 -52 -84 -47.5 c 128,-1,49
 -75 -43 -75 -43 -64 -42 c 128,-1,50
 -53 -41 -53 -41 -44 -43.5 c 128,-1,51
 -35 -46 -35 -46 -35 -53 c 2,52,-1
 -35 -269 l 1,53,-1
 -35 -269 l 1,54,55
 -35 -270 -35 -270 -36 -270 c 1,56,57
 -34 -275 -34 -275 -34.5 -282 c 128,-1,58
 -35 -289 -35 -289 -37 -289 c 2,59,-1
 -257 -289 l 2,60,61
 -287 -289 -287 -289 -326 -289 c 256,62,63
 -365 -289 -365 -289 -401 -289 c 0,64,65
 -438 -289 -438 -289 -469 -289 c 256,66,67
 -500 -289 -500 -289 -513 -289 c 1,68,-1
 -512 -290 l 1,69,-1
 -513 -286 l 1,0,-1
-444 -179 m 1,70,-1
 -445 -179 l 1,71,72
 -445 -195 -445 -195 -434.5 -204 c 128,-1,73
 -424 -213 -424 -213 -411 -213 c 256,74,75
 -398 -213 -398 -213 -387 -205 c 128,-1,76
 -376 -197 -376 -197 -376 -179 c 1,77,-1
 -377 -179 l 1,78,79
 -377 -164 -377 -164 -387.5 -157 c 128,-1,80
 -398 -150 -398 -150 -410.5 -150.5 c 128,-1,81
 -423 -151 -423 -151 -433.5 -158.5 c 128,-1,82
 -444 -166 -444 -166 -444 -179 c 1,70,-1
EndSplineSet
Ligature2: "'blwf' Below Base Forms lookup 4 subtable" u1134D u1131A
EndChar

StartChar: uE31B
Encoding: 58139 58139 68
Width: 0
GlyphClass: 2
Flags: W
LayerCount: 2
Fore
SplineSet
-487 -295 m 1,0,-1
 -531 -294 l 1,1,-1
 -531 -268 l 1,2,-1
 -487 -268 l 1,3,-1
 -455 -268 l 2,4,5
 -419 -268 -419 -268 -389 -265.5 c 128,-1,6
 -359 -263 -359 -263 -337.5 -255.5 c 128,-1,7
 -316 -248 -316 -248 -302.5 -233.5 c 128,-1,8
 -289 -219 -289 -219 -286 -196 c 0,9,10
 -287 -172 -287 -172 -302 -154 c 128,-1,11
 -317 -136 -317 -136 -339 -128 c 128,-1,12
 -361 -120 -361 -120 -385.5 -122.5 c 128,-1,13
 -410 -125 -410 -125 -427 -141 c 1,14,15
 -412 -140 -412 -140 -396 -142.5 c 128,-1,16
 -380 -145 -380 -145 -367 -152.5 c 128,-1,17
 -354 -160 -354 -160 -346.5 -171 c 128,-1,18
 -339 -182 -339 -182 -339 -199 c 0,19,20
 -340 -228 -340 -228 -364 -242.5 c 128,-1,21
 -388 -257 -388 -257 -417 -257 c 0,22,23
 -445 -257 -445 -257 -468.5 -243 c 128,-1,24
 -492 -229 -492 -229 -493 -199 c 2,25,-1
 -493 -198 l 1,26,-1
 -493 -193 l 1,27,28
 -488 -157 -488 -157 -466.5 -135.5 c 128,-1,29
 -445 -114 -445 -114 -417.5 -104.5 c 128,-1,30
 -390 -95 -390 -95 -359.5 -97 c 128,-1,31
 -329 -99 -329 -99 -302.5 -111 c 128,-1,32
 -276 -123 -276 -123 -258.5 -143 c 128,-1,33
 -241 -163 -241 -163 -240 -189 c 2,34,-1
 -240 -196 l 1,35,-1
 -240 -198 l 1,36,-1
 -241 -198 l 1,37,38
 -243 -225 -243 -225 -254.5 -241 c 128,-1,39
 -266 -257 -266 -257 -288 -268 c 1,40,-1
 -182 -268 l 1,41,-1
 -182 -99 l 2,42,43
 -182 -70 -182 -70 -159.5 -56.5 c 128,-1,44
 -137 -43 -137 -43 -109.5 -42 c 128,-1,45
 -82 -41 -82 -41 -58.5 -51 c 128,-1,46
 -35 -61 -35 -61 -33 -82 c 0,47,48
 -32 -82 -32 -82 -32 -84 c 1,49,-1
 -33 -84 l 1,50,51
 -32 -85 -32 -85 -32 -87 c 2,52,-1
 -32 -278 l 1,53,54
 -32 -278 -32 -278 -32 -278 c 1,55,56
 -32 -279 -32 -279 -33 -279 c 1,57,58
 -31 -282 -31 -282 -30.5 -288 c 128,-1,59
 -30 -294 -30 -294 -34 -294 c 2,60,-1
 -260 -294 l 2,61,62
 -317 -294 -317 -294 -374 -294 c 128,-1,63
 -431 -294 -431 -294 -487 -295 c 1,64,-1
 -487 -293 l 1,65,-1
 -487 -295 l 1,0,-1
-93 -270 m 1,66,-1
 -93 -120 l 1,67,-1
 -93 -102 l 2,68,69
 -93 -95 -93 -95 -101 -90 c 128,-1,70
 -109 -85 -109 -85 -118 -84.5 c 128,-1,71
 -127 -84 -127 -84 -134.5 -89 c 128,-1,72
 -142 -94 -142 -94 -142 -108 c 1,73,-1
 -142 -99 l 1,74,-1
 -142 -268 l 1,75,76
 -129 -268 -129 -268 -118.5 -268.5 c 128,-1,77
 -108 -269 -108 -269 -93 -269 c 1,78,-1
 -93 -270 l 1,66,-1
-452 -198 m 0,79,80
 -452 -212 -452 -212 -440.5 -219 c 128,-1,81
 -429 -226 -429 -226 -416 -226 c 0,82,83
 -404 -226 -404 -226 -392.5 -219.5 c 128,-1,84
 -381 -213 -381 -213 -381 -198 c 0,85,86
 -381 -184 -381 -184 -392 -177.5 c 128,-1,87
 -403 -171 -403 -171 -416 -172 c 128,-1,88
 -429 -173 -429 -173 -440.5 -180 c 128,-1,89
 -452 -187 -452 -187 -452 -198 c 0,79,80
EndSplineSet
Ligature2: "'blwf' Below Base Forms lookup 4 subtable" u1134D u1131B
EndChar

